<?xml version="1.0" standalone="no"?>
<!DOCTYPE svg PUBLIC "-//W3C//DTD SVG 1.1//EN" "http://www.w3.org/Graphics/SVG/1.1/DTD/svg11.dtd" >
<svg xmlns="http://www.w3.org/2000/svg" xmlns:xlink="http://www.w3.org/1999/xlink" version="1.1">
<metadata>
Created by FontForge 20141024 at Thu May 21 14:32:04 2015
 By System Administrator
Copyright (c) 2013 by Juan Pablo del Peral (huertatipografica.com.ar)
</metadata>
<defs>
<font id="AlegreyaSansSC-Medium" horiz-adv-x="389" >
  <font-face 
    font-family="Alegreya Sans SC Medium"
    font-weight="500"
    font-stretch="normal"
    units-per-em="1000"
    panose-1="0 0 6 0 0 0 0 0 0 0"
    ascent="800"
    descent="-200"
    x-height="501"
    cap-height="642"
    bbox="-233 -261 1174 1022"
    underline-thickness="48"
    underline-position="-133"
    stemh="69"
    stemv="94"
    unicode-range="U+0020-F6D8"
  />
<missing-glyph horiz-adv-x="160" 
 />
    <glyph glyph-name="Idieresis" unicode="&#xa8;I" horiz-adv-x="279" 
d="M72 846c32 0 50 -19 50 -51c0 -34 -20 -55 -53 -55s-51 19 -51 52s21 54 54 54zM210 846c32 0 50 -19 50 -51c0 -34 -20 -55 -53 -55s-51 19 -51 52s21 54 54 54zM186 202l4 -202h-104l7 193l-7 449h106z" />
    <glyph glyph-name="Odieresis" unicode="&#xa8;O" horiz-adv-x="639" 
d="M240 846c32 0 50 -19 50 -51c0 -34 -20 -55 -53 -55s-51 19 -51 52s21 54 54 54zM404 846c32 0 50 -19 50 -51c0 -34 -20 -55 -53 -55s-51 19 -51 52s21 54 54 54zM329 650c177 0 276 -114 276 -316c0 -219 -106 -343 -295 -343c-177 0 -276 118 -276 324
c0 215 106 335 295 335zM319 565c-122 0 -179 -74 -179 -237c0 -176 57 -254 178 -254c120 0 180 75 180 241c0 174 -57 250 -179 250z" />
    <glyph glyph-name="Yacute" unicode="&#xb4;Y" horiz-adv-x="541" 
d="M191 723l-17 44c66 34 130 67 198 107l10 -2l27 -61l-4 -10c-71 -31 -136 -56 -203 -82zM310 184l4 -184h-104l7 184l-1 40l-205 418h110l13 -40l128 -269h8l140 267l16 42h109l-224 -417z" />
    <glyph glyph-name="idieresis" unicode="&#xa8;i" horiz-adv-x="267" 
d="M68 705c32 0 50 -19 50 -51c0 -34 -20 -55 -53 -55s-51 19 -51 52s21 54 54 54zM206 705c32 0 50 -19 50 -51c0 -34 -20 -55 -53 -55s-51 19 -51 52s21 54 54 54zM175 159l4 -159h-96l4 150l-4 351h97z" />
    <glyph glyph-name="odieresis" unicode="&#xa8;o" horiz-adv-x="558" 
d="M201 705c32 0 50 -19 50 -51c0 -34 -20 -55 -53 -55s-51 19 -51 52s21 54 54 54zM365 705c32 0 50 -19 50 -51c0 -34 -20 -55 -53 -55s-51 19 -51 52s21 54 54 54zM288 508c147 0 231 -90 231 -246c0 -173 -90 -270 -248 -270c-148 0 -231 92 -231 253
c0 168 89 263 248 263zM279 429c-95 0 -139 -49 -139 -172c0 -136 44 -187 138 -187c96 0 141 49 141 173c0 134 -43 186 -140 186z" />
    <glyph glyph-name="yacute" unicode="&#xb4;y" horiz-adv-x="483" 
d="M189 560l-26 40c59 48 113 93 171 148l10 -1l38 -54l-2 -10c-63 -46 -121 -85 -181 -124zM278 140l4 -140h-96l4 140l-1 28l-169 333h102l12 -32l99 -199h7l110 195l15 36h100l-186 -330z" />
    <glyph glyph-name="Etilde" unicode="&#x7e;E" horiz-adv-x="493" 
d="M143 728l-31 32v9l65 77l11 4c44 -6 130 -36 155 -36c17 0 34 22 59 49h10l30 -32v-9l-65 -77l-10 -5c-44 6 -129 37 -155 37c-18 0 -34 -23 -59 -49h-10zM466 88l6 -9l-7 -79h-379l7 193l-7 449h381l6 -9l-8 -79l-152 4l-122 -1l-3 -187l116 -2l106 3l7 -8l-8 -79
l-113 3l-109 -2l-1 -83l2 -118l123 -1z" />
    <glyph glyph-name="Utilde" unicode="&#x7e;U" horiz-adv-x="631" 
d="M482 831v-9l-65 -77l-10 -5c-44 6 -129 37 -155 37c-18 0 -34 -23 -59 -49h-10l-31 32v9l65 77l11 4c44 -6 130 -36 155 -36c17 0 34 22 59 49h10zM560 316l-1 -76c2 -157 -89 -248 -252 -248c-155 0 -241 86 -238 240l1 89l-1 321h102l-4 -396c-1 -112 48 -166 147 -166
s151 51 150 156l-5 406h104z" />
    <glyph glyph-name="Itilde" unicode="&#x7e;I" horiz-adv-x="279" 
d="M284 828v-9l-58 -77l-10 -3c-39 5 -110 35 -131 35c-17 0 -31 -22 -52 -47h-9l-31 31v9l59 76l10 4c39 -5 109 -35 130 -35c18 0 31 22 53 48h9zM186 202l4 -202h-104l7 193l-7 449h106z" />
    <glyph glyph-name="Ytilde" unicode="&#x7e;Y" horiz-adv-x="541" 
d="M131 728l-31 32v9l65 77l11 4c44 -6 130 -36 155 -36c17 0 34 22 59 49h10l30 -32v-9l-65 -77l-10 -5c-44 6 -129 37 -155 37c-18 0 -34 -23 -59 -49h-10zM310 184l4 -184h-104l7 184l-1 40l-205 418h110l13 -40l128 -269h8l140 267l16 42h109l-224 -417z" />
    <glyph glyph-name="etilde" unicode="&#x7e;e" horiz-adv-x="444" 
d="M110 587l-31 32v9l65 77l11 4c44 -6 130 -36 155 -36c17 0 34 22 59 49h10l30 -32v-9l-65 -77l-10 -5c-44 6 -129 37 -155 37c-18 0 -34 -23 -59 -49h-10zM406 80l6 -7l-7 -73h-322l4 150l-4 351h324l6 -8l-7 -73l-127 5l-100 -1l-2 -130l96 -1l87 3l6 -8l-7 -74l-94 3
l-89 -1l-1 -57l2 -82l94 -1z" />
    <glyph glyph-name="utilde" unicode="&#x7e;u" horiz-adv-x="552" 
d="M442 690v-9l-65 -77l-10 -5c-44 6 -129 37 -155 37c-18 0 -34 -23 -59 -49h-10l-31 32v9l65 77l11 4c44 -6 130 -36 155 -36c17 0 34 22 59 49h10zM482 246v-74c1 -114 -76 -179 -210 -179c-133 0 -206 64 -203 179l1 77l-2 252h97l-6 -314c-1 -76 38 -114 116 -114
s118 38 117 114l-4 314h97z" />
    <glyph glyph-name="itilde" unicode="&#x7e;i" horiz-adv-x="267" 
d="M280 687v-9l-58 -77l-10 -3c-39 5 -110 35 -131 35c-17 0 -31 -22 -52 -47h-9l-31 31v9l59 76l10 4c39 -5 109 -35 130 -35c18 0 31 22 53 48h9zM175 159l4 -159h-96l4 150l-4 351h97z" />
    <glyph glyph-name="ytilde" unicode="&#x7e;y" horiz-adv-x="483" 
d="M111 587l-31 32v9l65 77l11 4c44 -6 130 -36 155 -36c17 0 34 22 59 49h10l30 -32v-9l-65 -77l-10 -5c-44 6 -129 37 -155 37c-18 0 -34 -23 -59 -49h-10zM278 140l4 -140h-96l4 140l-1 28l-169 333h102l12 -32l99 -199h7l110 195l15 36h100l-186 -330z" />
    <glyph glyph-name="Gtilde" unicode="&#x7e;G" horiz-adv-x="599" 
d="M490 831v-9l-65 -77l-10 -5c-44 6 -129 37 -155 37c-18 0 -34 -23 -59 -49h-10l-31 32v9l65 77l11 4c44 -6 130 -36 155 -36c17 0 34 22 59 49h10zM356 649c66 0 127 -13 188 -43l-21 -96l-11 -1c-65 38 -113 54 -173 54c-131 0 -198 -75 -198 -251
c0 -166 60 -235 192 -235c33 0 61 5 111 20l3 65l-3 96l97 7l-2 -87l3 -147c-86 -27 -152 -39 -215 -39c-199 0 -293 116 -293 315c0 223 117 342 322 342z" />
    <glyph glyph-name="gtilde" unicode="&#x7e;g" horiz-adv-x="523" 
d="M442 690v-9l-65 -77l-10 -5c-44 6 -129 37 -155 37c-18 0 -34 -23 -59 -49h-10l-31 32v9l65 77l11 4c44 -6 130 -36 155 -36c17 0 34 22 59 49h10zM310 507c55 0 104 -10 158 -31l-29 -91h-10c-50 31 -87 43 -136 43c-102 0 -152 -52 -152 -184c0 -126 45 -173 150 -173
c27 0 49 4 87 18v42l-1 75l88 6l-1 -66v-122c-70 -21 -126 -31 -178 -31c-165 0 -246 91 -246 247c0 174 100 267 270 267z" />
    <glyph glyph-name=".notdef" horiz-adv-x="160" 
 />
    <glyph glyph-name="space" unicode=" " horiz-adv-x="160" 
 />
    <glyph glyph-name="exclam" unicode="!" horiz-adv-x="260" 
d="M190 650l-28 -424l-59 -8l-11 12l-3 416l9 12l80 5zM121 108c34 0 53 -21 53 -55c0 -36 -22 -59 -56 -59c-35 0 -55 21 -55 56s23 58 58 58z" />
    <glyph glyph-name="quotedbl" unicode="&#x22;" horiz-adv-x="310" 
d="M141 632l-28 -198l-50 -7l-8 7l1 200l78 6zM269 632l-29 -198l-50 -7l-8 7l2 200l78 6z" />
    <glyph glyph-name="numbersign" unicode="#" horiz-adv-x="529" 
d="M393 361l-24 -111h99l7 -7l-5 -54h-114l-33 -157h-59l-6 8l32 149h-106l-33 -157h-60l-5 8l32 149h-91l-7 7l5 54h105l24 111h-93l-7 7l5 54h108l32 152h58l7 -9l-30 -143h105l32 152h58l7 -9l-30 -143h97l6 -7l-5 -54h-111zM326 361h-105l-24 -111h105z" />
    <glyph glyph-name="dollar" unicode="$" horiz-adv-x="441" 
d="M387 144c0 -70 -53 -135 -154 -148l-10 -128h-50l-8 9l9 118c-42 3 -89 13 -131 31l11 86l11 5c32 -31 76 -50 114 -56l12 158c-65 27 -134 60 -134 140c0 74 59 134 156 144l10 140h50l10 -9l-10 -130c32 -3 67 -11 100 -24l-14 -80l-14 -3c-26 20 -52 32 -77 38
l-12 -152c64 -27 131 -61 131 -139zM141 371c0 -29 24 -47 57 -63l10 129c-44 -8 -67 -38 -67 -66zM248 193l-10 -132c40 10 65 38 65 68c0 29 -23 48 -55 64z" />
    <glyph glyph-name="percent" unicode="%" horiz-adv-x="836" 
d="M653 655l7 -15l-469 -731l-45 26l-5 13l469 733zM193 648c93 0 144 -62 144 -173c0 -121 -54 -185 -155 -185c-94 0 -146 62 -146 173c0 120 56 185 157 185zM186 577c-55 0 -82 -35 -82 -107c0 -77 27 -114 83 -114s83 37 83 109c0 75 -28 112 -84 112zM655 353
c93 0 144 -62 144 -173c0 -120 -54 -185 -155 -185c-94 0 -146 62 -146 174c0 119 56 184 157 184zM648 282c-55 0 -81 -35 -81 -107c0 -77 26 -114 82 -114s83 37 83 109c0 76 -28 112 -84 112z" />
    <glyph glyph-name="ampersand" unicode="&#x26;" horiz-adv-x="761" 
d="M800 348l17 -57c-27 -44 -56 -68 -105 -74c-26 0 -66 7 -107 15c-18 -145 -133 -243 -300 -243c-168 0 -267 100 -267 263c0 156 90 257 209 257c77 0 119 -42 119 -95c0 -6 -1 -12 -2 -19c120 89 216 200 268 316h9c21 -20 34 -41 41 -68c-69 -157 -312 -362 -546 -455
c21 -76 79 -124 178 -124c121 0 210 72 217 183c-19 3 -36 5 -47 5c-31 0 -56 -17 -78 -56l-11 -1l-17 58c27 45 57 68 106 73c52 0 174 -34 227 -34c36 0 61 16 77 55zM244 441c-72 0 -118 -69 -118 -175v-6c48 19 94 42 139 69c29 23 37 50 36 69c-3 29 -26 43 -57 43z
" />
    <glyph glyph-name="quoteright" unicode="&#x2019;" horiz-adv-x="183" 
d="M98 645c38 -17 55 -43 55 -82c0 -46 -26 -94 -81 -147l-37 25l-1 8c28 30 41 59 41 84c0 28 -11 48 -39 62v9c17 15 39 30 62 41z" />
    <glyph glyph-name="parenleft" unicode="(" horiz-adv-x="291" 
d="M286 629v-9c-90 -75 -126 -180 -127 -364c1 -178 37 -280 127 -355v-9l-36 -32h-10c-115 84 -162 198 -163 395c1 204 48 322 163 407h10z" />
    <glyph glyph-name="parenright" unicode=")" horiz-adv-x="291" 
d="M5 -108v9c90 75 126 180 127 364c-1 178 -37 280 -127 355v9l36 33h10c115 -85 162 -199 163 -396c-1 -204 -48 -322 -163 -406h-10z" />
    <glyph glyph-name="asterisk" unicode="*" horiz-adv-x="378" 
d="M233 730l-26 -121l-38 -4l-6 7l-3 114c21 8 45 11 68 11zM149 597l-5 -37l-9 -4l-103 33c0 21 2 47 10 69l7 2zM222 599l101 38c12 -18 24 -40 32 -62l-5 -6l-115 -13l-17 34zM230 536l64 -91c-12 -20 -29 -35 -47 -50l-9 2l-45 116l27 24zM174 519l1 -10l-58 -94
c-22 6 -43 19 -63 31v8l87 82z" />
    <glyph glyph-name="plus" unicode="+" horiz-adv-x="480" 
d="M275 468v-170h170l7 -7l-5 -63h-172v-172l-62 -5l-8 7v170h-170l-7 7l5 63h172v172l63 6z" />
    <glyph glyph-name="comma" unicode="," horiz-adv-x="229" 
d="M134 106c28 -20 43 -45 43 -75c0 -50 -35 -99 -106 -150l-33 30l-1 8c37 30 55 60 55 92c0 21 -10 38 -31 53v9c22 14 46 26 73 33z" />
    <glyph glyph-name="hyphen" unicode="-" horiz-adv-x="306" 
d="M277 300v-64l-240 -36l-9 9v64l240 35z" />
    <glyph glyph-name="period" unicode="." horiz-adv-x="229" 
d="M116 108c34 0 53 -21 53 -55c0 -36 -22 -59 -56 -59c-35 0 -55 21 -55 56s22 58 58 58z" />
    <glyph glyph-name="slash" unicode="/" horiz-adv-x="286" 
d="M295 669l-205 -783h-71l-6 9l205 784h69z" />
    <glyph glyph-name="zero" unicode="0" horiz-adv-x="525" 
d="M270 508c135 0 212 -91 212 -252c0 -168 -81 -264 -225 -264c-136 0 -214 91 -214 250c0 169 83 266 227 266zM262 414c-93 0 -139 -54 -139 -165s46 -167 140 -167c92 0 140 54 140 162c0 114 -49 170 -141 170z" />
    <glyph glyph-name="one" unicode="1" horiz-adv-x="351" 
d="M240 495l-6 -288l5 -207h-103l6 196l-1 194l-122 -34l-9 6v81l215 63z" />
    <glyph glyph-name="two" unicode="2" horiz-adv-x="462" 
d="M235 506c84 0 146 -45 146 -116c0 -54 -36 -116 -116 -206l-89 -101l2 -5h163l87 8l7 -7l-13 -84l-110 5h-226l-37 -2l-5 4v63l137 144c65 70 100 117 100 156c0 31 -24 54 -68 54c-46 0 -95 -24 -135 -64h-11l-17 79c56 44 120 72 185 72z" />
    <glyph glyph-name="three" unicode="3" horiz-adv-x="420" 
d="M196 507c97 0 162 -53 162 -131c0 -51 -28 -110 -98 -147v-4c76 -20 116 -65 116 -132c0 -113 -95 -189 -237 -189c-33 0 -72 4 -103 9l-5 84l7 7c35 -15 71 -22 106 -22c82 0 135 39 135 103c0 55 -39 87 -113 90h-63l-6 7l3 70l44 1c51 0 111 41 111 101
c0 44 -31 70 -79 70c-42 0 -79 -20 -122 -55h-11l-15 77c53 41 109 61 168 61z" />
    <glyph glyph-name="four" unicode="4" horiz-adv-x="490" 
d="M455 66l-90 2l4 -151l-6 -8l-78 -6l-6 7l3 158h-176l-75 -2l-7 9v66l249 360h94l-3 -354h90l6 -9zM113 147h170v235h-8z" />
    <glyph glyph-name="five" unicode="5" horiz-adv-x="423" 
d="M386 499l-11 -80l-7 -7l-82 7h-134l-3 -137l62 -13c126 -26 168 -79 168 -158c0 -124 -101 -209 -245 -209c-33 0 -69 5 -101 11l-7 86l8 8c41 -18 78 -25 114 -25c83 0 135 46 135 113c0 53 -33 84 -117 99l-89 17l-8 9l5 270l14 14l55 -3h139l98 5z" />
    <glyph glyph-name="six" unicode="6" horiz-adv-x="475" 
d="M274 354c103 0 162 -72 162 -171c0 -107 -72 -192 -202 -192c-128 0 -193 83 -193 221c0 168 107 306 293 383h6l76 -46v-10c-152 -54 -235 -119 -267 -214l7 -8c34 23 73 37 118 37zM241 60c64 0 104 38 104 109c0 72 -36 112 -100 112c-39 0 -76 -16 -111 -43l-1 -24
c0 -102 31 -154 108 -154z" />
    <glyph glyph-name="seven" unicode="7" horiz-adv-x="424" 
d="M125 501h225l45 2l1 -75l-182 -398l-49 -131l-82 22l-6 17l223 479h-192l-83 -9l-6 10l7 87z" />
    <glyph glyph-name="eight" unicode="8" horiz-adv-x="482" 
d="M250 593c102 0 163 -54 163 -142c0 -70 -43 -110 -92 -141v-5c53 -26 110 -61 110 -144c0 -104 -81 -169 -203 -169c-117 0 -183 63 -183 151c0 79 55 121 113 149v5c-46 24 -91 63 -91 138c0 99 75 158 183 158zM245 521c-59 0 -94 -32 -94 -83c0 -57 46 -81 97 -101
c45 21 85 48 85 104c0 50 -34 80 -88 80zM230 262c-52 -19 -99 -45 -99 -107c0 -55 40 -92 106 -92c69 0 109 39 109 91c0 62 -57 84 -116 108z" />
    <glyph glyph-name="nine" unicode="9" horiz-adv-x="475" 
d="M241 511c128 0 193 -83 193 -221c0 -168 -107 -306 -293 -383h-6l-76 46v10c152 54 235 119 267 214l-7 8c-34 -23 -73 -37 -118 -37c-103 0 -162 72 -162 171c0 107 72 192 202 192zM230 221c39 0 76 16 111 43l1 24c0 102 -31 154 -108 154c-64 0 -104 -38 -104 -109
c0 -72 36 -112 100 -112z" />
    <glyph glyph-name="colon" unicode=":" horiz-adv-x="229" 
d="M112 375c34 0 53 -21 53 -55c0 -36 -22 -59 -57 -59c-34 0 -54 21 -54 55c0 36 22 59 58 59zM112 108c34 0 53 -21 53 -55c0 -36 -22 -59 -57 -59c-34 0 -54 21 -54 56s22 58 58 58z" />
    <glyph glyph-name="semicolon" unicode=";" horiz-adv-x="229" 
d="M112 375c34 0 53 -21 53 -55c0 -36 -22 -59 -57 -59c-34 0 -54 21 -54 55c0 36 22 59 58 59zM130 106c28 -20 43 -45 43 -75c0 -50 -35 -99 -106 -150l-34 30v8c36 30 55 60 55 92c0 21 -11 38 -31 53v9c22 14 46 26 73 33z" />
    <glyph glyph-name="less" unicode="&#x3c;" horiz-adv-x="480" 
d="M443 408l-5 -9l-327 -131v-6l329 -124l-15 -58l-10 -7l-380 148v83l8 10l378 152z" />
    <glyph glyph-name="equal" unicode="=" horiz-adv-x="480" 
d="M452 378l-5 -62h-412l-7 7l5 62h412zM452 203l-5 -63h-412l-7 7l5 63h412z" />
    <glyph glyph-name="greater" unicode="&#x3e;" horiz-adv-x="480" 
d="M437 314l8 -10v-83l-380 -148l-10 7l-15 58l329 124v6l-327 131l-5 9l22 58z" />
    <glyph glyph-name="question" unicode="?" horiz-adv-x="335" 
d="M74 659l11 5c166 -9 260 -66 260 -159c0 -53 -31 -101 -87 -135l-78 -50l-2 -4l6 -92l-72 -9l-8 8l-8 117l5 10l93 52c38 22 59 52 59 87c0 60 -58 95 -191 103l-7 10zM151 108c34 0 54 -21 54 -55c0 -36 -22 -59 -57 -59s-54 21 -54 56s22 58 57 58z" />
    <glyph glyph-name="at" unicode="@" horiz-adv-x="833" 
d="M806 304c0 -192 -127 -300 -355 -307l26 185h-11c-42 -71 -90 -138 -143 -190h-16c-60 29 -87 81 -87 160c0 133 77 282 237 312h5l69 -22l57 23l11 -5l-50 -349l-2 -41c120 16 191 101 191 231c0 156 -110 260 -285 256c-212 -3 -351 -151 -351 -358
c0 -216 152 -343 382 -343l4 -10l-30 -49c-255 3 -425 146 -425 389c0 254 171 437 431 437c207 0 342 -125 342 -319zM333 91c22 0 96 84 168 255l1 8l1 13l-64 24c-85 0 -134 -93 -134 -210c0 -71 15 -90 28 -90z" />
    <glyph glyph-name="A" unicode="A" horiz-adv-x="587" 
d="M568 0h-106l-15 72l-28 89l-136 3l-123 -3l-30 -84l-16 -77h-103l229 642h121zM393 245l-92 296h-7l-105 -296l101 -2z" />
    <glyph glyph-name="B" unicode="B" horiz-adv-x="554" 
d="M386 334c90 -19 132 -70 132 -154c0 -123 -93 -184 -275 -184c-26 0 -110 1 -156 4h-1l7 193l-7 449l200 1c123 0 196 -54 196 -158c0 -72 -35 -125 -96 -151zM376 473c0 64 -32 90 -118 90h-68l-3 -197l103 -3c57 14 86 47 86 110zM260 76c98 0 154 38 154 110
c0 59 -38 91 -111 101l-117 -1l-1 -84l3 -123c26 -2 54 -3 72 -3z" />
    <glyph glyph-name="C" unicode="C" horiz-adv-x="519" 
d="M327 649c67 0 125 -16 173 -44l-19 -91l-10 -3c-41 32 -91 52 -148 52c-117 0 -181 -79 -181 -237c0 -163 66 -247 181 -247c56 0 114 20 160 55l10 -6l-8 -94c-55 -27 -108 -42 -170 -42c-180 0 -281 116 -281 323c0 214 107 334 293 334z" />
    <glyph glyph-name="D" unicode="D" horiz-adv-x="650" 
d="M87 642l243 4c184 0 286 -107 286 -302c0 -226 -112 -350 -314 -350c-43 0 -156 3 -215 6h-1l7 193l-7 449h1zM320 76c120 0 189 78 189 245c0 166 -62 241 -187 241c-21 0 -93 -2 -131 -4l-5 -356l3 -119c45 -4 110 -7 131 -7z" />
    <glyph glyph-name="E" unicode="E" horiz-adv-x="493" 
d="M466 88l6 -9l-7 -79h-379l7 193l-7 449h381l6 -9l-8 -79l-152 4l-122 -1l-3 -187l116 -2l106 3l7 -8l-8 -79l-113 3l-109 -2l-1 -83l3 -118l122 -1z" />
    <glyph glyph-name="F" unicode="F" horiz-adv-x="443" 
d="M191 557l-3 -202l101 -2l106 3l7 -9l-8 -78l-114 3l-93 -1l-1 -69l5 -202h-105l7 193l-7 449h359l7 -9l-8 -81l-150 6z" />
    <glyph glyph-name="G" unicode="G" horiz-adv-x="599" 
d="M356 649c66 0 127 -13 188 -43l-21 -96l-11 -1c-65 38 -113 54 -173 54c-131 0 -198 -75 -198 -251c0 -166 60 -235 192 -235c33 0 61 5 111 20l3 65l-3 96l97 7l-2 -87l3 -147c-86 -27 -152 -39 -215 -39c-199 0 -293 116 -293 315c0 223 117 342 322 342z" />
    <glyph glyph-name="H" unicode="H" horiz-adv-x="688" 
d="M596 202l4 -202h-104l7 193l-1 87l-166 3l-149 -3l-1 -78l5 -202h-105l7 193l-7 449h106l-4 -275l156 -3l156 3l-4 275h106z" />
    <glyph glyph-name="I" unicode="I" horiz-adv-x="279" 
d="M186 202l5 -202h-105l7 193l-7 449h106z" />
    <glyph glyph-name="J" unicode="J" horiz-adv-x="321" 
d="M229 212l2 -93c0 -104 -47 -164 -181 -223l-36 57v11c87 45 122 83 122 155v83l-4 360l-117 -1l-9 8l6 73h223z" />
    <glyph glyph-name="K" unicode="K" horiz-adv-x="562" 
d="M185 202l5 -202h-105l7 193l-7 449h106zM547 642l-246 -302c81 -109 172 -218 265 -318l-2 -12c-33 -9 -66 -15 -100 -19l-11 6c-90 109 -178 221 -259 338v6l201 243l38 58h114z" />
    <glyph glyph-name="L" unicode="L" horiz-adv-x="423" 
d="M421 77l-8 -77h-330l7 193l-7 449h106l-6 -440l2 -116h229z" />
    <glyph glyph-name="M" unicode="M" horiz-adv-x="792" 
d="M737 0h-92l-13 195l-30 290h-7l-165 -414h-82l-153 414h-9l-30 -281l-16 -204h-87l67 642h118l30 -96l123 -341h8l130 344l30 93h117z" />
    <glyph glyph-name="N" unicode="N" horiz-adv-x="688" 
d="M595 192l4 -192h-111l-301 481h-8l-1 -266l5 -215h-97l7 190l-5 452h110l302 -481h8l-3 476l97 7z" />
    <glyph glyph-name="O" unicode="O" horiz-adv-x="639" 
d="M329 650c177 0 276 -114 276 -316c0 -219 -107 -343 -295 -343c-177 0 -276 118 -276 324c0 215 106 335 295 335zM320 565c-122 0 -180 -74 -180 -237c0 -176 57 -254 178 -254s180 75 180 241c0 174 -57 250 -178 250z" />
    <glyph glyph-name="P" unicode="P" horiz-adv-x="534" 
d="M86 642l218 1c129 0 202 -68 202 -192c0 -144 -94 -234 -249 -234h-71v-15l5 -202h-105l7 193zM187 299l100 -2c73 14 112 63 112 145c0 81 -42 117 -123 120l-85 -3z" />
    <glyph glyph-name="Q" unicode="Q" horiz-adv-x="643" 
d="M730 -114l4 -12c-15 -30 -28 -48 -47 -66l-9 -4c-124 38 -243 102 -344 188l-22 -1c-180 0 -278 118 -278 324c0 215 106 335 295 335c177 0 276 -113 276 -318c0 -165 -63 -278 -177 -321c91 -60 191 -103 302 -125zM140 325c0 -173 58 -251 180 -251
c117 0 178 76 178 244c0 171 -58 247 -179 247c-122 0 -179 -74 -179 -240z" />
    <glyph glyph-name="R" unicode="R" horiz-adv-x="570" 
d="M380 257c49 -79 103 -156 161 -233l-1 -12c-32 -11 -65 -18 -99 -21l-12 8c-46 75 -92 152 -134 230h-109v-27l5 -202h-105l7 193l-7 449l218 1c129 0 203 -66 203 -187c0 -86 -47 -157 -127 -199zM188 313l110 -3c66 20 101 65 101 138c0 76 -42 111 -123 114l-85 -3z
" />
    <glyph glyph-name="S" unicode="S" horiz-adv-x="483" 
d="M274 649c42 0 95 -8 152 -32l-17 -94l-16 -6c-42 31 -90 49 -131 49c-69 0 -107 -46 -107 -90c0 -118 289 -107 289 -294c0 -104 -90 -190 -226 -190c-58 0 -123 15 -180 43l13 102l13 6c52 -49 117 -70 164 -70c73 0 114 46 114 93c0 125 -288 108 -288 296
c0 105 89 187 220 187z" />
    <glyph glyph-name="T" unicode="T" horiz-adv-x="495" 
d="M477 633l-6 -78l-116 6h-54l-5 -359l5 -202h-104l6 193l-5 368h-54l-118 -6l-7 9l8 78h444z" />
    <glyph glyph-name="U" unicode="U" horiz-adv-x="631" 
d="M560 316l-1 -76c3 -157 -89 -248 -251 -248c-156 0 -242 86 -239 240l2 89l-2 321h102l-4 -396c-1 -112 48 -166 148 -166c98 0 150 51 149 156l-5 406h104z" />
    <glyph glyph-name="V" unicode="V" horiz-adv-x="573" 
d="M342 0h-122l-208 642h106l15 -73l147 -469h7l163 464l16 78h103z" />
    <glyph glyph-name="W" unicode="W" horiz-adv-x="897" 
d="M668 0h-108l-113 345h-7l-117 -345h-109l-194 642h102l11 -69l138 -463h8l126 372l-51 160h105l16 -79l140 -453h8l155 457l16 75h96z" />
    <glyph glyph-name="X" unicode="X" horiz-adv-x="598" 
d="M361 335l215 -335h-125l-29 57l-131 197l-137 -203l-27 -51h-108l212 321l-207 321h125l28 -56l122 -186l125 188l26 54h111z" />
    <glyph glyph-name="Y" unicode="Y" horiz-adv-x="541" 
d="M309 184l5 -184h-104l6 184l-1 41l-204 417h110l13 -40l127 -269h9l140 267l16 42h108l-224 -418z" />
    <glyph glyph-name="Z" unicode="Z" horiz-adv-x="536" 
d="M496 567l-342 -486h244l101 8l5 -6l-9 -85l-129 2h-270l-65 -3v75l344 488h-227l-103 -8l-6 6l8 85l395 -1l54 1v-76z" />
    <glyph glyph-name="bracketleft" unicode="[" horiz-adv-x="291" 
d="M287 641v-47l-113 -13v-644l113 -12v-47l-5 -6l-192 10l5 378l-5 377l192 10z" />
    <glyph glyph-name="backslash" unicode="\" horiz-adv-x="286" 
d="M76 679l206 -784l-7 -9h-70l-206 783l8 10h69z" />
    <glyph glyph-name="bracketright" unicode="]" horiz-adv-x="291" 
d="M4 -122v47l113 13v644l-113 12v48l5 5l192 -10l-5 -377l5 -378l-192 -10z" />
    <glyph glyph-name="asciicircum" unicode="^" horiz-adv-x="431" 
d="M413 139l-8 -9l-57 -14l-125 304h-6l-131 -303l-9 -5l-58 22l152 354l10 6h83z" />
    <glyph glyph-name="underscore" unicode="_" horiz-adv-x="447" 
d="M462 -96l-5 -58h-465l-7 8l6 58h464z" />
    <glyph glyph-name="quoteleft" unicode="&#x2018;" horiz-adv-x="183" 
d="M88 417c-38 17 -55 43 -55 83c0 45 26 93 81 146l37 -25l2 -8c-29 -30 -42 -59 -42 -84c0 -28 11 -48 39 -62v-9c-17 -15 -39 -29 -62 -41z" />
    <glyph glyph-name="a" unicode="a" horiz-adv-x="519" 
d="M489 0h-97l-13 62l-18 55l-112 1l-100 -1l-19 -50l-14 -67h-95l187 501h112zM336 192l-71 219h-7l-81 -219l79 -1z" />
    <glyph glyph-name="b" unicode="b" horiz-adv-x="496" 
d="M345 260c70 -15 108 -53 108 -118c0 -99 -82 -145 -233 -145c-33 0 -93 1 -137 3l4 150l-4 351l176 1c103 0 166 -43 166 -124c0 -56 -30 -97 -80 -118zM325 365c0 47 -28 65 -99 65h-48l-2 -139l82 -3c44 10 67 32 67 77zM235 67c76 0 119 26 119 79c0 42 -29 64 -85 73
l-94 -1l-1 -59l2 -89c21 -2 43 -3 59 -3z" />
    <glyph glyph-name="c" unicode="c" horiz-adv-x="458" 
d="M288 507c54 0 103 -11 143 -32l-18 -85l-9 -3c-32 25 -77 41 -125 41c-89 0 -138 -55 -138 -172c0 -120 50 -183 141 -183c46 0 95 16 131 41l10 -5l-8 -85c-43 -20 -86 -31 -138 -31c-153 0 -237 91 -237 254c0 167 90 260 248 260z" />
    <glyph glyph-name="d" unicode="d" horiz-adv-x="567" 
d="M83 501l206 4c154 0 238 -85 238 -236c0 -177 -94 -274 -262 -274c-39 0 -130 2 -182 5l4 150zM281 70c92 0 147 55 147 177c0 125 -48 178 -146 178c-17 0 -72 -1 -103 -4l-4 -262l2 -82c32 -3 86 -7 104 -7z" />
    <glyph glyph-name="e" unicode="e" horiz-adv-x="444" 
d="M405 80l7 -7l-8 -73h-321l4 150l-4 351h324l6 -8l-7 -73l-127 5l-100 -1l-2 -130l96 -1l87 3l5 -8l-6 -74l-94 3l-89 -1l-1 -57l2 -82l93 -1z" />
    <glyph glyph-name="f" unicode="f" horiz-adv-x="394" 
d="M174 424l-2 -144l80 -1l89 3l7 -8l-7 -73l-97 2l-73 -1l-1 -43l4 -159h-96l4 150l-4 351h306l6 -8l-8 -73l-125 5z" />
    <glyph glyph-name="g" unicode="g" horiz-adv-x="523" 
d="M310 507c55 0 104 -10 158 -31l-29 -91h-10c-50 31 -87 43 -136 43c-102 0 -152 -52 -152 -184c0 -126 45 -173 150 -173c28 0 49 4 87 18v42l-1 75l88 6l-1 -66v-122c-69 -21 -126 -31 -178 -31c-165 0 -246 91 -246 247c0 174 100 267 270 267z" />
    <glyph glyph-name="h" unicode="h" horiz-adv-x="600" 
d="M513 159l4 -159h-96l3 150l-1 60l-129 1l-118 -2l-1 -50l4 -159h-96l4 150l-4 351h97l-3 -208l124 -2l122 1l-2 209h97z" />
    <glyph glyph-name="i" unicode="i" horiz-adv-x="267" 
d="M175 159l4 -159h-96l4 150l-4 351h97z" />
    <glyph glyph-name="j" unicode="j" horiz-adv-x="300" 
d="M214 501l-4 -336v-71c0 -84 -34 -131 -138 -177l-35 49v9c61 32 84 64 84 118v62l-2 274l-92 -1l-6 6l6 67h187z" />
    <glyph glyph-name="k" unicode="k" horiz-adv-x="503" 
d="M481 502l-200 -236c65 -84 138 -167 213 -244l-2 -14c-30 -8 -63 -14 -94 -17l-14 6c-71 85 -141 172 -206 263v7l161 187l32 47zM175 159l4 -159h-96l4 150l-4 351h97z" />
    <glyph glyph-name="l" unicode="l" horiz-adv-x="382" 
d="M365 72l-7 -72h-278l4 150l-4 351h98l-5 -342l1 -79h185z" />
    <glyph glyph-name="m" unicode="m" horiz-adv-x="684" 
d="M628 0h-85l-10 152l-23 204h-6l-130 -303h-75l-120 303h-8l-22 -195l-13 -161h-81l54 501h112l23 -74l94 -247h7l100 248l25 73h109z" />
    <glyph glyph-name="n" unicode="n" horiz-adv-x="600" 
d="M512 153l3 -153h-104l-237 352h-6l-1 -182l3 -170h-87l4 147l-3 354h102l237 -352h8l-3 349l89 5z" />
    <glyph glyph-name="o" unicode="o" horiz-adv-x="558" 
d="M288 508c147 0 231 -90 231 -246c0 -173 -90 -270 -248 -270c-148 0 -231 92 -231 253c0 168 89 263 248 263zM279 429c-95 0 -139 -49 -139 -172c0 -136 43 -187 138 -187c96 0 141 49 141 173c0 134 -43 186 -140 186z" />
    <glyph glyph-name="p" unicode="p" horiz-adv-x="478" 
d="M83 501l190 1c108 0 170 -54 170 -152c0 -115 -82 -185 -211 -185h-57v-6l4 -159h-96l4 150zM176 239l80 -2c57 12 86 46 86 105c0 58 -33 84 -98 87l-65 -2z" />
    <glyph glyph-name="q" unicode="q" horiz-adv-x="563" 
d="M616 -83l4 -10c-13 -25 -25 -42 -43 -59l-8 -2c-102 33 -192 82 -272 147c-9 -1 -17 -1 -26 -1c-148 0 -231 92 -231 253c0 168 89 263 248 263c147 0 231 -90 231 -246c0 -128 -50 -215 -140 -251c73 -43 152 -76 237 -94zM140 257c0 -136 43 -187 138 -187
c96 0 141 49 141 173c0 134 -43 186 -140 186c-95 0 -139 -49 -139 -172z" />
    <glyph glyph-name="r" unicode="r" horiz-adv-x="508" 
d="M342 200c40 -60 84 -119 131 -177l-1 -12c-30 -9 -60 -16 -91 -18l-15 9c-35 56 -71 113 -103 172l-88 -1v-14l4 -159h-96l4 150l-4 351l190 1c108 0 170 -53 170 -147c0 -66 -37 -121 -101 -155zM176 250l87 -3c52 15 79 47 79 99c0 55 -32 79 -97 82l-66 -2z" />
    <glyph glyph-name="s" unicode="s" horiz-adv-x="433" 
d="M244 507c41 0 87 -9 128 -25l-15 -91l-15 -3c-39 31 -75 46 -110 46c-52 0 -80 -32 -80 -63c0 -88 233 -72 233 -224c0 -79 -63 -154 -188 -154c-45 0 -102 10 -153 32l13 97l11 6c41 -41 99 -62 141 -62c49 0 81 29 81 64c0 91 -232 74 -232 227c0 83 70 150 186 150z
" />
    <glyph glyph-name="t" unicode="t" horiz-adv-x="441" 
d="M413 493l-6 -77l-97 7h-42l-2 -264l3 -159h-96l4 150l-2 273h-41l-99 -7l-7 8l7 77h373z" />
    <glyph glyph-name="u" unicode="u" horiz-adv-x="552" 
d="M482 246l-1 -74c2 -114 -75 -179 -210 -179c-133 0 -205 64 -202 179l1 77l-3 252h97l-5 -314c-1 -76 38 -114 116 -114c77 0 118 38 117 114l-4 314h97z" />
    <glyph glyph-name="v" unicode="v" horiz-adv-x="508" 
d="M307 0h-115l-169 501h98l14 -63l114 -347h5l128 342l14 68h95z" />
    <glyph glyph-name="w" unicode="w" horiz-adv-x="771" 
d="M575 0h-103l-87 248h-7l-90 -248h-103l-155 501h97l9 -60l104 -338h7l98 275l-38 123h99l12 -69l106 -329h8l117 333l14 65h91z" />
    <glyph glyph-name="x" unicode="x" horiz-adv-x="527" 
d="M323 263l176 -263h-116l-24 48l-101 139l-107 -144l-23 -43h-100l174 249l-172 252h118l23 -48l95 -131l97 134l21 45h103z" />
    <glyph glyph-name="y" unicode="y" horiz-adv-x="483" 
d="M278 140l4 -140h-96l4 140l-1 28l-169 333h102l12 -32l99 -199h7l110 195l15 36h100l-186 -330z" />
    <glyph glyph-name="z" unicode="z" horiz-adv-x="475" 
d="M430 431l-277 -357h190l89 9l5 -5l-8 -80l-116 2h-217l-58 -2v69l278 359h-184l-84 -9l-4 6l7 79l100 -1h231l48 1v-71z" />
    <glyph glyph-name="braceleft" unicode="{" horiz-adv-x="291" 
d="M221 656c21 0 38 -4 57 -8l4 -8l-9 -54c-14 3 -24 5 -36 5c-40 0 -59 -22 -59 -68s22 -110 22 -153c0 -49 -23 -84 -68 -103v-5c45 -19 68 -56 68 -102c0 -45 -22 -107 -22 -154s19 -70 59 -70c12 0 22 2 36 5l9 -52l-4 -8c-19 -6 -36 -8 -57 -8c-81 0 -124 40 -124 115
c0 58 20 124 20 168c0 45 -24 72 -76 83v50c52 11 76 39 76 83s-20 111 -20 169c0 75 43 115 124 115z" />
    <glyph glyph-name="bar" unicode="|" horiz-adv-x="311" 
d="M195 793l-1 -504v-545l-70 -5l-8 10v533l1 512l71 6z" />
    <glyph glyph-name="braceright" unicode="}" horiz-adv-x="291" 
d="M70 -127c-21 0 -38 3 -57 8l-4 8l9 53c13 -3 24 -5 36 -5c40 0 59 23 59 69s-22 110 -22 153c0 48 23 84 68 103v5c-45 19 -68 55 -68 101s22 108 22 155s-19 69 -59 69c-12 0 -23 -2 -36 -5l-9 53l4 8c19 5 36 8 57 8c81 0 124 -40 124 -115c0 -58 -21 -125 -21 -168
c0 -45 25 -73 77 -83v-50c-52 -12 -77 -39 -77 -84c0 -43 21 -110 21 -168c0 -75 -43 -115 -124 -115z" />
    <glyph glyph-name="asciitilde" unicode="~" horiz-adv-x="480" 
d="M149 248c-19 0 -40 -24 -69 -53h-11l-27 34v10l76 81l11 6c52 -9 171 -51 204 -51c18 0 39 23 69 53h10l27 -34v-10l-76 -82l-11 -4c-52 7 -171 50 -203 50z" />
    <glyph glyph-name="exclamdown" unicode="&#xa1;" horiz-adv-x="260" 
d="M142 358c-34 0 -53 21 -53 55c0 36 22 59 56 59c35 0 55 -21 55 -56s-23 -58 -58 -58zM73 -184l28 424l59 8l11 -12l3 -416l-9 -12l-80 -5z" />
    <glyph glyph-name="cent" unicode="&#xa2;" horiz-adv-x="383" 
d="M366 130l-8 -61c-34 -19 -78 -32 -122 -34l-12 -156h-50l-8 9l11 153c-90 21 -143 104 -143 225c0 140 67 229 178 241l10 146h50l9 -9l-10 -137c34 -4 69 -16 94 -31l-15 -65l-10 -2c-21 13 -47 24 -73 29l-26 -335h3c37 0 78 12 113 32zM114 274c0 -77 25 -131 68 -156
l24 318c-58 -16 -92 -75 -92 -162z" />
    <glyph glyph-name="sterling" unicode="&#xa3;" horiz-adv-x="428" 
d="M399 71l-7 -73l-110 2h-256l-5 6l6 54c48 11 72 44 72 104v119h-73l-4 6l5 50h71v84c-1 110 64 171 179 171c35 0 70 -6 111 -17l-6 -75l-6 -6c-40 23 -75 33 -106 33c-56 0 -86 -31 -86 -92v-98h127l4 -6l-5 -50h-127v-111c0 -47 -13 -76 -40 -98v-3h156l96 7z" />
    <glyph glyph-name="fraction" unicode="&#x2044;" horiz-adv-x="88" 
d="M279 655l6 -15l-468 -731l-45 26l-5 13l469 733z" />
    <glyph glyph-name="yen" unicode="&#xa5;" horiz-adv-x="500" 
d="M477 165l4 -5l-3 -43h-189l2 -117h-85l3 117h-181l-4 5l3 43h183v3l-45 83h-137l-4 6l3 43h112l-106 200h91l11 -31l113 -206h7l122 203l15 34h89l-116 -200h112l5 -5l-4 -44h-142l-47 -81v-5h188z" />
    <glyph glyph-name="florin" unicode="&#x192;" horiz-adv-x="293" 
d="M311 618c25 0 47 -3 76 -9l-15 -67l-7 -4c-27 11 -50 15 -67 15c-56 0 -82 -31 -90 -84l-12 -91h107l3 -6l-5 -50h-112l-20 -137l-16 -135c-10 -92 -42 -141 -128 -200l-41 40l1 8c56 46 77 81 86 150l16 129l17 145h-65l-5 6l6 50h71l10 78c13 104 82 162 190 162z" />
    <glyph glyph-name="section" unicode="&#xa7;" horiz-adv-x="425" 
d="M297 140c29 -25 50 -56 50 -97c0 -77 -72 -143 -176 -143c-42 0 -99 12 -140 31l13 84l10 7c40 -36 87 -56 128 -56c50 0 78 31 78 61c0 81 -222 107 -222 246c0 56 37 108 94 138c-29 25 -49 55 -49 95c0 77 73 143 173 143c34 0 79 -8 116 -23l-13 -82l-13 -3
c-39 27 -76 40 -105 40c-44 0 -72 -31 -72 -60c0 -80 222 -105 222 -244c0 -56 -35 -108 -94 -137zM124 294c0 -48 60 -78 118 -114c47 21 63 48 63 74c0 50 -59 80 -116 116c-44 -21 -65 -47 -65 -76z" />
    <glyph glyph-name="currency" unicode="&#xa4;" horiz-adv-x="435" 
d="M410 506v-10l-68 -63c16 -23 25 -49 25 -79c0 -27 -9 -53 -24 -75l69 -61l1 -10l-44 -47l-10 1l-62 68c-22 -16 -51 -26 -80 -26c-27 0 -54 9 -75 24l-61 -68h-10l-47 44l1 10l68 61c-16 22 -26 51 -26 79c0 29 9 55 24 77l-68 61v10l43 46l10 -1l63 -68
c22 16 50 25 78 25s54 -9 75 -23l62 68l10 1zM217 447c-52 0 -92 -40 -92 -93s40 -92 92 -92c54 0 93 39 93 92s-39 93 -93 93z" />
    <glyph glyph-name="quotesingle" unicode="'" horiz-adv-x="182" 
d="M141 632l-28 -198l-50 -7l-8 7l1 200l78 6z" />
    <glyph glyph-name="quotedblleft" unicode="&#x201c;" horiz-adv-x="321" 
d="M83 417c-38 17 -55 43 -55 82c0 46 26 94 81 147l37 -25l1 -8c-28 -30 -41 -59 -41 -84c0 -28 11 -48 39 -62v-9c-17 -15 -39 -30 -62 -41zM229 417c-38 17 -55 43 -55 82c0 46 26 94 81 147l37 -25l1 -8c-28 -30 -41 -59 -41 -84c0 -28 11 -48 39 -62v-9
c-17 -15 -39 -30 -62 -41z" />
    <glyph glyph-name="guilsinglleft" unicode="&#x2039;" horiz-adv-x="235" 
d="M22 216v18l141 176l49 -27l1 -11l-115 -145l115 -146l-1 -11l-49 -26z" />
    <glyph glyph-name="guilsinglright" unicode="&#x203a;" horiz-adv-x="240" 
d="M217 239v-19l-141 -175l-48 27l-2 11l116 145l-116 145l2 11l48 27z" />
    <glyph glyph-name="endash" unicode="&#x2013;" horiz-adv-x="473" 
d="M488 284l-5 -63h-491l-7 8l6 63h490z" />
    <glyph glyph-name="dagger" unicode="&#x2020;" horiz-adv-x="490" 
d="M444 337h-165v-49v-378l-64 -4l-7 8v423h-160l-7 8l6 62h161v178l66 5l6 -5l-1 -178h163l8 -7z" />
    <glyph glyph-name="daggerdbl" unicode="&#x2021;" horiz-adv-x="490" 
d="M442 147l8 -7l-6 -63h-165v-167l-64 -4l-7 8v163h-160l-7 8l6 62h161v198h-160l-7 8l6 61h161v171l66 5l6 -5l-1 -171h163l8 -7l-6 -62h-165v-57v-141h163z" />
    <glyph glyph-name="periodcentered" unicode="&#xb7;" horiz-adv-x="229" 
d="M116 305c34 0 53 -21 53 -54c0 -36 -22 -59 -56 -59c-35 0 -55 20 -55 55s22 58 58 58z" />
    <glyph glyph-name="paragraph" unicode="&#xb6;" horiz-adv-x="500" 
d="M478 633l-8 -70h-71l-3 -375l1 -56c0 -93 -46 -156 -174 -213l-28 47v11c75 43 106 87 106 150v47l-3 390h-53c-67 -8 -105 -54 -105 -129c0 -74 42 -130 118 -157l-35 -56c-121 26 -190 100 -190 216c0 130 82 204 229 204h208z" />
    <glyph glyph-name="bullet" unicode="&#x2022;" horiz-adv-x="264" 
d="M134 307c39 0 62 -24 62 -63c0 -43 -26 -70 -67 -70c-40 0 -63 24 -63 65s26 68 68 68z" />
    <glyph glyph-name="quotesinglbase" unicode="&#x201a;" horiz-adv-x="229" 
d="M130 106c28 -20 43 -45 43 -75c0 -50 -35 -99 -106 -150l-34 30v8c36 30 55 60 55 92c0 21 -11 38 -31 53v9c22 14 46 26 73 33z" />
    <glyph glyph-name="quotedblbase" unicode="&#x201e;" horiz-adv-x="374" 
d="M130 106c28 -20 43 -45 43 -75c0 -50 -35 -99 -106 -150l-34 30v8c36 30 55 60 55 92c0 21 -11 38 -31 53v9c22 14 46 26 73 33zM274 106c28 -20 43 -45 43 -75c0 -50 -34 -99 -105 -150l-34 30v8c36 30 55 60 55 92c0 21 -11 38 -31 53v9c22 14 46 26 72 33z" />
    <glyph glyph-name="quotedblright" unicode="&#x201d;" horiz-adv-x="324" 
d="M95 645c38 -17 55 -43 55 -82c0 -46 -26 -94 -81 -147l-37 25l-1 8c29 30 42 59 42 84c0 28 -11 48 -40 62v9c18 15 39 30 62 41zM237 645c38 -17 55 -43 55 -82c0 -46 -26 -94 -81 -147l-37 25l-1 8c28 30 41 59 41 84c0 28 -11 48 -39 62v9c17 15 39 30 62 41z" />
    <glyph glyph-name="ellipsis" unicode="&#x2026;" horiz-adv-x="602" 
d="M112 108c34 0 53 -21 53 -55c0 -36 -22 -59 -57 -59c-34 0 -54 21 -54 56s22 58 58 58zM299 108c33 0 53 -21 53 -55c0 -36 -22 -59 -57 -59s-54 21 -54 56s22 58 58 58zM485 108c33 0 53 -21 53 -55c0 -36 -22 -59 -57 -59s-54 21 -54 56s22 58 58 58z" />
    <glyph glyph-name="perthousand" unicode="&#x2030;" horiz-adv-x="1211" 
d="M653 655l7 -15l-469 -731l-45 26l-5 13l469 733zM193 648c93 0 144 -62 144 -173c0 -121 -54 -185 -155 -185c-94 0 -146 62 -146 173c0 120 56 185 157 185zM186 577c-55 0 -82 -35 -82 -107c0 -77 27 -114 83 -114s83 37 83 109c0 75 -28 112 -84 112zM655 353
c93 0 144 -62 144 -173c0 -120 -54 -185 -155 -185c-94 0 -146 62 -146 174c0 119 56 184 157 184zM1029 353c94 0 145 -62 145 -173c0 -120 -55 -185 -156 -185c-94 0 -145 62 -145 174c0 119 55 184 156 184zM648 282c-55 0 -81 -35 -81 -107c0 -77 26 -114 82 -114
s83 37 83 109c0 76 -28 112 -84 112zM1022 282c-55 0 -81 -35 -81 -107c0 -77 26 -114 82 -114c57 0 83 37 83 109c0 76 -27 112 -84 112z" />
    <glyph glyph-name="questiondown" unicode="&#xbf;" horiz-adv-x="335" 
d="M188 358c-34 0 -54 21 -54 55c0 36 22 59 57 59s54 -21 54 -56s-22 -58 -57 -58zM265 -193l-11 -5c-166 9 -260 66 -260 159c0 53 31 101 87 135l78 50l2 4l-6 92l72 9l8 -8l8 -117l-5 -10l-93 -52c-38 -22 -59 -52 -59 -87c0 -60 58 -95 191 -103l7 -10z" />
    <glyph glyph-name="grave" unicode="`" 
d="M123 707l10 1c58 -55 112 -100 171 -148l-26 -40l-10 -1c-60 39 -118 78 -181 124l-2 10z" />
    <glyph glyph-name="acute" unicode="&#xb4;" 
d="M267 707l38 -54l-2 -10c-63 -46 -121 -85 -181 -124l-10 1l-26 40c59 48 113 93 171 148z" />
    <glyph glyph-name="circumflex" unicode="&#x2c6;" 
d="M79 524l-27 40c41 39 84 85 130 137h25c42 -48 85 -95 130 -137l-27 -40h-10c-40 35 -75 67 -105 99c-31 -32 -66 -64 -105 -99h-11z" />
    <glyph glyph-name="tilde" unicode="&#x2dc;" 
d="M359 650v-9l-65 -77l-10 -5c-44 6 -129 37 -155 37c-18 0 -34 -23 -59 -49h-10l-31 32v9l65 77l11 4c44 -6 130 -36 155 -36c17 0 34 22 59 49h10z" />
    <glyph glyph-name="macron" unicode="&#xaf;" 
d="M342 638l-5 -59h-282l-7 8l5 58h282z" />
    <glyph glyph-name="breve" unicode="&#x2d8;" 
d="M306 683l25 -36c-17 -70 -61 -119 -139 -119c-77 0 -118 51 -134 119l26 36h15c14 -55 48 -83 96 -83c49 0 82 28 96 83h15z" />
    <glyph glyph-name="dotaccent" unicode="&#x2d9;" horiz-adv-x="249" 
d="M126 675c34 0 53 -20 53 -54c0 -36 -22 -59 -56 -59c-35 0 -55 21 -55 55c0 35 22 58 58 58z" />
    <glyph glyph-name="dieresis" unicode="&#xa8;" 
d="M115 665c32 0 50 -19 50 -51c0 -34 -20 -55 -53 -55s-51 19 -51 52s21 54 54 54zM279 665c32 0 50 -19 50 -51c0 -34 -20 -55 -53 -55s-51 19 -51 52s21 54 54 54z" />
    <glyph glyph-name="ring" unicode="&#x2da;" 
d="M195 708c58 0 88 -35 88 -85c0 -58 -38 -90 -91 -90c-52 0 -87 31 -87 87c0 55 33 88 90 88zM193 662c-28 0 -42 -15 -42 -40c0 -30 16 -44 43 -44c26 0 43 13 43 42c0 25 -14 42 -44 42z" />
    <glyph glyph-name="cedilla" unicode="&#xb8;" 
d="M204 -50l34 -20c30 -16 40 -34 40 -57c0 -41 -35 -70 -87 -70c-34 0 -59 14 -77 30l9 47l5 2c18 -19 35 -31 57 -31c17 0 29 9 29 25c0 11 -8 17 -19 22l-49 29l24 95h54z" />
    <glyph glyph-name="hungarumlaut" unicode="&#x2dd;" 
d="M60 519l-32 29c45 52 88 106 130 161l9 1l47 -34v-9c-47 -50 -95 -98 -144 -146zM206 519l-32 29c46 52 89 106 131 161l8 1l47 -34l1 -9c-47 -50 -96 -98 -145 -146z" />
    <glyph glyph-name="ogonek" unicode="&#x2db;" 
d="M249 54l-66 -101c-11 -17 -17 -33 -17 -48c0 -22 13 -39 39 -39c21 0 45 13 67 35h6l11 -47c-35 -34 -65 -51 -100 -51c-52 0 -85 35 -85 83c0 25 9 51 27 78l63 90h55z" />
    <glyph glyph-name="caron" unicode="&#x2c7;" 
d="M310 700l27 -40c-41 -39 -85 -86 -130 -137h-26c-41 47 -85 95 -129 137l27 40h10c40 -35 75 -67 105 -100c31 33 66 65 105 100h11z" />
    <glyph glyph-name="emdash" unicode="&#x2014;" horiz-adv-x="912" 
d="M930 284l-6 -63h-934l-6 8l5 63h933z" />
    <glyph glyph-name="AE" unicode="&#xc6;" horiz-adv-x="814" 
d="M801 79l-8 -79h-365l-5 72l-24 172l-227 -56l-57 -111l-27 -77h-105l326 642h402l6 -9l-8 -79l-160 5h-92l29 -213l206 47l8 -7l7 -73l-211 -46l25 -185h109l164 6zM388 323l-30 218h-7l-131 -258z" />
    <glyph glyph-name="ordfeminine" unicode="&#xaa;" horiz-adv-x="328" 
d="M170 650c69 0 108 -32 108 -88c0 -20 -6 -130 -6 -146c0 -17 4 -24 15 -24c5 0 11 1 17 5l6 -5l-8 -47c-14 -10 -28 -15 -46 -15c-31 0 -45 13 -53 48h-3c-21 -25 -47 -43 -73 -49c-60 1 -97 35 -97 92c0 44 23 69 68 77l100 18l1 30c0 30 -14 44 -44 44
c-25 0 -55 -12 -93 -36l-6 3l-10 56c37 23 82 37 124 37zM198 476l-63 -14c-17 -3 -27 -14 -27 -33c0 -25 13 -40 37 -40c16 0 35 10 52 30z" />
    <glyph glyph-name="Lslash" unicode="&#x141;" horiz-adv-x="437" 
d="M436 77l-8 -77h-330l7 193l-1 79l-68 -36l-11 6l-19 61l97 50l-5 289h105l-3 -238l119 62l11 -5l19 -61l-150 -78l-1 -120l2 -116h229z" />
    <glyph glyph-name="Oslash" unicode="&#xd8;" horiz-adv-x="639" 
d="M534 695l-42 -90c73 -51 113 -143 113 -271c0 -219 -106 -343 -295 -343c-37 0 -71 5 -101 15l-54 -115l-59 24l-5 9l54 115c-72 53 -111 147 -111 276c0 215 106 335 295 335c35 0 68 -5 97 -13l43 92l58 -23zM140 328c0 -92 16 -157 48 -198l199 425
c-20 7 -42 10 -68 10c-122 0 -179 -74 -179 -237zM318 74c120 0 180 75 180 241c0 93 -16 158 -50 198l-201 -427c20 -8 44 -12 71 -12z" />
    <glyph glyph-name="OE" unicode="&#x152;" horiz-adv-x="858" 
d="M354 654c65 0 118 -12 175 -12h302l7 -9l-8 -79l-146 4h-129l-2 -188l111 -2l112 3l6 -8l-8 -79l-117 3l-106 -2v-87l1 -114l120 -1l158 5l7 -9l-8 -79h-300c-60 1 -127 -12 -193 -12c-192 0 -302 121 -302 328c0 214 117 338 320 338zM345 569
c-138 0 -205 -80 -205 -247c0 -169 65 -251 206 -251c36 0 74 5 89 10c16 7 23 17 23 39l-4 396c-1 25 -5 35 -14 40c-13 7 -53 13 -95 13z" />
    <glyph glyph-name="ordmasculine" unicode="&#xba;" horiz-adv-x="342" 
d="M176 650c91 0 139 -55 139 -156c0 -107 -52 -166 -148 -166c-90 0 -139 55 -139 156c0 108 52 166 148 166zM172 590c-44 0 -63 -28 -63 -97c0 -76 20 -107 63 -107s64 28 64 98c0 76 -21 106 -64 106z" />
    <glyph glyph-name="ae" unicode="&#xe6;" horiz-adv-x="704" 
d="M683 73l-7 -73h-308l-4 60l-17 118l-198 -48l-36 -65l-22 -65h-92l270 501h340l6 -8l-8 -71l-132 6h-76l23 -157l171 39l7 -5l6 -72l-173 -35l18 -123h89l137 5zM336 250l-24 163h-7l-108 -195z" />
    <glyph glyph-name="dotlessi" unicode="&#x131;" horiz-adv-x="267" 
d="M175 159l4 -159h-96l4 150l-4 351h97z" />
    <glyph glyph-name="lslash" unicode="&#x142;" horiz-adv-x="401" 
d="M380 72l-6 -72h-278l4 150l-1 57l-58 -27l-10 6l-15 55l83 38l-3 222h97l-3 -181l94 43l8 -4l17 -56l-120 -55l-1 -89l2 -79h185z" />
    <glyph glyph-name="oslash" unicode="&#xf8;" horiz-adv-x="558" 
d="M468 539l-37 -71c57 -41 88 -111 88 -206c0 -173 -90 -270 -248 -270c-30 0 -57 4 -81 11l-56 -107l-54 27l-3 10l52 99c-58 42 -89 115 -89 213c0 168 89 263 248 263c31 0 59 -4 84 -12l41 79l50 -26zM140 257c0 -66 10 -112 32 -142l161 307c-16 5 -34 7 -54 7
c-95 0 -139 -49 -139 -172zM278 70c96 0 141 49 141 173c0 65 -10 111 -32 141l-159 -308c14 -4 31 -6 50 -6z" />
    <glyph glyph-name="oe" unicode="&#x153;" horiz-adv-x="741" 
d="M306 510c56 0 102 -9 148 -9h254l6 -8l-7 -73l-123 5h-105v-131l90 -1l92 3l5 -8l-6 -74l-97 3l-86 -1v-140h97l132 4l6 -7l-8 -73h-250c-50 0 -107 -9 -163 -9c-160 0 -251 93 -251 254c0 168 98 265 266 265zM298 428c-108 0 -158 -52 -158 -175
c0 -128 49 -185 159 -185c31 0 61 5 72 11c13 5 16 13 16 31l-3 274c0 21 -2 29 -10 33c-11 5 -41 11 -76 11z" />
    <glyph glyph-name="germandbls" unicode="&#xdf;" horiz-adv-x="570" 
d="M291 507c69 0 128 -17 205 -51l4 -14l-123 -148c112 -45 161 -84 161 -158c0 -95 -80 -143 -175 -143c-48 0 -103 12 -145 33l11 93l9 5c38 -34 85 -53 119 -53c46 0 77 28 77 66c0 48 -56 75 -172 110l-3 15l119 142c-34 18 -63 26 -96 26c-77 0 -120 -37 -120 -106
l-2 -165l4 -159h-97l4 147l-1 177c0 110 79 183 221 183z" />
    <glyph glyph-name="onesuperior" unicode="&#xb9;" horiz-adv-x="265" 
d="M182 697l-3 -241l3 -136h-87l2 126v166l-78 -20l-7 4v68l158 43z" />
    <glyph glyph-name="logicalnot" unicode="&#xac;" horiz-adv-x="480" 
d="M427 291v-235l-62 -5l-8 7v170h-324l-7 7l6 63h389z" />
    <glyph glyph-name="mu" unicode="&#x3bc;" horiz-adv-x="515" 
d="M495 71l-11 -56c-18 -13 -41 -21 -64 -21c-40 0 -63 19 -75 66h-8c-37 -34 -75 -56 -119 -66c-21 0 -40 3 -56 10v-189h-96l4 378l-4 261l96 9v-311c1 -46 27 -74 71 -74c37 0 72 18 107 51v325l97 9l-7 -351c-1 -30 8 -44 26 -44c9 0 20 3 31 10z" />
    <glyph glyph-name="trademark" unicode="&#x2122;" horiz-adv-x="585" 
d="M211 641l4 -5l-4 -39l-47 2h-17l-2 -119l2 -75h-53l3 70l-2 124h-17l-49 -2l-3 5l3 39h182zM533 405h-48l-4 71l-9 85h-4l-57 -132h-42l-52 132h-3l-10 -79l-6 -77h-46l26 236h63l11 -35l39 -107h3l43 106l12 36h61z" />
    <glyph glyph-name="Eth" unicode="&#xd0;" horiz-adv-x="673" 
d="M110 642l243 4c184 0 286 -107 286 -302c0 -226 -112 -350 -313 -350c-43 0 -156 3 -216 6l6 193l-1 94h-97l-5 8l4 63h97zM343 76c120 0 189 78 189 245c0 166 -62 241 -187 241c-21 0 -93 -2 -131 -4l-3 -200h134l5 -8l-4 -63h-136l-1 -85l3 -119c45 -4 110 -7 131 -7z
" />
    <glyph glyph-name="onehalf" unicode="&#xbd;" horiz-adv-x="740" 
d="M568 655l6 -15l-468 -731l-45 26l-5 13l469 733zM182 639l-3 -241l3 -136h-87l2 126v166l-78 -20l-7 4v68l158 43zM566 386c63 0 112 -33 112 -90c0 -40 -26 -82 -83 -152l-59 -75l2 -2h108l66 3l3 -6l-9 -67l-86 3h-166l-27 -1l-4 3v51l96 109c44 52 72 86 72 115
c0 22 -15 39 -46 39s-68 -18 -96 -49h-10l-14 65c44 33 91 54 141 54z" />
    <glyph glyph-name="plusminus" unicode="&#xb1;" horiz-adv-x="480" 
d="M276 468v-170h169l8 -7l-6 -63h-171v-172l-63 -5l-8 7v170h-170l-7 7l6 63h171v172l63 6zM452 -39l-5 -63h-412l-7 7l5 63h412z" />
    <glyph glyph-name="Thorn" unicode="&#xde;" horiz-adv-x="540" 
d="M191 535l116 1c130 0 203 -66 203 -193c0 -146 -89 -230 -250 -230l-71 -2l2 -111h-104l5 193l-4 342l-1 107h105zM187 195l101 -3c73 15 114 60 114 144c0 80 -42 116 -124 120l-88 -3l-3 -251v-7z" />
    <glyph glyph-name="onequarter" unicode="&#xbc;" horiz-adv-x="721" 
d="M574 640l-468 -731l-45 26l-5 13l469 733l43 -26zM97 554l-78 -20l-7 4v68l158 43l12 -10l-3 -241l3 -136h-87l2 126v166zM685 92l-55 2l4 -88l-5 -6l-68 -3l-5 4l2 94h-108l-57 -3l-6 8v53l163 229h80l-2 -224h56l5 -7zM462 158h97v130h-6z" />
    <glyph glyph-name="divide" unicode="&#xf7;" horiz-adv-x="480" 
d="M259 490c31 0 49 -19 49 -50c0 -33 -20 -54 -52 -54s-50 19 -50 51s20 53 53 53zM461 291l-6 -63h-412l-7 7l6 63h411zM259 145c31 0 49 -19 49 -50c0 -33 -20 -54 -52 -54s-50 18 -50 50s20 54 53 54z" />
    <glyph glyph-name="brokenbar" unicode="&#xa6;" horiz-adv-x="311" 
d="M195 793l-1 -419l-70 -8l-8 7v421l72 6zM194 150v-406l-70 -5l-8 10v403l69 8z" />
    <glyph glyph-name="degree" unicode="&#xb0;" horiz-adv-x="293" 
d="M147 650c71 0 127 -56 127 -127s-56 -126 -127 -126c-72 0 -128 55 -128 126s56 127 128 127zM146 603c-44 0 -81 -36 -81 -80s37 -80 81 -80c45 0 81 36 81 80s-36 80 -81 80z" />
    <glyph glyph-name="thorn" unicode="&#xfe;" horiz-adv-x="483" 
d="M180 421l96 1c110 0 171 -53 171 -153c0 -116 -76 -183 -213 -183h-56l2 -86h-97l4 150l-4 351h98zM176 161l82 -3c56 13 87 43 87 102c0 61 -33 87 -99 90l-67 -2z" />
    <glyph glyph-name="threequarters" unicode="&#xbe;" horiz-adv-x="759" 
d="M612 640l-468 -731l-45 26l-5 13l469 733l43 -26zM274 374c0 -70 -67 -117 -166 -117c-22 0 -50 3 -72 8l-5 60l6 6c26 -7 50 -10 72 -10c51 0 81 20 81 55c0 30 -21 48 -61 49h-47l-4 5l1 57h30c32 1 65 24 65 56c0 25 -17 39 -47 39c-25 0 -49 -10 -78 -29h-9l-14 57
c37 26 79 39 120 39c69 0 115 -35 115 -90c0 -31 -16 -69 -61 -91v-4c49 -13 74 -44 74 -90zM723 92l-55 2l4 -88l-5 -6l-68 -3l-5 4l2 94h-108l-57 -3l-6 8v53l163 229h80l-2 -224h56l5 -7zM500 158h97v130h-6z" />
    <glyph glyph-name="twosuperior" unicode="&#xb2;" horiz-adv-x="354" 
d="M180 706c63 0 112 -33 112 -90c0 -40 -26 -82 -83 -152l-59 -75l2 -2h108l66 3l3 -6l-9 -67l-86 3h-166l-27 -1l-4 3v51l96 109c44 52 72 86 72 115c0 22 -15 39 -46 39s-68 -18 -96 -49h-10l-14 65c44 33 91 54 141 54z" />
    <glyph glyph-name="registered" unicode="&#xae;" horiz-adv-x="442" 
d="M221 702c111 0 184 -73 184 -183s-73 -184 -184 -184c-110 0 -183 74 -183 184s73 183 183 183zM222 364c92 0 154 62 154 155s-62 154 -154 154c-93 0 -154 -61 -154 -154s61 -155 154 -155zM297 564c0 -24 -14 -46 -38 -59c15 -23 32 -46 51 -68l-1 -4
c-11 -5 -26 -7 -40 -8l-5 3c-15 22 -28 44 -40 67h-32v-4l2 -63h-41l1 58l-1 137h78c42 0 66 -21 66 -59zM193 528l34 -2c18 7 28 16 28 35c0 20 -13 30 -38 31l-23 -1z" />
    <glyph glyph-name="minus" unicode="&#x2212;" horiz-adv-x="480" 
d="M452 291l-5 -63h-412l-7 7l5 63h412z" />
    <glyph glyph-name="eth" unicode="&#xf0;" horiz-adv-x="589" 
d="M102 501l206 4c154 0 239 -85 239 -236c0 -177 -94 -274 -263 -274c-39 0 -130 2 -182 5l4 150l-1 65h-82l-6 7l4 58h84zM300 70c93 0 148 55 148 177c0 125 -49 178 -147 178c-17 0 -72 -1 -103 -4l-2 -141h118l5 -8l-4 -57h-120l-1 -56l2 -82c32 -3 86 -7 104 -7z" />
    <glyph glyph-name="multiply" unicode="&#xd7;" horiz-adv-x="480" 
d="M410 394v-11l-120 -120l120 -120v-10l-48 -41l-122 121l-122 -122l-48 42v9l121 121l-121 120v11l48 40l122 -121l122 121z" />
    <glyph glyph-name="threesuperior" unicode="&#xb3;" horiz-adv-x="313" 
d="M146 707c69 0 115 -35 115 -90c0 -31 -16 -69 -61 -91v-4c49 -13 74 -44 74 -90c0 -70 -67 -117 -166 -117c-22 0 -50 3 -72 8l-5 60l6 6c26 -7 50 -10 72 -10c51 0 81 20 81 55c0 30 -21 48 -61 49h-47l-4 5l1 57h30c32 1 65 24 65 56c0 25 -17 39 -47 39
c-25 0 -49 -10 -78 -29h-9l-14 57c37 26 79 39 120 39z" />
    <glyph glyph-name="copyright" unicode="&#xa9;" horiz-adv-x="686" 
d="M342 598c179 0 298 -122 298 -305s-119 -305 -298 -305c-178 0 -297 122 -297 305s119 305 297 305zM342 559c-155 0 -258 -106 -258 -266s103 -266 258 -266s259 106 259 266s-104 266 -259 266zM360 465c33 0 64 -8 92 -20l-13 -56l-6 -3c-21 13 -50 21 -75 21
c-61 0 -92 -34 -92 -107c0 -77 31 -116 93 -116c26 0 57 8 80 20l7 -3l-6 -56c-27 -12 -58 -19 -86 -19c-106 0 -160 60 -160 168c0 109 59 171 166 171z" />
    <glyph glyph-name="Aacute" unicode="&#xc1;" horiz-adv-x="587" 
d="M220 723l-17 44c66 34 130 67 198 107l10 -2l27 -61l-4 -10c-71 -31 -136 -56 -203 -82zM567 0h-105l-15 72l-28 89l-136 3l-124 -3l-29 -84l-16 -77h-103l228 642h122zM393 245l-92 296h-8l-104 -296l102 -2z" />
    <glyph glyph-name="Acircumflex" unicode="&#xc2;" horiz-adv-x="587" 
d="M179 731l-20 43c45 30 86 62 124 96h24c38 -34 80 -66 124 -96l-19 -43h-11c-36 22 -71 43 -106 66c-34 -23 -69 -44 -105 -66h-11zM567 0h-105l-15 72l-28 89l-136 3l-124 -3l-29 -84l-16 -77h-103l228 642h122zM393 245l-92 296h-8l-104 -296l102 -2z" />
    <glyph glyph-name="Adieresis" unicode="&#xc4;" horiz-adv-x="587" 
d="M212 740c-33 0 -51 19 -51 52s21 54 54 54c32 0 50 -19 50 -51c0 -34 -20 -55 -53 -55zM376 740c-33 0 -51 19 -51 52s21 54 54 54c32 0 50 -19 50 -51c0 -34 -20 -55 -53 -55zM567 0h-105l-15 72l-28 89l-136 3l-124 -3l-29 -84l-16 -77h-103l228 642h122zM393 245
l-92 296h-8l-104 -296l102 -2z" />
    <glyph glyph-name="Agrave" unicode="&#xc0;" horiz-adv-x="587" 
d="M396 724l-11 -4c-67 26 -132 51 -203 82l-4 10l27 61l10 2c68 -40 132 -73 198 -107zM567 0h-105l-15 72l-28 89l-136 3l-124 -3l-29 -84l-16 -77h-103l228 642h122zM393 245l-92 296h-8l-104 -296l102 -2z" />
    <glyph glyph-name="Aring" unicode="&#xc5;" horiz-adv-x="587" 
d="M292 714c-52 0 -87 31 -87 87c0 55 33 88 90 88c58 0 88 -35 88 -85c0 -58 -38 -90 -91 -90zM293 843c-28 0 -42 -15 -42 -40c0 -30 16 -44 43 -44c26 0 43 13 43 42c0 25 -14 42 -44 42zM567 0h-105l-15 72l-28 89l-136 3l-124 -3l-29 -84l-16 -77h-103l228 642h122z
M393 245l-92 296h-8l-104 -296l102 -2z" />
    <glyph glyph-name="Atilde" unicode="&#xc3;" horiz-adv-x="587" 
d="M160 728l-31 32v9l65 77l11 4c44 -6 130 -36 155 -36c17 0 34 22 59 49h10l30 -32v-9l-65 -77l-10 -5c-44 6 -129 37 -155 37c-18 0 -34 -23 -59 -49h-10zM567 0h-105l-15 72l-28 89l-136 3l-124 -3l-29 -84l-16 -77h-103l228 642h122zM393 245l-92 296h-8l-104 -296
l102 -2z" />
    <glyph glyph-name="Ccedilla" unicode="&#xc7;" horiz-adv-x="519" 
d="M323 79c56 0 114 20 160 55l10 -6l-8 -94c-49 -24 -96 -38 -149 -41l-12 -43l34 -20c30 -16 40 -34 40 -57c0 -41 -35 -70 -87 -70c-34 0 -59 14 -77 30l9 47l5 2c18 -19 35 -31 57 -31c17 0 29 9 29 25c0 11 -8 17 -19 22l-49 29l17 66c-160 14 -249 128 -249 322
c0 214 107 334 293 334c67 0 125 -16 173 -44l-19 -91l-10 -3c-41 32 -91 52 -148 52c-117 0 -181 -79 -181 -237c0 -163 66 -247 181 -247z" />
    <glyph glyph-name="Eacute" unicode="&#xc9;" horiz-adv-x="493" 
d="M203 723l-17 44c66 34 130 67 198 107l10 -2l27 -61l-4 -10c-71 -31 -136 -56 -203 -82zM466 88l6 -9l-7 -79h-379l7 193l-7 449h381l6 -9l-8 -79l-152 4l-122 -1l-3 -187l116 -2l106 3l7 -8l-8 -79l-113 3l-109 -2l-1 -83l2 -118l123 -1z" />
    <glyph glyph-name="Ecircumflex" unicode="&#xca;" horiz-adv-x="493" 
d="M162 731l-20 43c45 30 86 62 124 96h24c38 -34 80 -66 124 -96l-19 -43h-11c-36 22 -71 43 -106 66c-34 -23 -69 -44 -105 -66h-11zM466 88l6 -9l-7 -79h-379l7 193l-7 449h381l6 -9l-8 -79l-152 4l-122 -1l-3 -187l116 -2l106 3l7 -8l-8 -79l-113 3l-109 -2l-1 -83
l2 -118l123 -1z" />
    <glyph glyph-name="Edieresis" unicode="&#xcb;" horiz-adv-x="493" 
d="M195 740c-33 0 -51 19 -51 52s21 54 54 54c32 0 50 -19 50 -51c0 -34 -20 -55 -53 -55zM359 740c-33 0 -51 19 -51 52s21 54 54 54c32 0 50 -19 50 -51c0 -34 -20 -55 -53 -55zM466 88l6 -9l-7 -79h-379l7 193l-7 449h381l6 -9l-8 -79l-152 4l-122 -1l-3 -187l116 -2
l106 3l7 -8l-8 -79l-113 3l-109 -2l-1 -83l2 -118l123 -1z" />
    <glyph glyph-name="Egrave" unicode="&#xc8;" horiz-adv-x="493" 
d="M379 724l-11 -4c-67 26 -132 51 -203 82l-4 10l27 61l10 2c68 -40 132 -73 198 -107zM466 88l6 -9l-7 -79h-379l7 193l-7 449h381l6 -9l-8 -79l-152 4l-122 -1l-3 -187l116 -2l106 3l7 -8l-8 -79l-113 3l-109 -2l-1 -83l2 -118l123 -1z" />
    <glyph glyph-name="Iacute" unicode="&#xcd;" horiz-adv-x="279" 
d="M255 872l27 -61l-4 -10c-71 -31 -136 -56 -203 -82l-11 4l-17 44c66 34 130 67 198 107zM186 202l4 -202h-104l7 193l-7 449h106z" />
    <glyph glyph-name="Icircumflex" unicode="&#xce;" horiz-adv-x="279" 
d="M23 731l-20 43c45 30 86 62 124 96h24c38 -34 80 -66 124 -96l-19 -43h-11c-36 22 -71 43 -106 66c-34 -23 -69 -44 -105 -66h-11zM186 202l4 -202h-104l7 193l-7 449h106z" />
    <glyph glyph-name="Igrave" unicode="&#xcc;" horiz-adv-x="279" 
d="M49 873l10 2c68 -40 132 -73 198 -107l-17 -44l-11 -4c-67 26 -132 51 -203 82l-4 10zM186 202l4 -202h-104l7 193l-7 449h106z" />
    <glyph glyph-name="Ntilde" unicode="&#xd1;" horiz-adv-x="688" 
d="M506 831v-9l-65 -77l-10 -5c-44 6 -129 37 -155 37c-18 0 -34 -23 -59 -49h-10l-31 32v9l65 77l11 4c44 -6 130 -36 155 -36c17 0 34 22 59 49h10zM595 192l3 -192h-110l-302 481h-7l-1 -266l4 -215h-96l7 190l-5 452h110l302 -481h7l-2 476l97 7z" />
    <glyph glyph-name="Oacute" unicode="&#xd3;" horiz-adv-x="639" 
d="M436 872l27 -61l-4 -10c-71 -31 -136 -56 -203 -82l-11 4l-17 44c66 34 130 67 198 107zM329 650c177 0 276 -114 276 -316c0 -219 -106 -343 -295 -343c-177 0 -276 118 -276 324c0 215 106 335 295 335zM319 565c-122 0 -179 -74 -179 -237c0 -176 57 -254 178 -254
c120 0 180 75 180 241c0 174 -57 250 -179 250z" />
    <glyph glyph-name="Ocircumflex" unicode="&#xd4;" horiz-adv-x="639" 
d="M204 731l-20 43c45 30 86 62 124 96h24c38 -34 80 -66 124 -96l-19 -43h-11c-36 22 -71 43 -106 66c-34 -23 -69 -44 -105 -66h-11zM329 650c177 0 276 -114 276 -316c0 -219 -106 -343 -295 -343c-177 0 -276 118 -276 324c0 215 106 335 295 335zM319 565
c-122 0 -179 -74 -179 -237c0 -176 57 -254 178 -254c120 0 180 75 180 241c0 174 -57 250 -179 250z" />
    <glyph glyph-name="Ograve" unicode="&#xd2;" horiz-adv-x="639" 
d="M230 873l10 2c68 -40 132 -73 198 -107l-17 -44l-11 -4c-67 26 -132 51 -203 82l-4 10zM329 650c177 0 276 -114 276 -316c0 -219 -106 -343 -295 -343c-177 0 -276 118 -276 324c0 215 106 335 295 335zM319 565c-122 0 -179 -74 -179 -237c0 -176 57 -254 178 -254
c120 0 180 75 180 241c0 174 -57 250 -179 250z" />
    <glyph glyph-name="Otilde" unicode="&#xd5;" horiz-adv-x="639" 
d="M484 831v-9l-65 -77l-10 -5c-44 6 -129 37 -155 37c-18 0 -34 -23 -59 -49h-10l-31 32v9l65 77l11 4c44 -6 130 -36 155 -36c17 0 34 22 59 49h10zM329 650c177 0 276 -114 276 -316c0 -219 -106 -343 -295 -343c-177 0 -276 118 -276 324c0 215 106 335 295 335z
M319 565c-122 0 -179 -74 -179 -237c0 -176 57 -254 178 -254c120 0 180 75 180 241c0 174 -57 250 -179 250z" />
    <glyph glyph-name="Scaron" unicode="&#x160;" horiz-adv-x="483" 
d="M369 881l27 -40c-41 -39 -85 -86 -130 -137h-26c-41 47 -85 95 -129 137l27 40h10c40 -35 75 -67 105 -100c31 33 66 65 105 100h11zM275 649c41 0 94 -8 151 -32l-16 -94l-16 -6c-42 31 -90 49 -132 49c-68 0 -106 -46 -106 -90c0 -118 288 -107 288 -294
c0 -104 -89 -190 -226 -190c-58 0 -123 15 -180 43l14 102l12 6c52 -49 118 -70 165 -70c72 0 113 46 113 93c0 125 -288 108 -288 296c0 105 90 187 221 187z" />
    <glyph glyph-name="Uacute" unicode="&#xda;" horiz-adv-x="631" 
d="M434 872l27 -61l-4 -10c-71 -31 -136 -56 -203 -82l-11 4l-17 44c66 34 130 67 198 107zM560 316l-1 -76c2 -157 -89 -248 -252 -248c-155 0 -241 86 -238 240l1 89l-1 321h102l-4 -396c-1 -112 48 -166 147 -166s151 51 150 156l-5 406h104z" />
    <glyph glyph-name="Ucircumflex" unicode="&#xdb;" horiz-adv-x="631" 
d="M202 731l-20 43c45 30 86 62 124 96h24c38 -34 80 -66 124 -96l-19 -43h-11c-36 22 -71 43 -106 66c-34 -23 -69 -44 -105 -66h-11zM560 316l-1 -76c2 -157 -89 -248 -252 -248c-155 0 -241 86 -238 240l1 89l-1 321h102l-4 -396c-1 -112 48 -166 147 -166
s151 51 150 156l-5 406h104z" />
    <glyph glyph-name="Udieresis" unicode="&#xdc;" horiz-adv-x="631" 
d="M238 846c32 0 50 -19 50 -51c0 -34 -20 -55 -53 -55s-51 19 -51 52s21 54 54 54zM402 846c32 0 50 -19 50 -51c0 -34 -20 -55 -53 -55s-51 19 -51 52s21 54 54 54zM560 316l-1 -76c2 -157 -89 -248 -252 -248c-155 0 -241 86 -238 240l1 89l-1 321h102l-4 -396
c-1 -112 48 -166 147 -166s151 51 150 156l-5 406h104z" />
    <glyph glyph-name="Ugrave" unicode="&#xd9;" horiz-adv-x="631" 
d="M228 873l10 2c68 -40 132 -73 198 -107l-17 -44l-11 -4c-67 26 -132 51 -203 82l-4 10zM560 316l-1 -76c2 -157 -89 -248 -252 -248c-155 0 -241 86 -238 240l1 89l-1 321h102l-4 -396c-1 -112 48 -166 147 -166s151 51 150 156l-5 406h104z" />
    <glyph glyph-name="Ydieresis" unicode="&#x178;" horiz-adv-x="541" 
d="M183 740c-33 0 -51 19 -51 52s21 54 54 54c32 0 50 -19 50 -51c0 -34 -20 -55 -53 -55zM347 740c-33 0 -51 19 -51 52s21 54 54 54c32 0 50 -19 50 -51c0 -34 -20 -55 -53 -55zM310 184l4 -184h-104l7 184l-1 40l-205 418h110l13 -40l128 -269h8l140 267l16 42h109
l-224 -417z" />
    <glyph glyph-name="Zcaron" unicode="&#x17d;" horiz-adv-x="536" 
d="M389 860l20 -43c-45 -30 -86 -62 -124 -96h-24c-38 34 -80 66 -124 96l19 43h11c36 -22 71 -43 106 -66c34 23 69 44 105 66h11zM497 567l-343 -486h244l102 8l4 -6l-8 -85l-130 2h-270l-65 -3v75l344 488h-227l-103 -8l-5 6l8 85l394 -1l55 1v-76z" />
    <glyph glyph-name="aacute" unicode="&#xe1;" horiz-adv-x="519" 
d="M208 560l-26 40c59 48 113 93 171 148l10 -1l38 -54l-2 -10c-63 -46 -121 -85 -181 -124zM489 0h-98l-12 62l-18 55l-113 1l-99 -1l-19 -50l-15 -67h-94l186 501h112zM336 192l-72 219h-6l-81 -219l78 -1z" />
    <glyph glyph-name="acircumflex" unicode="&#xe2;" horiz-adv-x="519" 
d="M150 564l-27 40c41 39 85 86 130 137h26c41 -47 85 -95 129 -137l-27 -40h-10c-40 35 -75 67 -105 100c-31 -33 -66 -65 -105 -100h-11zM489 0h-98l-12 62l-18 55l-113 1l-99 -1l-19 -50l-15 -67h-94l186 501h112zM336 192l-72 219h-6l-81 -219l78 -1z" />
    <glyph glyph-name="adieresis" unicode="&#xe4;" horiz-adv-x="519" 
d="M182 599c-33 0 -51 19 -51 52s21 54 54 54c32 0 50 -19 50 -51c0 -34 -20 -55 -53 -55zM346 599c-33 0 -51 19 -51 52s21 54 54 54c32 0 50 -19 50 -51c0 -34 -20 -55 -53 -55zM489 0h-98l-12 62l-18 55l-113 1l-99 -1l-19 -50l-15 -67h-94l186 501h112zM336 192l-72 219
h-6l-81 -219l78 -1z" />
    <glyph glyph-name="agrave" unicode="&#xe0;" horiz-adv-x="519" 
d="M348 560l-10 -1c-60 39 -118 78 -181 124l-2 10l38 54l10 1c58 -55 112 -100 171 -148zM489 0h-98l-12 62l-18 55l-113 1l-99 -1l-19 -50l-15 -67h-94l186 501h112zM336 192l-72 219h-6l-81 -219l78 -1z" />
    <glyph glyph-name="aring" unicode="&#xe5;" horiz-adv-x="519" 
d="M262 573c-52 0 -87 31 -87 87c0 55 33 88 90 88c58 0 88 -35 88 -85c0 -58 -38 -90 -91 -90zM263 702c-28 0 -42 -15 -42 -40c0 -30 16 -44 43 -44c26 0 43 13 43 42c0 25 -14 42 -44 42zM489 0h-98l-12 62l-18 55l-113 1l-99 -1l-19 -50l-15 -67h-94l186 501h112z
M336 192l-72 219h-6l-81 -219l78 -1z" />
    <glyph glyph-name="atilde" unicode="&#xe3;" horiz-adv-x="519" 
d="M130 587l-31 32v9l65 77l11 4c44 -6 130 -36 155 -36c17 0 34 22 59 49h10l30 -32v-9l-65 -77l-10 -5c-44 6 -129 37 -155 37c-18 0 -34 -23 -59 -49h-10zM489 0h-98l-12 62l-18 55l-113 1l-99 -1l-19 -50l-15 -67h-94l186 501h112zM336 192l-72 219h-6l-81 -219l78 -1z
" />
    <glyph glyph-name="ccedilla" unicode="&#xe7;" horiz-adv-x="458" 
d="M282 73c46 0 95 16 131 41l10 -5l-8 -85c-38 -18 -77 -29 -122 -31l-12 -43l34 -20c30 -16 40 -34 40 -57c0 -41 -35 -70 -87 -70c-34 0 -59 14 -77 30l9 47l5 2c18 -19 35 -31 57 -31c17 0 29 9 29 25c0 11 -8 17 -19 22l-49 29l17 68c-129 14 -200 103 -200 252
c0 167 90 260 248 260c54 0 103 -11 143 -32l-18 -85l-9 -3c-32 25 -77 41 -125 41c-89 0 -138 -55 -138 -172c0 -120 49 -183 141 -183z" />
    <glyph glyph-name="eacute" unicode="&#xe9;" horiz-adv-x="444" 
d="M188 560l-26 40c59 48 113 93 171 148l10 -1l38 -54l-2 -10c-63 -46 -121 -85 -181 -124zM406 80l6 -7l-7 -73h-322l4 150l-4 351h324l6 -8l-7 -73l-127 5l-100 -1l-2 -130l96 -1l87 3l6 -8l-7 -74l-94 3l-89 -1l-1 -57l2 -82l94 -1z" />
    <glyph glyph-name="ecircumflex" unicode="&#xea;" horiz-adv-x="444" 
d="M130 564l-27 40c41 39 85 86 130 137h26c41 -47 85 -95 129 -137l-27 -40h-10c-40 35 -75 67 -105 100c-31 -33 -66 -65 -105 -100h-11zM406 80l6 -7l-7 -73h-322l4 150l-4 351h324l6 -8l-7 -73l-127 5l-100 -1l-2 -130l96 -1l87 3l6 -8l-7 -74l-94 3l-89 -1l-1 -57
l2 -82l94 -1z" />
    <glyph glyph-name="edieresis" unicode="&#xeb;" horiz-adv-x="444" 
d="M162 599c-33 0 -51 19 -51 52s21 54 54 54c32 0 50 -19 50 -51c0 -34 -20 -55 -53 -55zM326 599c-33 0 -51 19 -51 52s21 54 54 54c32 0 50 -19 50 -51c0 -34 -20 -55 -53 -55zM406 80l6 -7l-7 -73h-322l4 150l-4 351h324l6 -8l-7 -73l-127 5l-100 -1l-2 -130l96 -1l87 3
l6 -8l-7 -74l-94 3l-89 -1l-1 -57l2 -82l94 -1z" />
    <glyph glyph-name="egrave" unicode="&#xe8;" horiz-adv-x="444" 
d="M328 560l-10 -1c-60 39 -118 78 -181 124l-2 10l38 54l10 1c58 -55 112 -100 171 -148zM406 80l6 -7l-7 -73h-322l4 150l-4 351h324l6 -8l-7 -73l-127 5l-100 -1l-2 -130l96 -1l87 3l6 -8l-7 -74l-94 3l-89 -1l-1 -57l2 -82l94 -1z" />
    <glyph glyph-name="iacute" unicode="&#xed;" horiz-adv-x="267" 
d="M233 747l38 -54l-2 -10c-63 -46 -121 -85 -181 -124l-10 1l-26 40c59 48 113 93 171 148zM175 159l4 -159h-96l4 150l-4 351h97z" />
    <glyph glyph-name="icircumflex" unicode="&#xee;" horiz-adv-x="267" 
d="M20 564l-27 40c41 39 85 86 130 137h26c41 -47 85 -95 129 -137l-27 -40h-10c-40 35 -75 67 -105 100c-31 -33 -66 -65 -105 -100h-11zM175 159l4 -159h-96l4 150l-4 351h97z" />
    <glyph glyph-name="igrave" unicode="&#xec;" horiz-adv-x="267" 
d="M63 747l10 1c58 -55 112 -100 171 -148l-26 -40l-10 -1c-60 39 -118 78 -181 124l-2 10zM175 159l4 -159h-96l4 150l-4 351h97z" />
    <glyph glyph-name="ntilde" unicode="&#xf1;" horiz-adv-x="600" 
d="M463 690v-9l-65 -77l-10 -5c-44 6 -129 37 -155 37c-18 0 -34 -23 -59 -49h-10l-31 32v9l65 77l11 4c44 -6 130 -36 155 -36c17 0 34 22 59 49h10zM512 153l3 -153h-103l-238 352h-5l-1 -182l2 -170h-87l4 147l-3 354h103l237 -352h7l-2 349l88 5z" />
    <glyph glyph-name="oacute" unicode="&#xf3;" horiz-adv-x="558" 
d="M379 747l38 -54l-2 -10c-63 -46 -121 -85 -181 -124l-10 1l-26 40c59 48 113 93 171 148zM288 508c147 0 231 -90 231 -246c0 -173 -90 -270 -248 -270c-148 0 -231 92 -231 253c0 168 89 263 248 263zM279 429c-95 0 -139 -49 -139 -172c0 -136 44 -187 138 -187
c96 0 141 49 141 173c0 134 -43 186 -140 186z" />
    <glyph glyph-name="ocircumflex" unicode="&#xf4;" horiz-adv-x="558" 
d="M166 564l-27 40c41 39 85 86 130 137h26c41 -47 85 -95 129 -137l-27 -40h-10c-40 35 -75 67 -105 100c-31 -33 -66 -65 -105 -100h-11zM288 508c147 0 231 -90 231 -246c0 -173 -90 -270 -248 -270c-148 0 -231 92 -231 253c0 168 89 263 248 263zM279 429
c-95 0 -139 -49 -139 -172c0 -136 44 -187 138 -187c96 0 141 49 141 173c0 134 -43 186 -140 186z" />
    <glyph glyph-name="ograve" unicode="&#xf2;" horiz-adv-x="558" 
d="M209 747l10 1c58 -55 112 -100 171 -148l-26 -40l-10 -1c-60 39 -118 78 -181 124l-2 10zM288 508c147 0 231 -90 231 -246c0 -173 -90 -270 -248 -270c-148 0 -231 92 -231 253c0 168 89 263 248 263zM279 429c-95 0 -139 -49 -139 -172c0 -136 44 -187 138 -187
c96 0 141 49 141 173c0 134 -43 186 -140 186z" />
    <glyph glyph-name="otilde" unicode="&#xf5;" horiz-adv-x="558" 
d="M445 690v-9l-65 -77l-10 -5c-44 6 -129 37 -155 37c-18 0 -34 -23 -59 -49h-10l-31 32v9l65 77l11 4c44 -6 130 -36 155 -36c17 0 34 22 59 49h10zM288 508c147 0 231 -90 231 -246c0 -173 -90 -270 -248 -270c-148 0 -231 92 -231 253c0 168 89 263 248 263zM279 429
c-95 0 -139 -49 -139 -172c0 -136 44 -187 138 -187c96 0 141 49 141 173c0 134 -43 186 -140 186z" />
    <glyph glyph-name="scaron" unicode="&#x161;" horiz-adv-x="433" 
d="M336 740l27 -40c-41 -39 -85 -86 -130 -137h-26c-41 47 -85 95 -129 137l27 40h10c40 -35 75 -67 105 -100c31 33 66 65 105 100h11zM243 507c41 0 87 -9 128 -25l-15 -91l-15 -3c-39 31 -74 46 -109 46c-53 0 -80 -32 -80 -63c0 -88 233 -72 233 -224
c0 -79 -63 -154 -189 -154c-44 0 -101 10 -152 32l13 97l11 6c41 -41 99 -62 140 -62c49 0 82 29 82 64c0 91 -233 74 -233 227c0 83 70 150 186 150z" />
    <glyph glyph-name="uacute" unicode="&#xfa;" horiz-adv-x="552" 
d="M376 747l38 -54l-2 -10c-63 -46 -121 -85 -181 -124l-10 1l-26 40c59 48 113 93 171 148zM482 246v-74c1 -114 -76 -179 -210 -179c-133 0 -206 64 -203 179l1 77l-2 252h97l-6 -314c-1 -76 38 -114 116 -114s118 38 117 114l-4 314h97z" />
    <glyph glyph-name="ucircumflex" unicode="&#xfb;" horiz-adv-x="552" 
d="M163 564l-27 40c41 39 85 86 130 137h26c41 -47 85 -95 129 -137l-27 -40h-10c-40 35 -75 67 -105 100c-31 -33 -66 -65 -105 -100h-11zM482 246v-74c1 -114 -76 -179 -210 -179c-133 0 -206 64 -203 179l1 77l-2 252h97l-6 -314c-1 -76 38 -114 116 -114s118 38 117 114
l-4 314h97z" />
    <glyph glyph-name="udieresis" unicode="&#xfc;" horiz-adv-x="552" 
d="M198 705c32 0 50 -19 50 -51c0 -34 -20 -55 -53 -55s-51 19 -51 52s21 54 54 54zM362 705c32 0 50 -19 50 -51c0 -34 -20 -55 -53 -55s-51 19 -51 52s21 54 54 54zM482 246v-74c1 -114 -76 -179 -210 -179c-133 0 -206 64 -203 179l1 77l-2 252h97l-6 -314
c-1 -76 38 -114 116 -114s118 38 117 114l-4 314h97z" />
    <glyph glyph-name="ugrave" unicode="&#xf9;" horiz-adv-x="552" 
d="M206 747l10 1c58 -55 112 -100 171 -148l-26 -40l-10 -1c-60 39 -118 78 -181 124l-2 10zM482 246v-74c1 -114 -76 -179 -210 -179c-133 0 -206 64 -203 179l1 77l-2 252h97l-6 -314c-1 -76 38 -114 116 -114s118 38 117 114l-4 314h97z" />
    <glyph glyph-name="ydieresis" unicode="&#xff;" horiz-adv-x="483" 
d="M164 599c-33 0 -51 19 -51 52s21 54 54 54c32 0 50 -19 50 -51c0 -34 -20 -55 -53 -55zM328 599c-33 0 -51 19 -51 52s21 54 54 54c32 0 50 -19 50 -51c0 -34 -20 -55 -53 -55zM278 140l4 -140h-96l4 140l-1 28l-169 333h102l12 -32l99 -199h7l110 195l15 36h100
l-186 -330z" />
    <glyph glyph-name="zcaron" unicode="&#x17e;" horiz-adv-x="475" 
d="M340 740l27 -40c-41 -39 -85 -86 -130 -137h-26c-41 47 -85 95 -129 137l27 40h10c40 -35 75 -67 105 -100c31 33 66 65 105 100h11zM429 431l-276 -357h190l89 9l4 -5l-8 -80l-115 2h-217l-58 -2v69l278 359h-185l-84 -9l-4 6l8 79l100 -1h230l48 1v-71z" />
    <glyph glyph-name="twodotenleader" unicode="&#x2025;" horiz-adv-x="416" 
d="M112 108c34 0 53 -21 53 -55c0 -36 -22 -59 -57 -59c-34 0 -54 21 -54 56s22 58 58 58zM299 108c33 0 53 -21 53 -55c0 -36 -22 -59 -57 -59s-54 21 -54 56s22 58 58 58z" />
    <glyph glyph-name="onedotenleader" unicode="&#x2024;" horiz-adv-x="229" 
d="M116 108c33 0 53 -21 53 -55c0 -36 -22 -59 -57 -59s-54 21 -54 56s22 58 58 58z" />
    <glyph glyph-name="oneeighth" unicode="&#x215b;" horiz-adv-x="726" 
d="M568 655l6 -15l-468 -731l-45 26l-5 13l469 733zM182 639l-3 -241l3 -136h-87l2 126v166l-78 -20l-7 4v68l158 43zM560 387c71 0 113 -37 113 -94c0 -42 -24 -69 -62 -89v-5c38 -18 73 -40 73 -91c0 -71 -56 -113 -141 -113c-83 0 -128 40 -128 97c0 49 33 76 77 93v4
c-35 18 -64 43 -64 91c0 67 53 107 132 107zM554 330c-34 0 -54 -18 -54 -48c0 -31 27 -46 59 -59c26 14 46 30 46 61c0 28 -20 46 -51 46zM544 164c-31 -11 -57 -26 -57 -61c0 -32 22 -53 62 -53c43 0 65 23 65 51c0 35 -34 49 -70 63z" />
    <glyph glyph-name="threeeighths" unicode="&#x215c;" horiz-adv-x="764" 
d="M606 655l6 -15l-468 -731l-45 26l-5 13l469 733zM146 649c69 0 115 -35 115 -90c0 -31 -16 -69 -61 -91v-4c49 -13 74 -44 74 -90c0 -70 -67 -117 -166 -117c-22 0 -50 3 -72 8l-5 60l6 6c26 -7 50 -10 72 -10c51 0 81 20 81 55c0 30 -21 48 -61 49h-47l-4 5l1 57h30
c32 1 65 24 65 56c0 25 -17 39 -47 39c-25 0 -49 -10 -78 -29h-9l-14 57c37 26 79 39 120 39zM598 387c71 0 113 -37 113 -94c0 -42 -24 -69 -62 -89v-5c38 -18 73 -40 73 -91c0 -71 -56 -113 -141 -113c-83 0 -128 40 -128 97c0 49 33 76 77 93v4c-35 18 -64 43 -64 91
c0 67 53 107 132 107zM592 330c-34 0 -54 -18 -54 -48c0 -31 27 -46 59 -59c26 14 46 30 46 61c0 28 -20 46 -51 46zM582 164c-31 -11 -57 -26 -57 -61c0 -32 22 -53 62 -53c43 0 65 23 65 51c0 35 -34 49 -70 63z" />
    <glyph glyph-name="fiveeighths" unicode="&#x215d;" horiz-adv-x="745" 
d="M587 655l6 -15l-468 -731l-45 26l-5 13l469 733zM275 642l-8 -64l-7 -5l-55 5h-82l-2 -74l42 -10c75 -15 110 -49 110 -105c0 -81 -68 -132 -169 -132c-21 0 -50 3 -72 7l-6 59l7 7c24 -8 48 -10 72 -10c53 0 85 23 85 61c0 28 -20 45 -66 55l-64 11l-5 7l2 181l9 10
l38 -1h101l65 2zM579 387c71 0 113 -37 113 -94c0 -42 -24 -69 -62 -89v-5c38 -18 73 -40 73 -91c0 -71 -56 -113 -141 -113c-83 0 -128 40 -128 97c0 49 33 76 77 93v4c-35 18 -64 43 -64 91c0 67 53 107 132 107zM573 330c-34 0 -54 -18 -54 -48c0 -31 27 -46 59 -59
c26 14 46 30 46 61c0 28 -20 46 -51 46zM563 164c-31 -11 -57 -26 -57 -61c0 -32 22 -53 62 -53c43 0 65 23 65 51c0 35 -34 49 -70 63z" />
    <glyph glyph-name="seveneighths" unicode="&#x215e;" horiz-adv-x="724" 
d="M566 655l6 -15l-468 -731l-45 26l-5 13l469 733zM100 644h146l32 1l1 -61l-109 -234l-38 -95l-70 18l-5 13l136 289h-107l-61 -6l-4 9l6 67zM558 387c71 0 113 -37 113 -94c0 -42 -24 -69 -62 -89v-5c38 -18 73 -40 73 -91c0 -71 -56 -113 -141 -113
c-83 0 -128 40 -128 97c0 49 33 76 77 93v4c-35 18 -64 43 -64 91c0 67 53 107 132 107zM552 330c-34 0 -54 -18 -54 -48c0 -31 27 -46 59 -59c26 14 46 30 46 61c0 28 -20 46 -51 46zM542 164c-31 -11 -57 -26 -57 -61c0 -32 22 -53 62 -53c43 0 65 23 65 51
c0 35 -34 49 -70 63z" />
    <glyph glyph-name="zerosuperior" unicode="&#x2070;" horiz-adv-x="374" 
d="M193 707c93 0 144 -68 144 -189c0 -132 -54 -202 -155 -202c-94 0 -146 67 -146 189c0 131 56 202 157 202zM186 629c-55 0 -82 -38 -82 -117c0 -84 27 -124 83 -124s83 40 83 119c0 82 -28 122 -84 122z" />
    <glyph glyph-name="foursuperior" unicode="&#x2074;" horiz-adv-x="358" 
d="M322 412l-55 2l4 -88l-5 -6l-68 -3l-5 4l2 94h-108l-57 -3l-6 8v53l163 229h80l-2 -224h56l5 -7zM99 478h97v130h-6z" />
    <glyph glyph-name="fivesuperior" unicode="&#x2075;" horiz-adv-x="311" 
d="M275 700l-8 -64l-7 -5l-55 5h-82l-2 -74l42 -10c75 -15 110 -49 110 -105c0 -81 -68 -132 -169 -132c-21 0 -50 3 -72 7l-6 59l7 7c24 -8 48 -10 72 -10c53 0 85 23 85 61c0 28 -20 45 -66 55l-64 11l-5 7l2 181l9 10l38 -1h101l65 2z" />
    <glyph glyph-name="sixsuperior" unicode="&#x2076;" horiz-adv-x="342" 
d="M199 554c72 0 111 -50 111 -111c0 -71 -45 -128 -140 -128c-86 0 -137 54 -137 145c0 107 71 195 194 247h5l54 -36v-8c-90 -34 -139 -70 -161 -123l6 -6c20 13 43 20 68 20zM172 368c39 0 60 23 60 67c0 40 -20 61 -58 61c-21 0 -42 -7 -62 -19v-16c0 -60 15 -93 60 -93
z" />
    <glyph glyph-name="sevensuperior" unicode="&#x2077;" horiz-adv-x="304" 
d="M100 702h146l32 1l1 -61l-109 -234l-38 -95l-70 18l-5 13l136 289h-107l-61 -6l-4 9l6 67z" />
    <glyph glyph-name="eightsuperior" unicode="&#x2078;" horiz-adv-x="349" 
d="M183 707c71 0 113 -37 113 -94c0 -42 -24 -69 -62 -89v-5c38 -18 73 -40 73 -91c0 -71 -56 -113 -141 -113c-83 0 -128 40 -128 97c0 49 33 76 77 93v4c-35 18 -64 43 -64 91c0 67 53 107 132 107zM177 650c-34 0 -54 -18 -54 -48c0 -31 27 -46 59 -59c26 14 46 30 46 61
c0 28 -20 46 -51 46zM167 484c-31 -11 -57 -26 -57 -61c0 -32 22 -53 62 -53c43 0 65 23 65 51c0 35 -34 49 -70 63z" />
    <glyph glyph-name="ninesuperior" unicode="&#x2079;" horiz-adv-x="343" 
d="M175 708c86 0 137 -55 137 -147c0 -106 -71 -194 -195 -246h-4l-54 36v9c90 33 139 68 161 121l-6 6c-20 -12 -44 -20 -68 -20c-71 0 -111 51 -111 113c0 69 46 128 140 128zM171 526c21 0 42 7 63 20v15c0 60 -16 93 -61 93c-39 0 -61 -23 -61 -66c0 -40 21 -62 59 -62z
" />
    <glyph glyph-name="Ucaron" unicode="&#x1d3;" horiz-adv-x="631" 
d="M434 881l27 -40c-41 -39 -85 -86 -130 -137h-26c-41 47 -85 95 -129 137l27 40h10c40 -35 75 -67 105 -100c31 33 66 65 105 100h11zM560 316l-1 -76c2 -157 -89 -248 -252 -248c-155 0 -241 86 -238 240l1 89l-1 321h102l-4 -396c-1 -112 48 -166 147 -166
s151 51 150 156l-5 406h104z" />
    <glyph glyph-name="Edotaccent" unicode="&#x116;" horiz-adv-x="493" 
d="M277 743c-35 0 -55 21 -55 56s22 58 58 58c34 0 53 -21 53 -55c0 -36 -22 -59 -56 -59zM466 88l6 -9l-7 -79h-379l7 193l-7 449h381l6 -9l-8 -79l-152 4l-122 -1l-3 -187l116 -2l106 3l7 -8l-8 -79l-113 3l-109 -2l-1 -83l2 -118l123 -1z" />
    <glyph glyph-name="Obreve" unicode="&#x14e;" horiz-adv-x="639" 
d="M431 853l25 -33c-22 -62 -72 -97 -138 -97c-67 0 -114 35 -135 97l26 33h15c15 -37 50 -58 97 -58c46 0 79 21 95 58h15zM329 650c177 0 276 -114 276 -316c0 -219 -106 -343 -295 -343c-177 0 -276 118 -276 324c0 215 106 335 295 335zM319 565
c-122 0 -179 -74 -179 -237c0 -176 57 -254 178 -254c120 0 180 75 180 241c0 174 -57 250 -179 250z" />
    <glyph glyph-name="Edotbelow" unicode="&#x1eb8;" horiz-adv-x="493" 
d="M466 88l6 -9l-7 -79h-379l7 193l-7 449h381l6 -9l-8 -79l-152 4l-122 -1l-3 -187l116 -2l106 3l7 -8l-8 -79l-113 3l-109 -2l-1 -83l2 -118l123 -1zM288 -62c34 0 53 -21 53 -55c0 -36 -22 -59 -56 -59c-35 0 -55 21 -55 56s22 58 58 58z" />
    <glyph glyph-name="Ocaron" unicode="&#x1d1;" horiz-adv-x="639" 
d="M437 860l20 -43c-45 -30 -86 -62 -124 -96h-24c-38 34 -80 66 -124 96l19 43h11c36 -22 71 -43 106 -66c34 23 69 44 105 66h11zM329 650c177 0 276 -114 276 -316c0 -219 -106 -343 -295 -343c-177 0 -276 118 -276 324c0 215 106 335 295 335zM319 565
c-122 0 -179 -74 -179 -237c0 -176 57 -254 178 -254c120 0 180 75 180 241c0 174 -57 250 -179 250z" />
    <glyph glyph-name="Abreve" unicode="&#x102;" horiz-adv-x="587" 
d="M293 723c-67 0 -114 35 -135 97l26 33h15c15 -37 50 -58 97 -58c46 0 79 21 95 58h15l25 -33c-22 -62 -72 -97 -138 -97zM567 0h-105l-15 72l-28 89l-136 3l-124 -3l-29 -84l-16 -77h-103l228 642h122zM393 245l-92 296h-8l-104 -296l102 -2z" />
    <glyph glyph-name="Abreveacute" unicode="&#x1eae;" horiz-adv-x="587" 
d="M284 825l-33 28c30 37 60 75 89 115l9 2l47 -32l1 -9c-34 -35 -68 -68 -104 -102zM293 703c-67 0 -114 35 -135 97l26 33h15c15 -37 50 -58 97 -58c46 0 79 21 95 58h15l25 -33c-22 -62 -72 -97 -138 -97zM567 0h-105l-15 72l-28 89l-136 3l-124 -3l-29 -84l-16 -77h-103
l228 642h122zM393 245l-92 296h-8l-104 -296l102 -2z" />
    <glyph glyph-name="Ehookabove" unicode="&#x1eba;" horiz-adv-x="493" 
d="M256 853c-18 0 -40 -8 -60 -24l-19 30c28 28 62 46 94 46c40 0 71 -27 71 -63c0 -26 -16 -47 -54 -78l21 -37l-40 -22l-36 59c32 24 51 50 51 68c0 14 -12 21 -28 21zM466 88l6 -9l-7 -79h-379l7 193l-7 449h381l6 -9l-8 -79l-152 4l-122 -1l-3 -187l116 -2l106 3l7 -8
l-8 -79l-113 3l-109 -2l-1 -83l2 -118l123 -1z" />
    <glyph glyph-name="Udieresisacute" unicode="&#x1d7;" horiz-adv-x="631" 
d="M419 991l16 -64l-5 -9c-76 -18 -144 -32 -215 -45l-10 5l-9 47c72 21 140 43 214 71zM237 823c30 0 48 -18 48 -49s-20 -52 -52 -52c-30 0 -48 18 -48 49s20 52 52 52zM401 823c30 0 48 -18 48 -49s-20 -52 -52 -52c-30 0 -48 18 -48 49s20 52 52 52zM560 316l-1 -76
c2 -157 -89 -248 -252 -248c-155 0 -241 86 -238 240l1 89l-1 321h102l-4 -396c-1 -112 48 -166 147 -166s151 51 150 156l-5 406h104z" />
    <glyph glyph-name="Abrevedotbelow" unicode="&#x1eb6;" horiz-adv-x="587" 
d="M292 722c-66 0 -113 35 -134 97l26 33h15c15 -37 49 -58 97 -58c45 0 78 21 94 58h15l26 -33c-22 -62 -72 -97 -139 -97zM567 0h-105l-15 72l-28 89l-136 3l-124 -3l-29 -84l-16 -77h-103l228 642h122zM393 245l-92 296h-8l-104 -296l102 -2zM292 -62c34 0 53 -21 53 -55
c0 -36 -22 -59 -56 -59c-35 0 -55 21 -55 56s22 58 58 58z" />
    <glyph glyph-name="Abrevegrave" unicode="&#x1eb0;" horiz-adv-x="587" 
d="M304 825l-10 2c-34 34 -69 67 -102 102v9l48 32l8 -2c30 -40 58 -78 90 -115zM293 703c-67 0 -114 35 -135 97l26 33h15c15 -37 50 -58 97 -58c46 0 79 21 95 58h15l25 -33c-22 -62 -72 -97 -138 -97zM567 0h-105l-15 72l-28 89l-136 3l-124 -3l-29 -84l-16 -77h-103
l228 642h122zM393 245l-92 296h-8l-104 -296l102 -2z" />
    <glyph glyph-name="Udieresiscaron" unicode="&#x1d9;" horiz-adv-x="631" 
d="M434 980l20 -42c-45 -31 -86 -64 -124 -96h-24c-38 32 -80 65 -124 96l19 42h11c36 -22 71 -43 106 -65c34 22 69 43 105 65h11zM237 823c30 0 48 -18 48 -49s-20 -52 -52 -52c-30 0 -48 18 -48 49s20 52 52 52zM401 823c30 0 48 -18 48 -49s-20 -52 -52 -52
c-30 0 -48 18 -48 49s20 52 52 52zM560 316l-1 -76c2 -157 -89 -248 -252 -248c-155 0 -241 86 -238 240l1 89l-1 321h102l-4 -396c-1 -112 48 -166 147 -166s151 51 150 156l-5 406h104z" />
    <glyph glyph-name="Emacron" unicode="&#x112;" horiz-adv-x="493" 
d="M138 760l-7 8l5 58h282l7 -7l-5 -59h-282zM466 88l6 -9l-7 -79h-379l7 193l-7 449h381l6 -9l-8 -79l-152 4l-122 -1l-3 -187l116 -2l106 3l7 -8l-8 -79l-113 3l-109 -2l-1 -83l2 -118l123 -1z" />
    <glyph glyph-name="Ocircumflexacute" unicode="&#x1ed0;" horiz-adv-x="639" 
d="M503 943l1 -9l-87 -109h-8l-35 28l70 111l8 3zM203 711l-20 43c45 30 86 62 124 96h24c38 -34 80 -66 124 -96l-19 -43h-11c-36 22 -71 43 -106 66c-34 -23 -69 -44 -105 -66h-11zM329 650c177 0 276 -114 276 -316c0 -219 -106 -343 -295 -343c-177 0 -276 118 -276 324
c0 215 106 335 295 335zM319 565c-122 0 -179 -74 -179 -237c0 -176 57 -254 178 -254c120 0 180 75 180 241c0 174 -57 250 -179 250z" />
    <glyph glyph-name="Ocircumflexdotbelow" unicode="&#x1ed8;" horiz-adv-x="639" 
d="M212 725l-20 43c45 30 86 62 124 96h24c38 -34 80 -66 124 -96l-19 -43h-11c-36 22 -71 43 -106 66c-34 -23 -69 -44 -105 -66h-11zM329 650c177 0 276 -114 276 -316c0 -219 -106 -343 -295 -343c-177 0 -276 118 -276 324c0 215 106 335 295 335zM319 565
c-122 0 -179 -74 -179 -237c0 -176 57 -254 178 -254c120 0 180 75 180 241c0 174 -57 250 -179 250zM322 -62c34 0 53 -21 53 -55c0 -36 -22 -59 -56 -59c-35 0 -55 21 -55 56s22 58 58 58z" />
    <glyph glyph-name="Eogonek" unicode="&#x118;" horiz-adv-x="493" 
d="M468 -99l11 -47c-35 -34 -65 -51 -100 -51c-52 0 -85 35 -85 83c0 25 9 51 27 78l25 36h-260l7 193l-7 449h381l6 -9l-8 -79l-152 4l-122 -1l-3 -187l116 -2l106 3l7 -8l-8 -79l-113 3l-109 -2l-1 -83l2 -118l123 -1l155 5l6 -9l-7 -79h-61l-31 -47
c-11 -17 -17 -33 -17 -48c0 -22 13 -39 39 -39c21 0 45 13 67 35h6z" />
    <glyph glyph-name="Udieresisgrave" unicode="&#x1db;" horiz-adv-x="631" 
d="M211 991l10 5c74 -28 142 -50 214 -71l-10 -47l-10 -5c-69 13 -138 27 -213 45l-6 9zM237 823c30 0 48 -18 48 -49s-20 -52 -52 -52c-30 0 -48 18 -48 49s20 52 52 52zM401 823c30 0 48 -18 48 -49s-20 -52 -52 -52c-30 0 -48 18 -48 49s20 52 52 52zM560 316l-1 -76
c2 -157 -89 -248 -252 -248c-155 0 -241 86 -238 240l1 89l-1 321h102l-4 -396c-1 -112 48 -166 147 -166s151 51 150 156l-5 406h104z" />
    <glyph glyph-name="Abrevehookabove" unicode="&#x1eb2;" horiz-adv-x="587" 
d="M278 970c-18 0 -40 -8 -60 -24l-19 30c28 28 62 46 94 46c40 0 71 -27 71 -63c0 -26 -16 -47 -54 -78l21 -37l-40 -22l-36 59c32 24 51 50 51 68c0 14 -12 21 -28 21zM293 703c-67 0 -114 35 -135 97l26 33h15c15 -37 50 -58 97 -58c46 0 79 21 95 58h15l25 -33
c-22 -62 -72 -97 -138 -97zM567 0h-105l-15 72l-28 89l-136 3l-124 -3l-29 -84l-16 -77h-103l228 642h122zM393 245l-92 296h-8l-104 -296l102 -2z" />
    <glyph glyph-name="Abrevetilde" unicode="&#x1eb4;" horiz-adv-x="587" 
d="M173 861l-29 30v9l61 74l10 4c41 -5 121 -35 144 -35c17 0 32 22 56 47h9l28 -30v-9l-60 -74l-11 -4c-40 5 -120 35 -144 35c-16 0 -32 -22 -55 -47h-9zM299 773c44 0 76 21 91 57h15l25 -33c-22 -60 -70 -93 -134 -93c-65 0 -111 33 -130 93l24 33h15
c15 -36 48 -57 94 -57zM567 0h-105l-15 72l-28 89l-136 3l-124 -3l-29 -84l-16 -77h-103l228 642h122zM393 245l-92 296h-8l-104 -296l102 -2z" />
    <glyph glyph-name="Ocircumflexgrave" unicode="&#x1ed2;" horiz-adv-x="639" 
d="M397 964l70 -111l-35 -28h-8l-87 109l1 9l52 24zM203 711l-20 43c45 30 86 62 124 96h24c38 -34 80 -66 124 -96l-19 -43h-11c-36 22 -71 43 -106 66c-34 -23 -69 -44 -105 -66h-11zM329 650c177 0 276 -114 276 -316c0 -219 -106 -343 -295 -343
c-177 0 -276 118 -276 324c0 215 106 335 295 335zM319 565c-122 0 -179 -74 -179 -237c0 -176 57 -254 178 -254c120 0 180 75 180 241c0 174 -57 250 -179 250z" />
    <glyph glyph-name="Udieresismacron" unicode="&#x1d5;" horiz-adv-x="631" 
d="M458 944l-6 -59h-266l-8 8l6 59h267zM237 823c30 0 48 -18 48 -49s-20 -52 -52 -52c-30 0 -48 18 -48 49s20 52 52 52zM401 823c30 0 48 -18 48 -49s-20 -52 -52 -52c-30 0 -48 18 -48 49s20 52 52 52zM560 316l-1 -76c2 -157 -89 -248 -252 -248
c-155 0 -241 86 -238 240l1 89l-1 321h102l-4 -396c-1 -112 48 -166 147 -166s151 51 150 156l-5 406h104z" />
    <glyph glyph-name="Udotbelow" unicode="&#x1ee4;" horiz-adv-x="631" 
d="M560 316l-1 -76c2 -157 -89 -248 -252 -248c-155 0 -241 86 -238 240l1 89l-1 321h102l-4 -396c-1 -112 48 -166 147 -166s151 51 150 156l-5 406h104zM315 -62c34 0 53 -21 53 -55c0 -36 -22 -59 -56 -59c-35 0 -55 21 -55 56s22 58 58 58z" />
    <glyph glyph-name="Ocircumflexhookabove" unicode="&#x1ed4;" horiz-adv-x="639" 
d="M417 1008c38 0 67 -25 67 -60c0 -24 -15 -44 -51 -74l20 -35l-38 -22l-34 57c30 23 48 48 48 64c0 14 -11 21 -26 21c-17 0 -39 -8 -57 -23l-18 28c26 27 58 44 89 44zM203 711l-20 43c45 30 86 62 124 96h24c38 -34 80 -66 124 -96l-19 -43h-11c-36 22 -71 43 -106 66
c-34 -23 -69 -44 -105 -66h-11zM329 650c177 0 276 -114 276 -316c0 -219 -106 -343 -295 -343c-177 0 -276 118 -276 324c0 215 106 335 295 335zM319 565c-122 0 -179 -74 -179 -237c0 -176 57 -254 178 -254c120 0 180 75 180 241c0 174 -57 250 -179 250z" />
    <glyph glyph-name="Acaron" unicode="&#x1cd;" horiz-adv-x="587" 
d="M308 721h-24c-38 34 -80 66 -124 96l19 43h11c36 -22 71 -43 106 -66c34 23 69 44 105 66h11l20 -43c-45 -30 -86 -62 -124 -96zM567 0h-105l-15 72l-28 89l-136 3l-124 -3l-29 -84l-16 -77h-103l228 642h122zM393 245l-92 296h-8l-104 -296l102 -2z" />
    <glyph glyph-name="Ocircumflextilde" unicode="&#x1ed6;" horiz-adv-x="639" 
d="M477 960v-9l-60 -74l-11 -4c-40 5 -120 35 -144 35c-16 0 -32 -22 -55 -47h-9l-29 30v9l61 74l10 4c41 -5 121 -35 144 -35c17 0 32 22 56 47h9zM203 711l-20 43c45 30 86 62 124 96h24c38 -34 80 -66 124 -96l-19 -43h-11c-36 22 -71 43 -106 66
c-34 -23 -69 -44 -105 -66h-11zM329 650c177 0 276 -114 276 -316c0 -219 -106 -343 -295 -343c-177 0 -276 118 -276 324c0 215 106 335 295 335zM319 565c-122 0 -179 -74 -179 -237c0 -176 57 -254 178 -254c120 0 180 75 180 241c0 174 -57 250 -179 250z" />
    <glyph glyph-name="Gbreve" unicode="&#x11e;" horiz-adv-x="599" 
d="M437 853l25 -33c-22 -62 -72 -97 -138 -97c-67 0 -114 35 -135 97l26 33h15c15 -37 50 -58 97 -58c46 0 79 21 95 58h15zM356 649c66 0 127 -13 188 -43l-21 -96l-11 -1c-65 38 -113 54 -173 54c-131 0 -198 -75 -198 -251c0 -166 60 -235 192 -235c33 0 61 5 111 20
l3 65l-3 96l97 7l-2 -87l3 -147c-86 -27 -152 -39 -215 -39c-199 0 -293 116 -293 315c0 223 117 342 322 342z" />
    <glyph glyph-name="Acircumflexacute" unicode="&#x1ea4;" horiz-adv-x="587" 
d="M384 825l-35 28l70 111l8 3l51 -24l1 -9l-87 -109h-8zM178 711l-20 43c45 30 86 62 124 96h24c38 -34 80 -66 124 -96l-19 -43h-11c-36 22 -71 43 -106 66c-34 -23 -69 -44 -105 -66h-11zM567 0h-105l-15 72l-28 89l-136 3l-124 -3l-29 -84l-16 -77h-103l228 642h122z
M393 245l-92 296h-8l-104 -296l102 -2z" />
    <glyph glyph-name="Uhookabove" unicode="&#x1ee6;" horiz-adv-x="631" 
d="M311 905c40 0 71 -27 71 -63c0 -26 -16 -47 -54 -78l21 -37l-40 -22l-36 59c32 24 51 50 51 68c0 14 -12 21 -28 21c-18 0 -40 -8 -60 -24l-19 30c28 28 62 46 94 46zM560 316l-1 -76c2 -157 -89 -248 -252 -248c-155 0 -241 86 -238 240l1 89l-1 321h102l-4 -396
c-1 -112 48 -166 147 -166s151 51 150 156l-5 406h104z" />
    <glyph glyph-name="Uhorn" unicode="&#x1af;" horiz-adv-x="641" 
d="M651 700c0 -47 -34 -86 -88 -103l-3 -281l-1 -76c2 -157 -89 -248 -252 -248c-155 0 -241 86 -238 240l1 89l-1 321h102l-4 -396c-1 -112 48 -166 147 -166s151 51 150 156l-5 406h48c42 0 64 17 64 50c0 21 -10 40 -33 60l3 9c17 12 33 20 49 20c29 0 61 -34 61 -81z
" />
    <glyph glyph-name="Acircumflexdotbelow" unicode="&#x1eac;" horiz-adv-x="587" 
d="M177 730l-20 43c45 30 86 62 124 96h24c38 -34 80 -66 124 -96l-19 -43h-11c-36 22 -71 43 -106 66c-34 -23 -69 -44 -105 -66h-11zM567 0h-105l-15 72l-28 89l-136 3l-124 -3l-29 -84l-16 -77h-103l228 642h122zM393 245l-92 296h-8l-104 -296l102 -2zM292 -62
c34 0 53 -21 53 -55c0 -36 -22 -59 -56 -59c-35 0 -55 21 -55 56s22 58 58 58z" />
    <glyph glyph-name="Gcircumflex" unicode="&#x11c;" horiz-adv-x="599" 
d="M210 731l-20 43c45 30 86 62 124 96h24c38 -34 80 -66 124 -96l-19 -43h-11c-36 22 -71 43 -106 66c-34 -23 -69 -44 -105 -66h-11zM356 649c66 0 127 -13 188 -43l-21 -96l-11 -1c-65 38 -113 54 -173 54c-131 0 -198 -75 -198 -251c0 -166 60 -235 192 -235
c33 0 61 5 111 20l3 65l-3 96l97 7l-2 -87l3 -147c-86 -27 -152 -39 -215 -39c-199 0 -293 116 -293 315c0 223 117 342 322 342z" />
    <glyph glyph-name="Odotbelow" unicode="&#x1ecc;" horiz-adv-x="639" 
d="M329 650c177 0 276 -114 276 -316c0 -219 -106 -343 -295 -343c-177 0 -276 118 -276 324c0 215 106 335 295 335zM319 565c-122 0 -179 -74 -179 -237c0 -176 57 -254 178 -254c120 0 180 75 180 241c0 174 -57 250 -179 250zM322 -62c34 0 53 -21 53 -55
c0 -36 -22 -59 -56 -59c-35 0 -55 21 -55 56s22 58 58 58z" />
    <glyph glyph-name="Gcommaaccent" unicode="&#x122;" horiz-adv-x="599" 
d="M356 649c66 0 127 -13 188 -43l-21 -96l-11 -1c-65 38 -113 54 -173 54c-131 0 -198 -75 -198 -251c0 -166 60 -235 192 -235c33 0 61 5 111 20l3 65l-3 96l97 7l-2 -87l3 -147c-86 -27 -152 -39 -215 -39c-199 0 -293 116 -293 315c0 223 117 342 322 342zM332 -49
c25 -18 39 -41 39 -68c0 -46 -32 -92 -97 -138l-31 28v7c33 27 51 55 51 84c0 19 -10 35 -29 49v8c20 13 42 23 67 30z" />
    <glyph glyph-name="Acircumflexgrave" unicode="&#x1ea6;" horiz-adv-x="587" 
d="M399 825l-87 109l1 9l52 24l7 -3l70 -111l-35 -28h-8zM178 711l-20 43c45 30 86 62 124 96h24c38 -34 80 -66 124 -96l-19 -43h-11c-36 22 -71 43 -106 66c-34 -23 -69 -44 -105 -66h-11zM567 0h-105l-15 72l-28 89l-136 3l-124 -3l-29 -84l-16 -77h-103l228 642h122z
M393 245l-92 296h-8l-104 -296l102 -2z" />
    <glyph glyph-name="Uhornacute" unicode="&#x1ee8;" horiz-adv-x="641" 
d="M243 723l-17 44c66 34 130 67 198 107l10 -2l27 -61l-4 -10c-71 -31 -136 -56 -203 -82zM651 700c0 -47 -34 -86 -88 -103l-3 -281l-1 -76c2 -157 -89 -248 -252 -248c-155 0 -241 86 -238 240l1 89l-1 321h102l-4 -396c-1 -112 48 -166 147 -166s151 51 150 156l-5 406
h48c42 0 64 17 64 50c0 21 -10 40 -33 60l3 9c17 12 33 20 49 20c29 0 61 -34 61 -81z" />
    <glyph glyph-name="Uhorndotbelow" unicode="&#x1ef0;" horiz-adv-x="641" 
d="M651 700c0 -47 -34 -86 -88 -103l-3 -281l-1 -76c2 -157 -89 -248 -252 -248c-155 0 -241 86 -238 240l1 89l-1 321h102l-4 -396c-1 -112 48 -166 147 -166s151 51 150 156l-5 406h48c42 0 64 17 64 50c0 21 -10 40 -33 60l3 9c17 12 33 20 49 20c29 0 61 -34 61 -81z
M317 -62c34 0 53 -21 53 -55c0 -36 -22 -59 -56 -59c-35 0 -55 21 -55 56s22 58 58 58z" />
    <glyph glyph-name="Acircumflexhookabove" unicode="&#x1ea8;" horiz-adv-x="587" 
d="M378 959c-17 0 -39 -8 -57 -23l-18 28c26 27 58 44 89 44c38 0 67 -25 67 -60c0 -24 -15 -44 -51 -74l20 -35l-38 -22l-34 57c30 23 48 48 48 64c0 14 -11 21 -26 21zM178 711l-20 43c45 30 86 62 124 96h24c38 -34 80 -66 124 -96l-19 -43h-11c-36 22 -71 43 -106 66
c-34 -23 -69 -44 -105 -66h-11zM567 0h-105l-15 72l-28 89l-136 3l-124 -3l-29 -84l-16 -77h-103l228 642h122zM393 245l-92 296h-8l-104 -296l102 -2z" />
    <glyph glyph-name="Gdotaccent" unicode="&#x120;" horiz-adv-x="599" 
d="M328 857c34 0 53 -21 53 -55c0 -36 -22 -59 -56 -59c-35 0 -55 21 -55 56s22 58 58 58zM356 649c66 0 127 -13 188 -43l-21 -96l-11 -1c-65 38 -113 54 -173 54c-131 0 -198 -75 -198 -251c0 -166 60 -235 192 -235c33 0 61 5 111 20l3 65l-3 96l97 7l-2 -87l3 -147
c-86 -27 -152 -39 -215 -39c-199 0 -293 116 -293 315c0 223 117 342 322 342z" />
    <glyph glyph-name="Ohookabove" unicode="&#x1ece;" horiz-adv-x="639" 
d="M314 905c40 0 71 -27 71 -63c0 -26 -16 -47 -54 -78l21 -37l-40 -22l-36 59c32 24 51 50 51 68c0 14 -12 21 -28 21c-18 0 -40 -8 -60 -24l-19 30c28 28 62 46 94 46zM329 650c177 0 276 -114 276 -316c0 -219 -106 -343 -295 -343c-177 0 -276 118 -276 324
c0 215 106 335 295 335zM319 565c-122 0 -179 -74 -179 -237c0 -176 57 -254 178 -254c120 0 180 75 180 241c0 174 -57 250 -179 250z" />
    <glyph glyph-name="Acircumflextilde" unicode="&#x1eaa;" horiz-adv-x="587" 
d="M173 861l-29 30v9l61 74l10 4c41 -5 121 -35 144 -35c17 0 32 22 56 47h9l28 -30v-9l-60 -74l-11 -4c-40 5 -120 35 -144 35c-16 0 -32 -22 -55 -47h-9zM282 850h24c38 -34 80 -66 124 -96l-19 -43h-11c-36 22 -71 43 -106 66c-34 -23 -69 -44 -105 -66h-11l-20 43
c45 30 86 62 124 96zM567 0h-105l-15 72l-28 89l-136 3l-124 -3l-29 -84l-16 -77h-103l228 642h122zM393 245l-92 296h-8l-104 -296l102 -2z" />
    <glyph glyph-name="Ohorn" unicode="&#x1a0;" horiz-adv-x="644" 
d="M583 769c30 0 60 -37 60 -89c0 -66 -51 -106 -117 -112c53 -54 79 -133 79 -238c0 -212 -107 -339 -293 -339c-179 0 -278 118 -278 323c0 216 109 336 288 336c91 0 129 -33 174 -33c37 0 67 20 67 56c0 23 -11 48 -32 68l2 8c15 12 34 20 50 20zM319 565
c-121 0 -179 -75 -179 -239c0 -174 57 -252 179 -252c120 0 179 75 179 242c0 173 -57 249 -179 249z" />
    <glyph glyph-name="Uhorngrave" unicode="&#x1eea;" horiz-adv-x="641" 
d="M419 724l-11 -4c-67 26 -132 51 -203 82l-4 10l27 61l10 2c68 -40 132 -73 198 -107zM651 700c0 -47 -34 -86 -88 -103l-3 -281l-1 -76c2 -157 -89 -248 -252 -248c-155 0 -241 86 -238 240l1 89l-1 321h102l-4 -396c-1 -112 48 -166 147 -166s151 51 150 156l-5 406h48
c42 0 64 17 64 50c0 21 -10 40 -33 60l3 9c17 12 33 20 49 20c29 0 61 -34 61 -81z" />
    <glyph glyph-name="Uhornhookabove" unicode="&#x1eec;" horiz-adv-x="641" 
d="M296 853c-18 0 -40 -8 -60 -24l-19 30c28 28 62 46 94 46c40 0 71 -27 71 -63c0 -26 -16 -47 -54 -78l21 -37l-40 -22l-36 59c32 24 51 50 51 68c0 14 -12 21 -28 21zM651 700c0 -47 -34 -86 -88 -103l-3 -281l-1 -76c2 -157 -89 -248 -252 -248c-155 0 -241 86 -238 240
l1 89l-1 321h102l-4 -396c-1 -112 48 -166 147 -166s151 51 150 156l-5 406h48c42 0 64 17 64 50c0 21 -10 40 -33 60l3 9c17 12 33 20 49 20c29 0 61 -34 61 -81z" />
    <glyph glyph-name="Hbar" unicode="&#x126;" horiz-adv-x="720" 
d="M613 476l-3 -274l4 -202h-104l7 193l-1 87l-166 3l-149 -3l-1 -78l4 -202h-104l7 193l-4 283h-63l-5 6l4 60h63l-2 100h106l-1 -100h307l-2 100h105l-1 -100h67l6 -6l-4 -60h-70zM513 476h-309l-2 -109l156 -3l156 3z" />
    <glyph glyph-name="Ohornacute" unicode="&#x1eda;" horiz-adv-x="644" 
d="M436 872l27 -61l-4 -10c-71 -31 -136 -56 -203 -82l-11 4l-17 44c66 34 130 67 198 107zM583 769c30 0 60 -37 60 -89c0 -66 -51 -106 -117 -112c53 -54 79 -133 79 -238c0 -212 -106 -339 -293 -339c-179 0 -278 118 -278 323c0 216 109 336 288 336
c91 0 129 -33 174 -33c37 0 67 20 67 56c0 23 -11 48 -32 68l2 8c15 12 34 20 50 20zM319 565c-122 0 -179 -75 -179 -239c0 -174 57 -252 178 -252s180 75 180 242c0 173 -57 249 -179 249z" />
    <glyph glyph-name="Ohorndotbelow" unicode="&#x1ee2;" horiz-adv-x="644" 
d="M583 769c30 0 60 -37 60 -89c0 -66 -51 -106 -117 -112c53 -54 79 -133 79 -238c0 -212 -106 -339 -293 -339c-179 0 -278 118 -278 323c0 216 109 336 288 336c91 0 129 -33 174 -33c37 0 67 20 67 56c0 23 -11 48 -32 68l2 8c15 12 34 20 50 20zM319 565
c-122 0 -179 -75 -179 -239c0 -174 57 -252 178 -252s180 75 180 242c0 173 -57 249 -179 249zM322 -62c34 0 53 -21 53 -55c0 -36 -22 -59 -56 -59c-35 0 -55 21 -55 56s22 58 58 58z" />
    <glyph glyph-name="Adotbelow" unicode="&#x1ea0;" horiz-adv-x="587" 
d="M567 0h-105l-15 72l-28 89l-136 3l-124 -3l-29 -84l-16 -77h-103l228 642h122zM393 245l-92 296h-8l-104 -296l102 -2zM292 -62c34 0 53 -21 53 -55c0 -36 -22 -59 -56 -59c-35 0 -55 21 -55 56s22 58 58 58z" />
    <glyph glyph-name="Uhorntilde" unicode="&#x1eee;" horiz-adv-x="641" 
d="M183 728l-31 32v9l65 77l11 4c44 -6 130 -36 155 -36c17 0 34 22 59 49h10l30 -32v-9l-65 -77l-10 -5c-44 6 -129 37 -155 37c-18 0 -34 -23 -59 -49h-10zM651 700c0 -47 -34 -86 -88 -103l-3 -281l-1 -76c2 -157 -89 -248 -252 -248c-155 0 -241 86 -238 240l1 89
l-1 321h102l-4 -396c-1 -112 48 -166 147 -166s151 51 150 156l-5 406h48c42 0 64 17 64 50c0 21 -10 40 -33 60l3 9c17 12 33 20 49 20c29 0 61 -34 61 -81z" />
    <glyph glyph-name="Hcircumflex" unicode="&#x124;" horiz-adv-x="688" 
d="M226 731l-20 43c45 30 86 62 124 96h24c38 -34 80 -66 124 -96l-19 -43h-11c-36 22 -71 43 -106 66c-34 -23 -69 -44 -105 -66h-11zM596 202l4 -202h-104l7 193l-1 87l-166 3l-149 -3l-1 -78l4 -202h-104l7 193l-7 449h106l-4 -275l156 -3l156 3l-4 275h106z" />
    <glyph glyph-name="Ohorngrave" unicode="&#x1edc;" horiz-adv-x="644" 
d="M230 873l10 2c68 -40 132 -73 198 -107l-17 -44l-11 -4c-67 26 -132 51 -203 82l-4 10zM583 769c30 0 60 -37 60 -89c0 -66 -51 -106 -117 -112c53 -54 79 -133 79 -238c0 -212 -106 -339 -293 -339c-179 0 -278 118 -278 323c0 216 109 336 288 336
c91 0 129 -33 174 -33c37 0 67 20 67 56c0 23 -11 48 -32 68l2 8c15 12 34 20 50 20zM319 565c-122 0 -179 -75 -179 -239c0 -174 57 -252 178 -252s180 75 180 242c0 173 -57 249 -179 249z" />
    <glyph glyph-name="Uhungarumlaut" unicode="&#x170;" horiz-adv-x="631" 
d="M219 717l-33 28c37 42 73 83 108 126l9 2l46 -32l1 -10c-40 -38 -79 -75 -121 -112zM367 717l-33 28c36 42 72 83 108 126l7 2l48 -32l1 -10c-40 -38 -81 -75 -121 -112zM560 316l-1 -76c2 -157 -89 -248 -252 -248c-155 0 -241 86 -238 240l1 89l-1 321h102l-4 -396
c-1 -112 48 -166 147 -166s151 51 150 156l-5 406h104z" />
    <glyph glyph-name="Umacron" unicode="&#x16a;" horiz-adv-x="631" 
d="M465 819l-5 -59h-282l-7 8l5 58h282zM560 316l-1 -76c2 -157 -89 -248 -252 -248c-155 0 -241 86 -238 240l1 89l-1 321h102l-4 -396c-1 -112 48 -166 147 -166s151 51 150 156l-5 406h104z" />
    <glyph glyph-name="Ahookabove" unicode="&#x1ea2;" horiz-adv-x="587" 
d="M273 853c-18 0 -40 -8 -60 -24l-19 30c28 28 62 46 94 46c40 0 71 -27 71 -63c0 -26 -16 -47 -54 -78l21 -37l-40 -22l-36 59c32 24 51 50 51 68c0 14 -12 21 -28 21zM567 0h-105l-15 72l-28 89l-136 3l-124 -3l-29 -84l-16 -77h-103l228 642h122zM393 245l-92 296h-8
l-104 -296l102 -2z" />
    <glyph glyph-name="IJ" unicode="&#x132;" horiz-adv-x="601" 
d="M192 642l-6 -440l4 -202h-104l7 193l-7 449h106zM508 212l2 -93c0 -104 -47 -164 -181 -223l-36 57v11c87 45 122 83 122 155v83l-4 360l-117 -1l-9 8l6 73h223z" />
    <glyph glyph-name="Ohornhookabove" unicode="&#x1ede;" horiz-adv-x="644" 
d="M314 905c40 0 71 -27 71 -63c0 -26 -16 -47 -54 -78l21 -37l-40 -22l-36 59c32 24 51 50 51 68c0 14 -12 21 -28 21c-18 0 -40 -8 -60 -24l-19 30c28 28 62 46 94 46zM583 769c30 0 60 -37 60 -89c0 -66 -51 -106 -117 -112c53 -54 79 -133 79 -238
c0 -212 -106 -339 -293 -339c-179 0 -278 118 -278 323c0 216 109 336 288 336c91 0 129 -33 174 -33c37 0 67 20 67 56c0 23 -11 48 -32 68l2 8c15 12 34 20 50 20zM319 565c-122 0 -179 -75 -179 -239c0 -174 57 -252 178 -252s180 75 180 242c0 173 -57 249 -179 249z
" />
    <glyph glyph-name="Ohorntilde" unicode="&#x1ee0;" horiz-adv-x="644" 
d="M484 831v-9l-65 -77l-10 -5c-44 6 -129 37 -155 37c-18 0 -34 -23 -59 -49h-10l-31 32v9l65 77l11 4c44 -6 130 -36 155 -36c17 0 34 22 59 49h10zM583 769c30 0 60 -37 60 -89c0 -66 -51 -106 -117 -112c53 -54 79 -133 79 -238c0 -212 -106 -339 -293 -339
c-179 0 -278 118 -278 323c0 216 109 336 288 336c91 0 129 -33 174 -33c37 0 67 20 67 56c0 23 -11 48 -32 68l2 8c15 12 34 20 50 20zM319 565c-122 0 -179 -75 -179 -239c0 -174 57 -252 178 -252s180 75 180 242c0 173 -57 249 -179 249z" />
    <glyph glyph-name="Amacron" unicode="&#x100;" horiz-adv-x="587" 
d="M155 760l-7 8l5 58h282l7 -7l-5 -59h-282zM567 0h-105l-15 72l-28 89l-136 3l-124 -3l-29 -84l-16 -77h-103l228 642h122zM393 245l-92 296h-8l-104 -296l102 -2z" />
    <glyph glyph-name="Uogonek" unicode="&#x172;" horiz-adv-x="631" 
d="M560 316l-1 -76c1 -89 -28 -157 -83 -199l-57 -94c-11 -16 -17 -35 -17 -49c0 -19 11 -33 36 -33c23 0 48 12 71 35h5l12 -45c-33 -34 -65 -52 -101 -52c-51 0 -83 35 -83 83c0 23 7 46 24 71l30 46c-27 -7 -56 -11 -89 -11c-155 0 -241 86 -238 240l1 89l-1 321h102
l-4 -396c-1 -112 48 -166 147 -166s151 51 150 156l-5 406h104z" />
    <glyph glyph-name="Uring" unicode="&#x16e;" horiz-adv-x="631" 
d="M318 889c58 0 88 -35 88 -85c0 -58 -38 -90 -91 -90c-52 0 -87 31 -87 87c0 55 33 88 90 88zM316 843c-28 0 -42 -15 -42 -40c0 -30 16 -44 43 -44c26 0 43 13 43 42c0 25 -14 42 -44 42zM560 316l-1 -76c2 -157 -89 -248 -252 -248c-155 0 -241 86 -238 240l1 89l-1 321
h102l-4 -396c-1 -112 48 -166 147 -166s151 51 150 156l-5 406h104z" />
    <glyph glyph-name="Aogonek" unicode="&#x104;" horiz-adv-x="587" 
d="M604 -100l11 -45c-33 -34 -65 -52 -102 -52c-50 0 -82 32 -82 82c0 31 12 60 52 115h-21l-15 72l-28 89l-136 3l-124 -3l-29 -84l-16 -77h-103l228 642h122l206 -642h-27c-36 -52 -47 -78 -47 -100s11 -34 34 -34s49 13 72 34h5zM393 245l-92 296h-8l-104 -296l102 -2z
" />
    <glyph glyph-name="Ohungarumlaut" unicode="&#x150;" horiz-adv-x="639" 
d="M222 717l-33 28c37 42 73 83 108 126l9 2l46 -32l1 -10c-40 -38 -79 -75 -121 -112zM370 717l-33 28c36 42 72 83 108 126l7 2l48 -32l1 -10c-40 -38 -81 -75 -121 -112zM329 650c177 0 276 -114 276 -316c0 -219 -106 -343 -295 -343c-177 0 -276 118 -276 324
c0 215 106 335 295 335zM319 565c-122 0 -179 -74 -179 -237c0 -176 57 -254 178 -254c120 0 180 75 180 241c0 174 -57 250 -179 250z" />
    <glyph glyph-name="Ibreve" unicode="&#x12c;" horiz-adv-x="279" 
d="M250 853l25 -33c-22 -62 -72 -97 -138 -97c-67 0 -114 35 -135 97l26 33h15c15 -37 50 -58 97 -58c46 0 79 21 95 58h15zM186 202l4 -202h-104l7 193l-7 449h106z" />
    <glyph glyph-name="Omacron" unicode="&#x14c;" horiz-adv-x="639" 
d="M467 819l-5 -59h-282l-7 8l5 58h282zM329 650c177 0 276 -114 276 -316c0 -219 -106 -343 -295 -343c-177 0 -276 118 -276 324c0 215 106 335 295 335zM319 565c-122 0 -179 -74 -179 -237c0 -176 57 -254 178 -254c120 0 180 75 180 241c0 174 -57 250 -179 250z" />
    <glyph glyph-name="Icaron" unicode="&#x1cf;" horiz-adv-x="279" 
d="M256 860l20 -43c-45 -30 -86 -62 -124 -96h-24c-38 34 -80 66 -124 96l19 43h11c36 -22 71 -43 106 -66c34 23 69 44 105 66h11zM186 202l4 -202h-104l7 193l-7 449h106z" />
    <glyph glyph-name="Oogonek" unicode="&#x1ea;" horiz-adv-x="639" 
d="M438 15l-40 -62c-11 -17 -17 -33 -17 -48c0 -22 13 -39 39 -39c21 0 45 13 67 35h6l11 -47c-35 -34 -65 -51 -100 -51c-52 0 -85 35 -85 83c0 25 9 51 27 78l22 31c-18 -3 -38 -4 -58 -4c-177 0 -276 118 -276 324c0 215 106 335 295 335c177 0 276 -114 276 -316
c0 -163 -59 -273 -167 -319zM140 328c0 -176 57 -254 178 -254c120 0 180 75 180 241c0 174 -57 250 -179 250s-179 -74 -179 -237z" />
    <glyph glyph-name="Aringacute" unicode="&#x1fa;" horiz-adv-x="587" 
d="M214 791l-10 47c71 22 139 45 213 74l10 -4l16 -64l-5 -9c-76 -20 -144 -34 -214 -49zM567 0h-105l-15 71l-28 88l-136 2l-124 -3l-29 -82l-16 -76h-103l226 616c-16 15 -26 38 -26 67c0 55 33 88 90 88c58 0 88 -35 88 -85c0 -31 -11 -54 -28 -69zM299 725
c-28 0 -42 -15 -42 -40c0 -30 16 -44 43 -44c26 0 43 13 43 42c0 25 -14 42 -44 42zM393 242l-92 291h-8l-104 -291l102 -2z" />
    <glyph glyph-name="Oslashacute" unicode="&#x1fe;" horiz-adv-x="639" 
d="M244 724l-17 44c66 34 130 67 198 107l10 -2l27 -61l-4 -10c-71 -31 -136 -56 -203 -82zM534 695l-42 -90c73 -51 113 -143 113 -271c0 -219 -106 -343 -295 -343c-37 0 -71 5 -101 15l-54 -115l-59 24l-5 9l54 115c-72 53 -111 147 -111 276c0 215 106 335 295 335
c35 0 68 -5 97 -13l43 92l58 -23zM140 328c0 -92 16 -157 48 -198l199 425c-20 7 -42 10 -68 10c-122 0 -179 -74 -179 -237zM318 74c120 0 180 75 180 241c0 93 -16 158 -50 198l-201 -427c20 -8 44 -12 71 -12z" />
    <glyph glyph-name="Idotaccent" unicode="&#x130;" horiz-adv-x="279" 
d="M141 857c34 0 53 -21 53 -55c0 -36 -22 -59 -56 -59c-35 0 -55 21 -55 56s22 58 58 58zM186 202l4 -202h-104l7 193l-7 449h106z" />
    <glyph glyph-name="Wacute" unicode="&#x1e82;" horiz-adv-x="897" 
d="M558 872l27 -61l-4 -10c-71 -31 -136 -56 -203 -82l-11 4l-17 44c66 34 130 67 198 107zM667 0h-107l-113 345h-8l-117 -345h-108l-194 642h102l10 -69l139 -463h8l126 372l-51 160h105l16 -79l140 -453h7l156 457l15 75h97z" />
    <glyph glyph-name="Idotbelow" unicode="&#x1eca;" horiz-adv-x="279" 
d="M186 202l4 -202h-104l7 193l-7 449h106zM135 -62c34 0 53 -21 53 -55c0 -36 -22 -59 -56 -59c-35 0 -55 21 -55 56s22 58 58 58z" />
    <glyph glyph-name="Wcircumflex" unicode="&#x174;" horiz-adv-x="897" 
d="M326 731l-20 43c45 30 86 62 124 96h24c38 -34 80 -66 124 -96l-19 -43h-11c-36 22 -71 43 -106 66c-34 -23 -69 -44 -105 -66h-11zM667 0h-107l-113 345h-8l-117 -345h-108l-194 642h102l10 -69l139 -463h8l126 372l-51 160h105l16 -79l140 -453h7l156 457l15 75h97z
" />
    <glyph glyph-name="AEacute" unicode="&#x1fc;" horiz-adv-x="814" 
d="M424 723l-17 44c66 34 130 67 198 107l10 -2l27 -61l-4 -10c-71 -31 -136 -56 -203 -82zM802 79l-8 -79h-365l-5 72l-24 172l-227 -56l-57 -111l-28 -77h-104l326 642h401l7 -9l-9 -79l-159 5h-93l29 -213l206 47l8 -7l7 -73l-210 -46l25 -185h109l164 6zM389 323
l-31 218h-6l-131 -258z" />
    <glyph glyph-name="Wdieresis" unicode="&#x1e84;" horiz-adv-x="897" 
d="M362 846c32 0 50 -19 50 -51c0 -34 -20 -55 -53 -55s-51 19 -51 52s21 54 54 54zM526 846c32 0 50 -19 50 -51c0 -34 -20 -55 -53 -55s-51 19 -51 52s21 54 54 54zM667 0h-107l-113 345h-8l-117 -345h-108l-194 642h102l10 -69l139 -463h8l126 372l-51 160h105l16 -79
l140 -453h7l156 457l15 75h97z" />
    <glyph glyph-name="Ihookabove" unicode="&#x1ec8;" horiz-adv-x="279" 
d="M132 905c40 0 71 -27 71 -63c0 -26 -16 -47 -54 -78l21 -37l-40 -22l-36 59c32 24 51 50 51 68c0 14 -12 21 -28 21c-18 0 -40 -8 -60 -24l-19 30c28 28 62 46 94 46zM186 202l4 -202h-104l7 193l-7 449h106z" />
    <glyph glyph-name="Wgrave" unicode="&#x1e80;" horiz-adv-x="897" 
d="M352 873l10 2c68 -40 132 -73 198 -107l-17 -44l-11 -4c-67 26 -132 51 -203 82l-4 10zM667 0h-107l-113 345h-8l-117 -345h-108l-194 642h102l10 -69l139 -463h8l126 372l-51 160h105l16 -79l140 -453h7l156 457l15 75h97z" />
    <glyph glyph-name="Cacute" unicode="&#x106;" horiz-adv-x="519" 
d="M430 872l27 -61l-4 -10c-71 -31 -136 -56 -203 -82l-11 4l-17 44c66 34 130 67 198 107zM327 649c67 0 125 -16 173 -44l-19 -91l-10 -3c-41 32 -91 52 -148 52c-117 0 -181 -79 -181 -237c0 -163 66 -247 181 -247c56 0 114 20 160 55l10 -6l-8 -94
c-55 -27 -108 -42 -170 -42c-180 0 -281 116 -281 323c0 214 107 334 293 334z" />
    <glyph glyph-name="Imacron" unicode="&#x12a;" horiz-adv-x="279" 
d="M255 819l-5 -59h-220l-7 8l5 58h220zM186 202l4 -202h-104l7 193l-7 449h106z" />
    <glyph glyph-name="Iogonek" unicode="&#x12e;" horiz-adv-x="279" 
d="M185 -111l9 -54c-24 -21 -49 -32 -77 -32c-49 0 -81 32 -81 82c0 31 11 59 51 115h-1l7 193l-7 449h106l-6 -440l4 -202h-45c-36 -53 -47 -78 -47 -99c0 -23 13 -35 33 -35c16 0 32 9 46 23h8z" />
    <glyph glyph-name="Ccaron" unicode="&#x10c;" horiz-adv-x="519" 
d="M432 860l20 -43c-45 -30 -86 -62 -124 -96h-24c-38 34 -80 66 -124 96l19 43h11c36 -22 71 -43 106 -66c34 23 69 44 105 66h11zM327 649c67 0 125 -16 173 -44l-19 -91l-10 -3c-41 32 -91 52 -148 52c-117 0 -181 -79 -181 -237c0 -163 66 -247 181 -247
c56 0 114 20 160 55l10 -6l-8 -94c-55 -27 -108 -42 -170 -42c-180 0 -281 116 -281 323c0 214 107 334 293 334z" />
    <glyph glyph-name="Ycircumflex" unicode="&#x176;" horiz-adv-x="541" 
d="M150 731l-20 43c45 30 86 62 124 96h24c38 -34 80 -66 124 -96l-19 -43h-11c-36 22 -71 43 -106 66c-34 -23 -69 -44 -105 -66h-11zM310 184l4 -184h-104l7 184l-1 40l-205 418h110l13 -40l128 -269h8l140 267l16 42h109l-224 -417z" />
    <glyph glyph-name="Ccircumflex" unicode="&#x108;" horiz-adv-x="519" 
d="M199 731l-20 43c45 30 86 62 124 96h24c38 -34 80 -66 124 -96l-19 -43h-11c-36 22 -71 43 -106 66c-34 -23 -69 -44 -105 -66h-11zM327 649c67 0 125 -16 173 -44l-19 -91l-10 -3c-41 32 -91 52 -148 52c-117 0 -181 -79 -181 -237c0 -163 66 -247 181 -247
c56 0 114 20 160 55l10 -6l-8 -94c-55 -27 -108 -42 -170 -42c-180 0 -281 116 -281 323c0 214 107 334 293 334z" />
    <glyph glyph-name="Racute" unicode="&#x154;" horiz-adv-x="570" 
d="M228 701l-26 40c59 48 113 93 171 148l10 -1l38 -54l-2 -10c-63 -46 -121 -85 -181 -124zM380 257c50 -79 103 -156 161 -233l-1 -12c-32 -11 -64 -18 -98 -21l-13 8c-46 75 -92 152 -134 230h-109v-27l4 -202h-104l7 193l-7 449l218 1c129 0 202 -66 202 -187
c0 -86 -47 -157 -126 -199zM188 313l110 -3c66 20 101 65 101 138c0 76 -42 111 -124 114l-84 -3z" />
    <glyph glyph-name="Rcaron" unicode="&#x158;" horiz-adv-x="570" 
d="M299 704h-26c-41 47 -85 95 -129 137l27 40h10c40 -35 75 -67 105 -100c31 33 66 65 105 100h11l27 -40c-41 -39 -85 -86 -130 -137zM380 257c50 -79 103 -156 161 -233l-1 -12c-32 -11 -64 -18 -98 -21l-13 8c-46 75 -92 152 -134 230h-109v-27l4 -202h-104l7 193
l-7 449l218 1c129 0 202 -66 202 -187c0 -86 -47 -157 -126 -199zM188 313l110 -3c66 20 101 65 101 138c0 76 -42 111 -124 114l-84 -3z" />
    <glyph glyph-name="Jcircumflex" unicode="&#x134;" horiz-adv-x="321" 
d="M128 870h24c38 -34 80 -66 124 -96l-19 -43h-11c-36 22 -71 43 -106 66c-34 -23 -69 -44 -105 -66h-11l-20 43c45 30 86 62 124 96zM236 642l-6 -430l2 -93c0 -104 -48 -164 -182 -223l-36 57v11c87 45 123 83 123 155v83l-5 360l-118 -1l-8 8l5 73h225z" />
    <glyph glyph-name="Cdotaccent" unicode="&#x10a;" horiz-adv-x="519" 
d="M316 857c34 0 53 -21 53 -55c0 -36 -22 -59 -56 -59c-35 0 -55 21 -55 56s22 58 58 58zM327 649c67 0 125 -16 173 -44l-19 -91l-10 -3c-41 32 -91 52 -148 52c-117 0 -181 -79 -181 -237c0 -163 66 -247 181 -247c56 0 114 20 160 55l10 -6l-8 -94
c-55 -27 -108 -42 -170 -42c-180 0 -281 116 -281 323c0 214 107 334 293 334z" />
    <glyph glyph-name="Ydotbelow" unicode="&#x1ef4;" horiz-adv-x="541" 
d="M216 224l-205 418h110l13 -40l128 -269h8l140 267l16 42h109l-224 -417l-1 -41l4 -184h-104l7 184zM264 -62c34 0 53 -21 53 -55c0 -36 -22 -59 -56 -59c-35 0 -55 21 -55 56s22 58 58 58z" />
    <glyph glyph-name="Rcommaaccent" unicode="&#x156;" horiz-adv-x="570" 
d="M380 257c50 -79 103 -156 161 -233l-1 -12c-32 -11 -64 -18 -98 -21l-13 8c-46 75 -92 152 -134 230h-109v-27l4 -202h-104l7 193l-7 449l218 1c129 0 202 -66 202 -187c0 -86 -47 -157 -126 -199zM188 313l110 -3c66 20 101 65 101 138c0 76 -42 111 -124 114l-84 -3z
M312 -49c25 -18 39 -41 39 -68c0 -46 -32 -92 -97 -138l-31 28v7c33 27 51 55 51 84c0 19 -10 35 -29 49v8c20 13 42 23 67 30z" />
    <glyph glyph-name="Kcommaaccent" unicode="&#x136;" horiz-adv-x="562" 
d="M185 202l4 -202h-104l7 193l-7 449h106zM548 642l-246 -302c81 -109 171 -218 264 -318l-1 -12c-34 -9 -66 -15 -100 -19l-12 6c-90 109 -178 221 -259 338v6l201 243l38 58h115zM318 -49c25 -18 39 -41 39 -68c0 -46 -32 -92 -97 -138l-31 28v7c33 27 51 55 51 84
c0 19 -10 35 -29 49v8c20 13 42 23 67 30z" />
    <glyph glyph-name="Ygrave" unicode="&#x1ef2;" horiz-adv-x="541" 
d="M367 724l-11 -4c-67 26 -132 51 -203 82l-4 10l27 61l10 2c68 -40 132 -73 198 -107zM310 184l4 -184h-104l7 184l-1 40l-205 418h110l13 -40l128 -269h8l140 267l16 42h109l-224 -417z" />
    <glyph glyph-name="Yhookabove" unicode="&#x1ef6;" horiz-adv-x="541" 
d="M244 853c-18 0 -40 -8 -60 -24l-19 30c28 28 62 46 94 46c40 0 71 -27 71 -63c0 -26 -16 -47 -54 -78l21 -37l-40 -22l-36 59c32 24 51 50 51 68c0 14 -12 21 -28 21zM310 184l4 -184h-104l7 184l-1 40l-205 418h110l13 -40l128 -269h8l140 267l16 42h109l-224 -417z" />
    <glyph glyph-name="Sacute" unicode="&#x15a;" horiz-adv-x="483" 
d="M351 888l38 -54l-2 -10c-63 -46 -121 -85 -181 -124l-10 1l-26 40c59 48 113 93 171 148zM275 649c41 0 94 -8 151 -32l-16 -94l-16 -6c-42 31 -90 49 -132 49c-68 0 -106 -46 -106 -90c0 -118 288 -107 288 -294c0 -104 -89 -190 -226 -190c-58 0 -123 15 -180 43
l14 102l12 6c52 -49 118 -70 165 -70c72 0 113 46 113 93c0 125 -288 108 -288 296c0 105 90 187 221 187z" />
    <glyph glyph-name="Dcaron" unicode="&#x10e;" horiz-adv-x="650" 
d="M330 721h-24c-38 34 -80 66 -124 96l19 43h11c36 -22 71 -43 106 -66c34 23 69 44 105 66h11l20 -43c-45 -30 -86 -62 -124 -96zM87 642l243 4c184 0 286 -107 286 -302c0 -226 -112 -350 -314 -350c-43 0 -156 3 -215 6h-1l7 193l-7 449h1zM320 76c120 0 189 78 189 245
c0 166 -63 241 -187 241c-21 0 -92 -2 -131 -4l-5 -356l2 -119c45 -4 111 -7 132 -7z" />
    <glyph glyph-name="Dcroat" unicode="&#x110;" horiz-adv-x="650" 
d="M177 760l-7 8l5 58h282l7 -7l-5 -59h-282zM87 642l243 4c184 0 286 -107 286 -302c0 -226 -112 -350 -314 -350c-43 0 -156 3 -215 6h-1l7 193l-7 449h1zM320 76c120 0 189 78 189 245c0 166 -63 241 -187 241c-21 0 -92 -2 -131 -4l-5 -356l2 -119c45 -4 111 -7 132 -7z
" />
    <glyph glyph-name="Lacute" unicode="&#x139;" horiz-adv-x="423" 
d="M133 723l-17 44c66 34 130 67 198 107l10 -2l27 -61l-4 -10c-71 -31 -136 -56 -203 -82zM421 77l-8 -77h-330l7 193l-7 449h106l-6 -440l2 -116h229z" />
    <glyph glyph-name="Lcaron" unicode="&#x13d;" horiz-adv-x="440" 
d="M421 77l-8 -77h-330l7 193l-7 449h106l-6 -440l2 -116h229zM326 387l-8 7l2 187l73 5l7 -8l-27 -184z" />
    <glyph glyph-name="Scedilla" unicode="&#x15e;" horiz-adv-x="483" 
d="M444 182c0 -93 -71 -171 -184 -187l-12 -45l34 -20c30 -16 40 -34 40 -57c0 -41 -35 -70 -87 -70c-34 0 -59 14 -77 30l9 47l5 2c18 -19 35 -31 57 -31c17 0 29 9 29 25c0 11 -8 17 -19 22l-49 29l16 65c-55 2 -115 17 -168 43l14 102l12 6c52 -49 118 -70 165 -70
c72 0 113 46 113 93c0 125 -288 108 -288 296c0 105 90 187 221 187c41 0 94 -8 151 -32l-16 -94l-16 -6c-42 31 -90 49 -132 49c-68 0 -106 -46 -106 -90c0 -118 288 -107 288 -294z" />
    <glyph glyph-name="Scircumflex" unicode="&#x15c;" horiz-adv-x="483" 
d="M138 705l-27 40c41 39 85 86 130 137h26c41 -47 85 -95 129 -137l-27 -40h-10c-40 35 -75 67 -105 100c-31 -33 -66 -65 -105 -100h-11zM275 649c41 0 94 -8 151 -32l-16 -94l-16 -6c-42 31 -90 49 -132 49c-68 0 -106 -46 -106 -90c0 -118 288 -107 288 -294
c0 -104 -89 -190 -226 -190c-58 0 -123 15 -180 43l14 102l12 6c52 -49 118 -70 165 -70c72 0 113 46 113 93c0 125 -288 108 -288 296c0 105 90 187 221 187z" />
    <glyph glyph-name="Lcommaaccent" unicode="&#x13b;" horiz-adv-x="423" 
d="M421 77l-8 -77h-330l7 193l-7 449h106l-6 -440l2 -116h229zM261 -49c25 -18 39 -41 39 -68c0 -46 -32 -92 -97 -138l-31 28v7c33 27 51 55 51 84c0 19 -10 35 -29 49v8c20 13 42 23 67 30z" />
    <glyph glyph-name="Zacute" unicode="&#x179;" horiz-adv-x="536" 
d="M388 872l27 -61l-4 -10c-71 -31 -136 -56 -203 -82l-11 4l-17 44c66 34 130 67 198 107zM497 567l-343 -486h244l102 8l4 -6l-8 -85l-130 2h-270l-65 -3v75l344 488h-227l-103 -8l-5 6l8 85l394 -1l55 1v-76z" />
    <glyph glyph-name="Ebreve" unicode="&#x114;" horiz-adv-x="493" 
d="M276 723c-67 0 -114 35 -135 97l26 33h15c15 -37 50 -58 97 -58c46 0 79 21 95 58h15l25 -33c-22 -62 -72 -97 -138 -97zM466 88l6 -9l-7 -79h-379l7 193l-7 449h381l6 -9l-8 -79l-152 4l-122 -1l-3 -187l116 -2l106 3l7 -8l-8 -79l-113 3l-109 -2l-1 -83l2 -118l123 -1z
" />
    <glyph glyph-name="Ldot" unicode="&#x13f;" horiz-adv-x="431" 
d="M421 77l-8 -77h-330l7 193l-7 449h106l-6 -440l2 -116h229zM348 325c-35 0 -55 21 -55 56s22 58 58 58c34 0 53 -21 53 -55c0 -36 -22 -59 -56 -59z" />
    <glyph glyph-name="Scommaaccent" unicode="&#x218;" horiz-adv-x="483" 
d="M275 649c41 0 94 -8 151 -32l-16 -94l-16 -6c-42 31 -90 49 -132 49c-68 0 -106 -46 -106 -90c0 -118 288 -107 288 -294c0 -104 -89 -190 -226 -190c-58 0 -123 15 -180 43l14 102l12 6c52 -49 118 -70 165 -70c72 0 113 46 113 93c0 125 -288 108 -288 296
c0 105 90 187 221 187zM260 -49c25 -18 39 -41 39 -68c0 -46 -32 -92 -97 -138l-31 28v7c33 27 51 55 51 84c0 19 -10 35 -29 49v8c20 13 42 23 67 30z" />
    <glyph glyph-name="Germandbls" unicode="&#x1e9e;" horiz-adv-x="647" 
d="M328 649c86 0 163 -26 246 -65l4 -18l-157 -196c129 -49 200 -95 200 -196c0 -117 -93 -182 -207 -182c-56 0 -118 15 -171 43l14 102l12 6c48 -43 105 -70 153 -70c58 0 97 38 97 90c0 64 -62 104 -220 154l-5 19l155 199c-46 21 -85 30 -126 30
c-100 0 -153 -53 -154 -145l-2 -218l4 -202h-104l7 190l-3 230c-2 137 94 229 257 229z" />
    <glyph glyph-name="Zdotaccent" unicode="&#x17b;" horiz-adv-x="536" 
d="M274 857c34 0 53 -21 53 -55c0 -36 -22 -59 -56 -59c-35 0 -55 21 -55 56s22 58 58 58zM497 567l-343 -486h244l102 8l4 -6l-8 -85l-130 2h-270l-65 -3v75l344 488h-227l-103 -8l-5 6l8 85l394 -1l55 1v-76z" />
    <glyph glyph-name="Ecaron" unicode="&#x11a;" horiz-adv-x="493" 
d="M291 721h-24c-38 34 -80 66 -124 96l19 43h11c36 -22 71 -43 106 -66c34 23 69 44 105 66h11l20 -43c-45 -30 -86 -62 -124 -96zM466 88l6 -9l-7 -79h-379l7 193l-7 449h381l6 -9l-8 -79l-152 4l-122 -1l-3 -187l116 -2l106 3l7 -8l-8 -79l-113 3l-109 -2l-1 -83l2 -118
l123 -1z" />
    <glyph glyph-name="Iacute_J.loclNLD" horiz-adv-x="601" 
d="M255 872l27 -61l-4 -10c-71 -31 -136 -56 -203 -82l-11 4l-17 44c66 34 130 67 198 107zM562 811l-4 -10c-71 -31 -136 -56 -203 -82l-11 4l-17 44c66 34 130 67 198 107l10 -2zM192 642l-6 -440l4 -202h-104l7 193l-7 449h106zM514 642l-6 -430l2 -93
c0 -104 -47 -164 -181 -223l-36 57v11c87 45 122 83 122 155v83l-4 360l-117 -1l-9 8l6 73h223z" />
    <glyph glyph-name="C.ss01" horiz-adv-x="458" 
d="M277 423c-87 0 -134 -53 -134 -167c0 -116 48 -176 137 -176c44 0 91 15 126 39l10 -5l-7 -74h149v-40h-658v40h234c-58 40 -89 110 -89 207c0 100 34 173 96 214h-241v40h658v-40h-136l-16 -75l-9 -3c-31 24 -74 40 -120 40z" />
    <glyph glyph-name="Ecircumflexacute" unicode="&#x1ebe;" horiz-adv-x="493" 
d="M367 825l-35 28l70 111l8 3l51 -24l1 -9l-87 -109h-8zM161 711l-20 43c45 30 86 62 124 96h24c38 -34 80 -66 124 -96l-19 -43h-11c-36 22 -71 43 -106 66c-34 -23 -69 -44 -105 -66h-11zM466 88l6 -9l-7 -79h-379l7 193l-7 449h381l6 -9l-8 -79l-152 4l-122 -1l-3 -187
l116 -2l106 3l7 -8l-8 -79l-113 3l-109 -2l-1 -83l2 -118l123 -1z" />
    <glyph glyph-name="Tbar" unicode="&#x166;" horiz-adv-x="495" 
d="M301 561l-2 -218h101l8 -7l-4 -53h-106l-1 -81l4 -202h-104l7 193l-1 90h-94l-7 7l4 53h96l-4 218h-54l-118 -6l-7 9l8 78h444l6 -9l-6 -78l-116 6h-54z" />
    <glyph glyph-name="Tcaron" unicode="&#x164;" horiz-adv-x="495" 
d="M264 704h-26c-41 47 -85 95 -129 137l27 40h10c40 -35 75 -67 105 -100c31 33 66 65 105 100h11l27 -40c-41 -39 -85 -86 -130 -137zM477 633l-6 -78l-116 6h-54l-4 -359l4 -202h-104l7 193l-6 368h-54l-118 -6l-7 9l8 78h444z" />
    <glyph glyph-name="Nacute" unicode="&#x143;" horiz-adv-x="688" 
d="M458 872l27 -61l-4 -10c-71 -31 -136 -56 -203 -82l-11 4l-17 44c66 34 130 67 198 107zM595 192l3 -192h-110l-302 481h-7l-1 -266l4 -215h-96l7 190l-5 452h110l302 -481h7l-2 476l97 7z" />
    <glyph glyph-name="D.ss01" horiz-adv-x="567" 
d="M667 461h-236c59 -38 90 -104 90 -194c0 -107 -36 -184 -103 -227h249v-40h-767v40h190l3 112l-4 309h-189v40h767v-40zM282 75c89 0 143 53 143 172c0 121 -47 173 -143 173c-16 0 -70 -2 -100 -4l-3 -255l2 -80c31 -3 83 -6 101 -6z" />
    <glyph glyph-name="Ecircumflexdotbelow" unicode="&#x1ec6;" horiz-adv-x="493" 
d="M162 731l-20 43c45 30 86 62 124 96h24c38 -34 80 -66 124 -96l-19 -43h-11c-36 22 -71 43 -106 66c-34 -23 -69 -44 -105 -66h-11zM466 88l6 -9l-7 -79h-379l7 193l-7 449h381l6 -9l-8 -79l-152 4l-122 -1l-3 -187l116 -2l106 3l7 -8l-8 -79l-113 3l-109 -2l-1 -83
l2 -118l123 -1zM288 -62c34 0 53 -21 53 -55c0 -36 -22 -59 -56 -59c-35 0 -55 21 -55 56s22 58 58 58z" />
    <glyph glyph-name="I.ss01" horiz-adv-x="267" 
d="M175 159l3 -119h189v-40h-467v40h184l3 110l-4 311h-183v40h467v-40h-188z" />
    <glyph glyph-name="Ncaron" unicode="&#x147;" horiz-adv-x="688" 
d="M459 860l20 -43c-45 -30 -86 -62 -124 -96h-24c-38 34 -80 66 -124 96l19 43h11c36 -22 71 -43 106 -66c34 23 69 44 105 66h11zM595 192l3 -192h-110l-302 481h-7l-1 -266l4 -215h-96l7 190l-5 452h110l302 -481h7l-2 476l97 7z" />
    <glyph glyph-name="Tcedilla" unicode="&#x162;" horiz-adv-x="495" 
d="M477 633l-6 -78l-116 6h-54l-4 -359l4 -202h-29l-14 -50l34 -20c30 -16 40 -34 40 -57c0 -41 -35 -70 -87 -70c-34 0 -59 14 -77 30l9 47l5 2c18 -19 35 -31 57 -31c17 0 29 9 29 25c0 11 -8 17 -19 22l-49 29l18 73h-21l7 193l-6 368h-54l-118 -6l-7 9l8 78h444z" />
    <glyph glyph-name="Ecircumflexgrave" unicode="&#x1ec0;" horiz-adv-x="493" 
d="M382 825l-87 109l1 9l52 24l7 -3l70 -111l-35 -28h-8zM161 711l-20 43c45 30 86 62 124 96h24c38 -34 80 -66 124 -96l-19 -43h-11c-36 22 -71 43 -106 66c-34 -23 -69 -44 -105 -66h-11zM466 88l6 -9l-7 -79h-379l7 193l-7 449h381l6 -9l-8 -79l-152 4l-122 -1l-3 -187
l116 -2l106 3l7 -8l-8 -79l-113 3l-109 -2l-1 -83l2 -118l123 -1z" />
    <glyph glyph-name="Tcommaaccent" unicode="&#x21a;" horiz-adv-x="495" 
d="M477 633l-6 -78l-116 6h-54l-4 -359l4 -202h-104l7 193l-6 368h-54l-118 -6l-7 9l8 78h444zM270 -49c25 -18 39 -41 39 -68c0 -46 -32 -92 -97 -138l-31 28v7c33 27 51 55 51 84c0 19 -10 35 -29 49v8c20 13 42 23 67 30z" />
    <glyph glyph-name="Ncommaaccent" unicode="&#x145;" horiz-adv-x="688" 
d="M595 192l3 -192h-110l-302 481h-7l-1 -266l4 -215h-96l7 190l-5 452h110l302 -481h7l-2 476l97 7zM368 -49c25 -18 39 -41 39 -68c0 -46 -32 -92 -97 -138l-31 28v7c33 27 51 55 51 84c0 19 -10 35 -29 49v8c20 13 42 23 67 30z" />
    <glyph glyph-name="L.ss01" horiz-adv-x="384" 
d="M177 461l-4 -300l2 -78h181l6 -7l-4 -36h126v-40h-584v40h184l3 112l-4 309h-183v40h584v-40h-307z" />
    <glyph glyph-name="Ecircumflexhookabove" unicode="&#x1ec2;" horiz-adv-x="493" 
d="M361 959c-17 0 -39 -8 -57 -23l-18 28c26 27 58 44 89 44c38 0 67 -25 67 -60c0 -24 -15 -44 -51 -74l20 -35l-38 -22l-34 57c30 23 48 48 48 64c0 14 -11 21 -26 21zM161 711l-20 43c45 30 86 62 124 96h24c38 -34 80 -66 124 -96l-19 -43h-11c-36 22 -71 43 -106 66
c-34 -23 -69 -44 -105 -66h-11zM466 88l6 -9l-7 -79h-379l7 193l-7 449h381l6 -9l-8 -79l-152 4l-122 -1l-3 -187l116 -2l106 3l7 -8l-8 -79l-113 3l-109 -2l-1 -83l2 -118l123 -1z" />
    <glyph glyph-name="Ecircumflextilde" unicode="&#x1ec4;" horiz-adv-x="493" 
d="M382 825l-87 109l1 9l52 24l7 -3l70 -111l-35 -28h-8zM161 711l-20 43c45 30 86 62 124 96h24c38 -34 80 -66 124 -96l-19 -43h-11c-36 22 -71 43 -106 66c-34 -23 -69 -44 -105 -66h-11zM466 88l6 -9l-7 -79h-379l7 193l-7 449h381l6 -9l-8 -79l-152 4l-122 -1l-3 -187
l116 -2l106 3l7 -8l-8 -79l-113 3l-109 -2l-1 -83l2 -118l123 -1z" />
    <glyph glyph-name="M.ss01" horiz-adv-x="684" 
d="M568 461l41 -421h175v-40h-884v40h170l45 421h-215v40h884v-40h-216zM451 461h-217l13 -37l89 -221h7l94 221zM529 40l-8 127l-20 193h-6l-124 -275h-73l-115 275h-6l-21 -187l-9 -133h382z" />
    <glyph glyph-name="Eng" unicode="&#x14a;" horiz-adv-x="688" 
d="M595 192l2 -135c0 -104 -47 -164 -181 -222l-36 56v11c60 32 95 61 112 99l-305 480h-8l-1 -266l5 -215h-97l7 190l-5 452h110l302 -476h8l-3 471l97 7z" />
    <glyph glyph-name="V.ss01" horiz-adv-x="508" 
d="M474 461l-156 -421h290v-40h-708v40h284l-142 421h-142v40h708v-40h-134zM386 461h-253l6 -28l111 -338h6l124 333z" />
    <glyph glyph-name="Ubreve" unicode="&#x16c;" horiz-adv-x="631" 
d="M430 864l25 -36c-17 -70 -61 -119 -139 -119c-77 0 -118 51 -134 119l26 36h15c14 -55 48 -83 96 -83c49 0 82 28 96 83h15zM560 316l-1 -76c2 -157 -89 -248 -252 -248c-155 0 -241 86 -238 240l1 89l-1 321h102l-4 -396c-1 -112 48 -166 147 -166s151 51 150 156
l-5 406h104z" />
    <glyph glyph-name="X.ss01" horiz-adv-x="527" 
d="M322 263l150 -223h155v-40h-727v40h160l148 210l-145 211h-163v40h727v-40h-168zM268 319l91 125l8 17h-198l10 -20zM261 193l-101 -135l-10 -18h217l-12 23z" />
    <glyph glyph-name="eng" unicode="&#x14b;" horiz-adv-x="600" 
d="M512 153l2 -114c0 -80 -30 -124 -123 -168l-32 40v10c35 24 55 46 61 77l-246 354h-7v-182l3 -170h-87l4 147l-3 354h102l237 -342h8l-3 339l89 5z" />
    <glyph glyph-name="edotaccent" unicode="&#x117;" horiz-adv-x="444" 
d="M244 602c-35 0 -55 21 -55 56s22 58 58 58c34 0 53 -21 53 -55c0 -36 -22 -59 -56 -59zM406 80l6 -7l-7 -73h-322l4 150l-4 351h324l6 -8l-7 -73l-127 5l-100 -1l-2 -130l96 -1l87 3l6 -8l-7 -74l-94 3l-89 -1l-1 -57l2 -82l94 -1z" />
    <glyph glyph-name="edotbelow" unicode="&#x1eb9;" horiz-adv-x="444" 
d="M406 80l6 -7l-7 -73h-322l4 150l-4 351h324l6 -8l-7 -73l-127 5l-100 -1l-2 -130l96 -1l87 3l6 -8l-7 -74l-94 3l-89 -1l-1 -57l2 -82l94 -1zM250 -62c34 0 53 -21 53 -55c0 -36 -22 -59 -56 -59c-35 0 -55 21 -55 56s22 58 58 58z" />
    <glyph glyph-name="abreve" unicode="&#x103;" horiz-adv-x="519" 
d="M263 568c-77 0 -118 51 -134 119l26 36h15c14 -55 48 -83 96 -83c49 0 82 28 96 83h15l25 -36c-17 -70 -61 -119 -139 -119zM489 0h-98l-12 62l-18 55l-113 1l-99 -1l-19 -50l-15 -67h-94l186 501h112zM336 192l-72 219h-6l-81 -219l78 -1z" />
    <glyph glyph-name="abreveacute" unicode="&#x1eaf;" horiz-adv-x="519" 
d="M254 684l-33 28c30 37 60 75 89 115l9 2l47 -32l1 -9c-34 -35 -68 -68 -104 -102zM263 562c-67 0 -114 35 -135 97l26 33h15c15 -37 50 -58 97 -58c46 0 79 21 95 58h15l25 -33c-22 -62 -72 -97 -138 -97zM489 0h-98l-12 62l-18 55l-113 1l-99 -1l-19 -50l-15 -67h-94
l186 501h112zM336 192l-72 219h-6l-81 -219l78 -1z" />
    <glyph glyph-name="ubreve" unicode="&#x16d;" horiz-adv-x="552" 
d="M390 723l25 -36c-17 -70 -61 -119 -139 -119c-77 0 -118 51 -134 119l26 36h15c14 -55 48 -83 96 -83c49 0 82 28 96 83h15zM482 246v-74c1 -114 -76 -179 -210 -179c-133 0 -206 64 -203 179l1 77l-2 252h97l-6 -314c-1 -76 38 -114 116 -114s118 38 117 114l-4 314h97z
" />
    <glyph glyph-name="abrevedotbelow" unicode="&#x1eb7;" horiz-adv-x="519" 
d="M263 568c-77 0 -118 51 -134 119l26 36h15c14 -55 48 -83 96 -83c49 0 82 28 96 83h15l25 -36c-17 -70 -61 -119 -139 -119zM489 0h-98l-12 62l-18 55l-113 1l-99 -1l-19 -50l-15 -67h-94l186 501h112zM336 192l-72 219h-6l-81 -219l78 -1zM259 -62c34 0 53 -21 53 -55
c0 -36 -22 -59 -56 -59c-35 0 -55 21 -55 56s22 58 58 58z" />
    <glyph glyph-name="ehookabove" unicode="&#x1ebb;" horiz-adv-x="444" 
d="M223 712c-18 0 -40 -8 -60 -24l-19 30c28 28 62 46 94 46c40 0 71 -27 71 -63c0 -26 -16 -47 -54 -78l21 -37l-40 -22l-36 59c32 24 51 50 51 68c0 14 -12 21 -28 21zM406 80l6 -7l-7 -73h-322l4 150l-4 351h324l6 -8l-7 -73l-127 5l-100 -1l-2 -130l96 -1l87 3l6 -8
l-7 -74l-94 3l-89 -1l-1 -57l2 -82l94 -1z" />
    <glyph glyph-name="ucaron" unicode="&#x1d4;" horiz-adv-x="552" 
d="M394 740l27 -40c-41 -39 -85 -86 -130 -137h-26c-41 47 -85 95 -129 137l27 40h10c40 -35 75 -67 105 -100c31 33 66 65 105 100h11zM482 246v-74c1 -114 -76 -179 -210 -179c-133 0 -206 64 -203 179l1 77l-2 252h97l-6 -314c-1 -76 38 -114 116 -114s118 38 117 114
l-4 314h97z" />
    <glyph glyph-name="obreve" unicode="&#x14f;" horiz-adv-x="558" 
d="M393 723l25 -36c-17 -70 -61 -119 -139 -119c-77 0 -118 51 -134 119l26 36h15c14 -55 48 -83 96 -83c49 0 82 28 96 83h15zM288 508c147 0 231 -90 231 -246c0 -173 -90 -270 -248 -270c-148 0 -231 92 -231 253c0 168 89 263 248 263zM279 429
c-95 0 -139 -49 -139 -172c0 -136 44 -187 138 -187c96 0 141 49 141 173c0 134 -43 186 -140 186z" />
    <glyph glyph-name="emacron" unicode="&#x113;" horiz-adv-x="444" 
d="M105 619l-7 8l5 58h282l7 -7l-5 -59h-282zM406 80l6 -7l-7 -73h-322l4 150l-4 351h324l6 -8l-7 -73l-127 5l-100 -1l-2 -130l96 -1l87 3l6 -8l-7 -74l-94 3l-89 -1l-1 -57l2 -82l94 -1z" />
    <glyph glyph-name="abrevegrave" unicode="&#x1eb1;" horiz-adv-x="519" 
d="M274 684l-10 2c-34 34 -69 67 -102 102v9l48 32l8 -2c30 -40 58 -78 90 -115zM263 562c-67 0 -114 35 -135 97l26 33h15c15 -37 50 -58 97 -58c46 0 79 21 95 58h15l25 -33c-22 -62 -72 -97 -138 -97zM489 0h-98l-12 62l-18 55l-113 1l-99 -1l-19 -50l-15 -67h-94
l186 501h112zM336 192l-72 219h-6l-81 -219l78 -1z" />
    <glyph glyph-name="abrevehookabove" unicode="&#x1eb3;" horiz-adv-x="519" 
d="M248 829c-18 0 -40 -8 -60 -24l-19 30c28 28 62 46 94 46c40 0 71 -27 71 -63c0 -26 -16 -47 -54 -78l21 -37l-40 -22l-36 59c32 24 51 50 51 68c0 14 -12 21 -28 21zM263 562c-67 0 -114 35 -135 97l26 33h15c15 -37 50 -58 97 -58c46 0 79 21 95 58h15l25 -33
c-22 -62 -72 -97 -138 -97zM489 0h-98l-12 62l-18 55l-113 1l-99 -1l-19 -50l-15 -67h-94l186 501h112zM336 192l-72 219h-6l-81 -219l78 -1z" />
    <glyph glyph-name="eogonek" unicode="&#x119;" horiz-adv-x="444" 
d="M338 0l-32 -49c-11 -17 -17 -33 -17 -48c0 -22 13 -39 39 -39c21 0 45 13 67 35h6l11 -47c-35 -34 -65 -51 -100 -51c-52 0 -85 35 -85 83c0 25 9 51 27 78l27 38h-198l4 150l-4 351h324l6 -8l-7 -73l-127 5l-100 -1l-2 -130l96 -1l87 3l6 -8l-7 -74l-94 3l-89 -1l-1 -57
l2 -82l94 -1l135 4l6 -7l-7 -73h-67z" />
    <glyph glyph-name="ocaron" unicode="&#x1d2;" horiz-adv-x="558" 
d="M397 740l27 -40c-41 -39 -85 -86 -130 -137h-26c-41 47 -85 95 -129 137l27 40h10c40 -35 75 -67 105 -100c31 33 66 65 105 100h11zM288 508c147 0 231 -90 231 -246c0 -173 -90 -270 -248 -270c-148 0 -231 92 -231 253c0 168 89 263 248 263zM279 429
c-95 0 -139 -49 -139 -172c0 -136 44 -187 138 -187c96 0 141 49 141 173c0 134 -43 186 -140 186z" />
    <glyph glyph-name="abrevetilde" unicode="&#x1eb5;" horiz-adv-x="519" 
d="M143 720l-29 30v9l61 74l10 4c41 -5 121 -35 144 -35c17 0 32 22 56 47h9l28 -30v-9l-60 -74l-11 -4c-40 5 -120 35 -144 35c-16 0 -32 -22 -55 -47h-9zM269 632c44 0 76 21 91 57h15l25 -33c-22 -60 -70 -93 -134 -93c-65 0 -111 33 -130 93l24 33h15
c15 -36 48 -57 94 -57zM489 0h-98l-12 62l-18 55l-113 1l-99 -1l-19 -50l-15 -67h-94l186 501h112zM336 192l-72 219h-6l-81 -219l78 -1z" />
    <glyph glyph-name="udieresisacute" unicode="&#x1d8;" horiz-adv-x="552" 
d="M379 850l16 -64l-5 -9c-76 -18 -144 -32 -215 -45l-10 5l-9 47c72 21 140 43 214 71zM197 682c30 0 48 -18 48 -49s-20 -52 -52 -52c-30 0 -48 18 -48 49s20 52 52 52zM361 682c30 0 48 -18 48 -49s-20 -52 -52 -52c-30 0 -48 18 -48 49s20 52 52 52zM482 246v-74
c1 -114 -76 -179 -210 -179c-133 0 -206 64 -203 179l1 77l-2 252h97l-6 -314c-1 -76 38 -114 116 -114s118 38 117 114l-4 314h97z" />
    <glyph glyph-name="ocircumflexacute" unicode="&#x1ed1;" horiz-adv-x="558" 
d="M464 802l1 -9l-87 -109h-8l-35 28l70 111l8 3zM164 570l-20 43c45 30 86 62 124 96h24c38 -34 80 -66 124 -96l-19 -43h-11c-36 22 -71 43 -106 66c-34 -23 -69 -44 -105 -66h-11zM288 508c147 0 231 -90 231 -246c0 -173 -90 -270 -248 -270c-148 0 -231 92 -231 253
c0 168 89 263 248 263zM279 429c-95 0 -139 -49 -139 -172c0 -136 44 -187 138 -187c96 0 141 49 141 173c0 134 -43 186 -140 186z" />
    <glyph glyph-name="acaron" unicode="&#x1ce;" horiz-adv-x="519" 
d="M278 563h-26c-41 47 -85 95 -129 137l27 40h10c40 -35 75 -67 105 -100c31 33 66 65 105 100h11l27 -40c-41 -39 -85 -86 -130 -137zM489 0h-98l-12 62l-18 55l-113 1l-99 -1l-19 -50l-15 -67h-94l186 501h112zM336 192l-72 219h-6l-81 -219l78 -1z" />
    <glyph glyph-name="udieresiscaron" unicode="&#x1da;" horiz-adv-x="552" 
d="M394 839l20 -42c-45 -31 -86 -64 -124 -96h-24c-38 32 -80 65 -124 96l19 42h11c36 -22 71 -43 106 -65c34 22 69 43 105 65h11zM197 682c30 0 48 -18 48 -49s-20 -52 -52 -52c-30 0 -48 18 -48 49s20 52 52 52zM361 682c30 0 48 -18 48 -49s-20 -52 -52 -52
c-30 0 -48 18 -48 49s20 52 52 52zM482 246v-74c1 -114 -76 -179 -210 -179c-133 0 -206 64 -203 179l1 77l-2 252h97l-6 -314c-1 -76 38 -114 116 -114s118 38 117 114l-4 314h97z" />
    <glyph glyph-name="udieresisgrave" unicode="&#x1dc;" horiz-adv-x="552" 
d="M171 850l10 5c74 -28 142 -50 214 -71l-10 -47l-10 -5c-69 13 -138 27 -213 45l-6 9zM197 682c30 0 48 -18 48 -49s-20 -52 -52 -52c-30 0 -48 18 -48 49s20 52 52 52zM361 682c30 0 48 -18 48 -49s-20 -52 -52 -52c-30 0 -48 18 -48 49s20 52 52 52zM482 246v-74
c1 -114 -76 -179 -210 -179c-133 0 -206 64 -203 179l1 77l-2 252h97l-6 -314c-1 -76 38 -114 116 -114s118 38 117 114l-4 314h97z" />
    <glyph glyph-name="ocircumflexdotbelow" unicode="&#x1ed9;" horiz-adv-x="558" 
d="M166 564l-27 40c41 39 85 86 130 137h26c41 -47 85 -95 129 -137l-27 -40h-10c-40 35 -75 67 -105 100c-31 -33 -66 -65 -105 -100h-11zM288 508c147 0 231 -90 231 -246c0 -173 -90 -270 -248 -270c-148 0 -231 92 -231 253c0 168 89 263 248 263zM279 429
c-95 0 -139 -49 -139 -172c0 -136 44 -187 138 -187c96 0 141 49 141 173c0 134 -43 186 -140 186zM283 -62c34 0 53 -21 53 -55c0 -36 -22 -59 -56 -59c-35 0 -55 21 -55 56s22 58 58 58z" />
    <glyph glyph-name="gbreve" unicode="&#x11f;" horiz-adv-x="523" 
d="M390 723l25 -36c-17 -70 -61 -119 -139 -119c-77 0 -118 51 -134 119l26 36h15c14 -55 48 -83 96 -83c49 0 82 28 96 83h15zM310 507c55 0 104 -10 158 -31l-29 -91h-10c-50 31 -87 43 -136 43c-102 0 -152 -52 -152 -184c0 -126 45 -173 150 -173c27 0 49 4 87 18v42
l-1 75l88 6l-1 -66v-122c-70 -21 -126 -31 -178 -31c-165 0 -246 91 -246 247c0 174 100 267 270 267z" />
    <glyph glyph-name="ocircumflexgrave" unicode="&#x1ed3;" horiz-adv-x="558" 
d="M358 823l70 -111l-35 -28h-8l-87 109l1 9l52 24zM164 570l-20 43c45 30 86 62 124 96h24c38 -34 80 -66 124 -96l-19 -43h-11c-36 22 -71 43 -106 66c-34 -23 -69 -44 -105 -66h-11zM288 508c147 0 231 -90 231 -246c0 -173 -90 -270 -248 -270c-148 0 -231 92 -231 253
c0 168 89 263 248 263zM279 429c-95 0 -139 -49 -139 -172c0 -136 44 -187 138 -187c96 0 141 49 141 173c0 134 -43 186 -140 186z" />
    <glyph glyph-name="udieresismacron" unicode="&#x1d6;" horiz-adv-x="552" 
d="M418 803l-6 -59h-266l-8 8l6 59h267zM197 682c30 0 48 -18 48 -49s-20 -52 -52 -52c-30 0 -48 18 -48 49s20 52 52 52zM361 682c30 0 48 -18 48 -49s-20 -52 -52 -52c-30 0 -48 18 -48 49s20 52 52 52zM482 246v-74c1 -114 -76 -179 -210 -179c-133 0 -206 64 -203 179
l1 77l-2 252h97l-6 -314c-1 -76 38 -114 116 -114s118 38 117 114l-4 314h97z" />
    <glyph glyph-name="acircumflexacute" unicode="&#x1ea5;" horiz-adv-x="519" 
d="M354 684l-35 28l70 111l8 3l51 -24l1 -9l-87 -109h-8zM148 570l-20 43c45 30 86 62 124 96h24c38 -34 80 -66 124 -96l-19 -43h-11c-36 22 -71 43 -106 66c-34 -23 -69 -44 -105 -66h-11zM489 0h-98l-12 62l-18 55l-113 1l-99 -1l-19 -50l-15 -67h-94l186 501h112z
M336 192l-72 219h-6l-81 -219l78 -1z" />
    <glyph glyph-name="gcircumflex" unicode="&#x11d;" horiz-adv-x="523" 
d="M163 564l-27 40c41 39 85 86 130 137h26c41 -47 85 -95 129 -137l-27 -40h-10c-40 35 -75 67 -105 100c-31 -33 -66 -65 -105 -100h-11zM310 507c55 0 104 -10 158 -31l-29 -91h-10c-50 31 -87 43 -136 43c-102 0 -152 -52 -152 -184c0 -126 45 -173 150 -173
c27 0 49 4 87 18v42l-1 75l88 6l-1 -66v-122c-70 -21 -126 -31 -178 -31c-165 0 -246 91 -246 247c0 174 100 267 270 267z" />
    <glyph glyph-name="gcommaaccent" unicode="&#x123;" horiz-adv-x="523" 
d="M310 507c55 0 104 -10 158 -31l-29 -91h-10c-50 31 -87 43 -136 43c-102 0 -152 -52 -152 -184c0 -126 45 -173 150 -173c27 0 49 4 87 18v42l-1 75l88 6l-1 -66v-122c-70 -21 -126 -31 -178 -31c-165 0 -246 91 -246 247c0 174 100 267 270 267zM293 -49
c25 -18 39 -41 39 -68c0 -46 -32 -92 -97 -138l-31 28v7c33 27 51 55 51 84c0 19 -10 35 -29 49v8c20 13 42 23 67 30z" />
    <glyph glyph-name="acircumflexdotbelow" unicode="&#x1ead;" horiz-adv-x="519" 
d="M150 564l-27 40c41 39 85 86 130 137h26c41 -47 85 -95 129 -137l-27 -40h-10c-40 35 -75 67 -105 100c-31 -33 -66 -65 -105 -100h-11zM489 0h-98l-12 62l-18 55l-113 1l-99 -1l-19 -50l-15 -67h-94l186 501h112zM336 192l-72 219h-6l-81 -219l78 -1zM259 -62
c34 0 53 -21 53 -55c0 -36 -22 -59 -56 -59c-35 0 -55 21 -55 56s22 58 58 58z" />
    <glyph glyph-name="ocircumflexhookabove" unicode="&#x1ed5;" horiz-adv-x="558" 
d="M378 867c38 0 67 -25 67 -60c0 -24 -15 -44 -51 -74l20 -35l-38 -22l-34 57c30 23 48 48 48 64c0 14 -11 21 -26 21c-17 0 -39 -8 -57 -23l-18 28c26 27 58 44 89 44zM164 570l-20 43c45 30 86 62 124 96h24c38 -34 80 -66 124 -96l-19 -43h-11c-36 22 -71 43 -106 66
c-34 -23 -69 -44 -105 -66h-11zM288 508c147 0 231 -90 231 -246c0 -173 -90 -270 -248 -270c-148 0 -231 92 -231 253c0 168 89 263 248 263zM279 429c-95 0 -139 -49 -139 -172c0 -136 44 -187 138 -187c96 0 141 49 141 173c0 134 -43 186 -140 186z" />
    <glyph glyph-name="udotbelow" unicode="&#x1ee5;" horiz-adv-x="552" 
d="M482 246v-74c1 -114 -76 -179 -210 -179c-133 0 -206 64 -203 179l1 77l-2 252h97l-6 -314c-1 -76 38 -114 116 -114s118 38 117 114l-4 314h97zM278 -62c34 0 53 -21 53 -55c0 -36 -22 -59 -56 -59c-35 0 -55 21 -55 56s22 58 58 58z" />
    <glyph glyph-name="acircumflexgrave" unicode="&#x1ea7;" horiz-adv-x="519" 
d="M369 684l-87 109l1 9l52 24l7 -3l70 -111l-35 -28h-8zM148 570l-20 43c45 30 86 62 124 96h24c38 -34 80 -66 124 -96l-19 -43h-11c-36 22 -71 43 -106 66c-34 -23 -69 -44 -105 -66h-11zM489 0h-98l-12 62l-18 55l-113 1l-99 -1l-19 -50l-15 -67h-94l186 501h112z
M336 192l-72 219h-6l-81 -219l78 -1z" />
    <glyph glyph-name="gdotaccent" unicode="&#x121;" horiz-adv-x="523" 
d="M280 716c34 0 53 -21 53 -55c0 -36 -22 -59 -56 -59c-35 0 -55 21 -55 56s22 58 58 58zM310 507c55 0 104 -10 158 -31l-29 -91h-10c-50 31 -87 43 -136 43c-102 0 -152 -52 -152 -184c0 -126 45 -173 150 -173c27 0 49 4 87 18v42l-1 75l88 6l-1 -66v-122
c-70 -21 -126 -31 -178 -31c-165 0 -246 91 -246 247c0 174 100 267 270 267z" />
    <glyph glyph-name="ocircumflextilde" unicode="&#x1ed7;" horiz-adv-x="558" 
d="M438 819v-9l-60 -74l-11 -4c-40 5 -120 35 -144 35c-16 0 -32 -22 -55 -47h-9l-29 30v9l61 74l10 4c41 -5 121 -35 144 -35c17 0 32 22 56 47h9zM164 570l-20 43c45 30 86 62 124 96h24c38 -34 80 -66 124 -96l-19 -43h-11c-36 22 -71 43 -106 66
c-34 -23 -69 -44 -105 -66h-11zM288 508c147 0 231 -90 231 -246c0 -173 -90 -270 -248 -270c-148 0 -231 92 -231 253c0 168 89 263 248 263zM279 429c-95 0 -139 -49 -139 -172c0 -136 44 -187 138 -187c96 0 141 49 141 173c0 134 -43 186 -140 186z" />
    <glyph glyph-name="uhookabove" unicode="&#x1ee7;" horiz-adv-x="552" 
d="M271 764c40 0 71 -27 71 -63c0 -26 -16 -47 -54 -78l21 -37l-40 -22l-36 59c32 24 51 50 51 68c0 14 -12 21 -28 21c-18 0 -40 -8 -60 -24l-19 30c28 28 62 46 94 46zM482 246v-74c1 -114 -76 -179 -210 -179c-133 0 -206 64 -203 179l1 77l-2 252h97l-6 -314
c-1 -76 38 -114 116 -114s118 38 117 114l-4 314h97z" />
    <glyph glyph-name="acircumflexhookabove" unicode="&#x1ea9;" horiz-adv-x="519" 
d="M348 818c-17 0 -39 -8 -57 -23l-18 28c26 27 58 44 89 44c38 0 67 -25 67 -60c0 -24 -15 -44 -51 -74l20 -35l-38 -22l-34 57c30 23 48 48 48 64c0 14 -11 21 -26 21zM148 570l-20 43c45 30 86 62 124 96h24c38 -34 80 -66 124 -96l-19 -43h-11c-36 22 -71 43 -106 66
c-34 -23 -69 -44 -105 -66h-11zM489 0h-98l-12 62l-18 55l-113 1l-99 -1l-19 -50l-15 -67h-94l186 501h112zM336 192l-72 219h-6l-81 -219l78 -1z" />
    <glyph glyph-name="acircumflextilde" unicode="&#x1eab;" horiz-adv-x="519" 
d="M143 720l-29 30v9l61 74l10 4c41 -5 121 -35 144 -35c17 0 32 22 56 47h9l28 -30v-9l-60 -74l-11 -4c-40 5 -120 35 -144 35c-16 0 -32 -22 -55 -47h-9zM252 709h24c38 -34 80 -66 124 -96l-19 -43h-11c-36 22 -71 43 -106 66c-34 -23 -69 -44 -105 -66h-11l-20 43
c45 30 86 62 124 96zM489 0h-98l-12 62l-18 55l-113 1l-99 -1l-19 -50l-15 -67h-94l186 501h112zM336 192l-72 219h-6l-81 -219l78 -1z" />
    <glyph glyph-name="hbar" unicode="&#x127;" horiz-adv-x="625" 
d="M524 364l-2 -205l3 -159h-96l4 150l-1 60l-129 1l-118 -2l-1 -50l3 -159h-96l4 150l-2 214h-52l-4 7l5 51h50l-1 79h98l-1 -79h242l-1 79h97l-1 -79h56l6 -5l-5 -53h-58zM431 364h-244l-1 -71l123 -2l122 1v72z" />
    <glyph glyph-name="odotbelow" unicode="&#x1ecd;" horiz-adv-x="558" 
d="M288 508c147 0 231 -90 231 -246c0 -173 -90 -270 -248 -270c-148 0 -231 92 -231 253c0 168 89 263 248 263zM279 429c-95 0 -139 -49 -139 -172c0 -136 44 -187 138 -187c96 0 141 49 141 173c0 134 -43 186 -140 186zM283 -62c34 0 53 -21 53 -55
c0 -36 -22 -59 -56 -59c-35 0 -55 21 -55 56s22 58 58 58z" />
    <glyph glyph-name="uhorn" unicode="&#x1b0;" horiz-adv-x="562" 
d="M479 246v-74c1 -114 -75 -179 -210 -179c-133 0 -206 64 -203 179l1 77l-2 252h97l-6 -314c-1 -76 38 -114 117 -114c77 0 117 38 116 114l-4 314h48c34 0 51 14 51 39c0 16 -7 32 -26 47l3 8c15 10 30 17 46 17c25 0 52 -27 52 -64c0 -40 -30 -73 -77 -88z" />
    <glyph glyph-name="adotbelow" unicode="&#x1ea1;" horiz-adv-x="519" 
d="M489 0h-98l-12 62l-18 55l-113 1l-99 -1l-19 -50l-15 -67h-94l186 501h112zM336 192l-72 219h-6l-81 -219l78 -1zM259 -62c34 0 53 -21 53 -55c0 -36 -22 -59 -56 -59c-35 0 -55 21 -55 56s22 58 58 58z" />
    <glyph glyph-name="uhornacute" unicode="&#x1ee9;" horiz-adv-x="562" 
d="M193 582l-17 44c66 34 130 67 198 107l10 -2l27 -61l-4 -10c-71 -31 -136 -56 -203 -82zM479 246v-74c1 -114 -75 -179 -210 -179c-133 0 -206 64 -203 179l1 77l-2 252h97l-6 -314c-1 -76 38 -114 117 -114c77 0 117 38 116 114l-4 314h48c34 0 51 14 51 39
c0 16 -7 32 -26 47l3 8c15 10 30 17 46 17c25 0 52 -27 52 -64c0 -40 -30 -73 -77 -88z" />
    <glyph glyph-name="hcircumflex" unicode="&#x125;" horiz-adv-x="600" 
d="M187 564l-27 40c41 39 85 86 130 137h26c41 -47 85 -95 129 -137l-27 -40h-10c-40 35 -75 67 -105 100c-31 -33 -66 -65 -105 -100h-11zM513 159l4 -159h-96l4 150l-1 60l-129 1l-119 -2l-1 -50l4 -159h-96l4 150l-4 351h97l-3 -208l124 -2l122 1l-2 209h97z" />
    <glyph glyph-name="ohookabove" unicode="&#x1ecf;" horiz-adv-x="558" 
d="M274 764c40 0 71 -27 71 -63c0 -26 -16 -47 -54 -78l21 -37l-40 -22l-36 59c32 24 51 50 51 68c0 14 -12 21 -28 21c-18 0 -40 -8 -60 -24l-19 30c28 28 62 46 94 46zM288 508c147 0 231 -90 231 -246c0 -173 -90 -270 -248 -270c-148 0 -231 92 -231 253
c0 168 89 263 248 263zM279 429c-95 0 -139 -49 -139 -172c0 -136 44 -187 138 -187c96 0 141 49 141 173c0 134 -43 186 -140 186z" />
    <glyph glyph-name="uhorndotbelow" unicode="&#x1ef1;" horiz-adv-x="562" 
d="M479 246v-74c1 -114 -75 -179 -210 -179c-133 0 -206 64 -203 179l1 77l-2 252h97l-6 -314c-1 -76 38 -114 117 -114c77 0 117 38 116 114l-4 314h48c34 0 51 14 51 39c0 16 -7 32 -26 47l3 8c15 10 30 17 46 17c25 0 52 -27 52 -64c0 -40 -30 -73 -77 -88zM279 -62
c34 0 53 -21 53 -55c0 -36 -22 -59 -56 -59c-35 0 -55 21 -55 56s22 58 58 58z" />
    <glyph glyph-name="uhorngrave" unicode="&#x1eeb;" horiz-adv-x="562" 
d="M369 583l-11 -4c-67 26 -132 51 -203 82l-4 10l27 61l10 2c68 -40 132 -73 198 -107zM479 246v-74c1 -114 -75 -179 -210 -179c-133 0 -206 64 -203 179l1 77l-2 252h97l-6 -314c-1 -76 38 -114 117 -114c77 0 117 38 116 114l-4 314h48c34 0 51 14 51 39
c0 16 -7 32 -26 47l3 8c15 10 30 17 46 17c25 0 52 -27 52 -64c0 -40 -30 -73 -77 -88z" />
    <glyph glyph-name="ahookabove" unicode="&#x1ea3;" horiz-adv-x="519" 
d="M243 712c-18 0 -40 -8 -60 -24l-19 30c28 28 62 46 94 46c40 0 71 -27 71 -63c0 -26 -16 -47 -54 -78l21 -37l-40 -22l-36 59c32 24 51 50 51 68c0 14 -12 21 -28 21zM489 0h-98l-12 62l-18 55l-113 1l-99 -1l-19 -50l-15 -67h-94l186 501h112zM336 192l-72 219h-6
l-81 -219l78 -1z" />
    <glyph glyph-name="ohorn" unicode="&#x1a1;" horiz-adv-x="564" 
d="M452 577l2 8c14 9 31 18 45 18c26 0 54 -31 54 -75c0 -51 -37 -86 -91 -96c38 -42 57 -99 57 -174c0 -166 -90 -266 -246 -266c-150 0 -233 93 -233 253c0 168 91 263 244 263c75 0 108 -23 145 -23c29 0 50 13 50 40c0 19 -10 37 -27 52zM281 66c94 0 138 52 138 181
c0 131 -44 182 -141 182c-96 0 -138 -51 -138 -178c0 -131 44 -185 141 -185z" />
    <glyph glyph-name="amacron" unicode="&#x101;" horiz-adv-x="519" 
d="M125 619l-7 8l5 58h282l7 -7l-5 -59h-282zM489 0h-98l-12 62l-18 55l-113 1l-99 -1l-19 -50l-15 -67h-94l186 501h112zM336 192l-72 219h-6l-81 -219l78 -1z" />
    <glyph glyph-name="uhornhookabove" unicode="&#x1eed;" horiz-adv-x="562" 
d="M246 712c-18 0 -40 -8 -60 -24l-19 30c28 28 62 46 94 46c40 0 71 -27 71 -63c0 -26 -16 -47 -54 -78l21 -37l-40 -22l-36 59c32 24 51 50 51 68c0 14 -12 21 -28 21zM479 246v-74c1 -114 -75 -179 -210 -179c-133 0 -206 64 -203 179l1 77l-2 252h97l-6 -314
c-1 -76 38 -114 117 -114c77 0 117 38 116 114l-4 314h48c34 0 51 14 51 39c0 16 -7 32 -26 47l3 8c15 10 30 17 46 17c25 0 52 -27 52 -64c0 -40 -30 -73 -77 -88z" />
    <glyph glyph-name="ohornacute" unicode="&#x1edb;" horiz-adv-x="564" 
d="M390 731l27 -61l-4 -10c-71 -31 -136 -56 -203 -82l-11 4l-17 44c66 34 130 67 198 107zM452 577l2 8c14 9 31 18 45 18c26 0 54 -31 54 -75c0 -51 -37 -86 -91 -96c38 -42 57 -99 57 -174c0 -166 -90 -266 -246 -266c-150 0 -233 93 -233 253c0 168 91 263 244 263
c75 0 108 -23 145 -23c29 0 50 13 50 40c0 19 -10 37 -27 52zM281 66c94 0 138 52 138 181c0 131 -44 182 -141 182c-96 0 -138 -51 -138 -178c0 -131 44 -185 141 -185z" />
    <glyph glyph-name="ibreve" unicode="&#x12d;" horiz-adv-x="267" 
d="M247 723l25 -36c-17 -70 -61 -119 -139 -119c-77 0 -118 51 -134 119l26 36h15c14 -55 48 -83 96 -83c49 0 82 28 96 83h15zM175 159l4 -159h-96l4 150l-4 351h97z" />
    <glyph glyph-name="ohorndotbelow" unicode="&#x1ee3;" horiz-adv-x="564" 
d="M452 577l2 8c14 9 31 18 45 18c26 0 54 -31 54 -75c0 -51 -37 -86 -91 -96c38 -42 57 -99 57 -174c0 -166 -90 -266 -246 -266c-150 0 -233 93 -233 253c0 168 91 263 244 263c75 0 108 -23 145 -23c29 0 50 13 50 40c0 19 -10 37 -27 52zM281 66c94 0 138 52 138 181
c0 131 -44 182 -141 182c-96 0 -138 -51 -138 -178c0 -131 44 -185 141 -185zM283 -62c34 0 53 -21 53 -55c0 -36 -22 -59 -56 -59c-35 0 -55 21 -55 56s22 58 58 58z" />
    <glyph glyph-name="uhorntilde" unicode="&#x1eef;" horiz-adv-x="562" 
d="M133 587l-31 32v9l65 77l11 4c44 -6 130 -36 155 -36c17 0 34 22 59 49h10l30 -32v-9l-65 -77l-10 -5c-44 6 -129 37 -155 37c-18 0 -34 -23 -59 -49h-10zM479 246v-74c1 -114 -75 -179 -210 -179c-133 0 -206 64 -203 179l1 77l-2 252h97l-6 -314
c-1 -76 38 -114 117 -114c77 0 117 38 116 114l-4 314h48c34 0 51 14 51 39c0 16 -7 32 -26 47l3 8c15 10 30 17 46 17c25 0 52 -27 52 -64c0 -40 -30 -73 -77 -88z" />
    <glyph glyph-name="aogonek" unicode="&#x105;" horiz-adv-x="519" 
d="M516 -94l11 -50c-29 -34 -56 -52 -91 -52c-45 0 -79 30 -79 78c0 29 13 60 52 118h-18l-12 62l-18 55l-113 1l-99 -1l-19 -50l-15 -67h-94l186 501h112l170 -501h-22c-41 -56 -47 -83 -47 -99c0 -25 13 -33 30 -33c22 0 42 14 60 38h6zM336 192l-72 219h-6l-81 -219
l78 -1z" />
    <glyph glyph-name="uhungarumlaut" unicode="&#x171;" horiz-adv-x="552" 
d="M179 559l-32 29c45 52 88 106 130 161l9 1l47 -34v-9c-47 -50 -95 -98 -144 -146zM325 559l-32 29c46 52 89 106 131 161l8 1l47 -34l1 -9c-47 -50 -96 -98 -145 -146zM482 246v-74c1 -114 -76 -179 -210 -179c-133 0 -206 64 -203 179l1 77l-2 252h97l-6 -314
c-1 -76 38 -114 116 -114s118 38 117 114l-4 314h97z" />
    <glyph glyph-name="icaron" unicode="&#x1d0;" horiz-adv-x="267" 
d="M251 740l27 -40c-41 -39 -85 -86 -130 -137h-26c-41 47 -85 95 -129 137l27 40h10c40 -35 75 -67 105 -100c31 33 66 65 105 100h11zM175 159l4 -159h-96l4 150l-4 351h97z" />
    <glyph glyph-name="ohorngrave" unicode="&#x1edd;" horiz-adv-x="564" 
d="M184 732l10 2c68 -40 132 -73 198 -107l-17 -44l-11 -4c-67 26 -132 51 -203 82l-4 10zM452 577l2 8c14 9 31 18 45 18c26 0 54 -31 54 -75c0 -51 -37 -86 -91 -96c38 -42 57 -99 57 -174c0 -166 -90 -266 -246 -266c-150 0 -233 93 -233 253c0 168 91 263 244 263
c75 0 108 -23 145 -23c29 0 50 13 50 40c0 19 -10 37 -27 52zM281 66c94 0 138 52 138 181c0 131 -44 182 -141 182c-96 0 -138 -51 -138 -178c0 -131 44 -185 141 -185z" />
    <glyph glyph-name="aringacute" unicode="&#x1fb;" horiz-adv-x="519" 
d="M177 768l-10 47c71 22 139 45 213 74l10 -4l16 -64l-5 -9c-76 -20 -144 -34 -214 -49zM175 660c0 55 33 88 90 88c58 0 88 -35 88 -85c0 -58 -38 -90 -91 -90c-52 0 -87 31 -87 87zM307 660c0 25 -14 42 -44 42c-28 0 -42 -15 -42 -40c0 -30 16 -44 43 -44
c26 0 43 13 43 42zM489 0h-98l-12 62l-18 55l-113 1l-99 -1l-19 -50l-15 -67h-94l186 501h112zM336 192l-72 219h-6l-81 -219l78 -1z" />
    <glyph glyph-name="umacron" unicode="&#x16b;" horiz-adv-x="552" 
d="M425 678l-5 -59h-282l-7 8l5 58h282zM482 246v-74c1 -114 -76 -179 -210 -179c-133 0 -206 64 -203 179l1 77l-2 252h97l-6 -314c-1 -76 38 -114 116 -114s118 38 117 114l-4 314h97z" />
    <glyph glyph-name="uogonek" unicode="&#x173;" horiz-adv-x="552" 
d="M389 16l-42 -69c-11 -17 -17 -35 -17 -49c0 -20 11 -33 36 -33c23 0 48 11 71 34h5l12 -44c-33 -34 -65 -52 -101 -52c-51 0 -83 34 -83 83c0 22 7 46 24 71l26 39c-15 -2 -31 -3 -48 -3c-133 0 -206 64 -203 179l1 77l-2 252h97l-6 -314c-1 -76 38 -114 116 -114
s118 38 117 114l-4 314h97l-3 -255v-74c1 -75 -32 -128 -93 -156z" />
    <glyph glyph-name="ohornhookabove" unicode="&#x1edf;" horiz-adv-x="564" 
d="M268 764c40 0 71 -27 71 -63c0 -26 -16 -47 -54 -78l21 -37l-40 -22l-36 59c32 24 51 50 51 68c0 14 -12 21 -28 21c-18 0 -40 -8 -60 -24l-19 30c28 28 62 46 94 46zM452 577l2 8c14 9 31 18 45 18c26 0 54 -31 54 -75c0 -51 -37 -86 -91 -96c38 -42 57 -99 57 -174
c0 -166 -90 -266 -246 -266c-150 0 -233 93 -233 253c0 168 91 263 244 263c75 0 108 -23 145 -23c29 0 50 13 50 40c0 19 -10 37 -27 52zM281 66c94 0 138 52 138 181c0 131 -44 182 -141 182c-96 0 -138 -51 -138 -178c0 -131 44 -185 141 -185z" />
    <glyph glyph-name="ohorntilde" unicode="&#x1ee1;" horiz-adv-x="564" 
d="M439 690v-9l-65 -77l-10 -5c-44 6 -129 37 -155 37c-18 0 -34 -23 -59 -49h-10l-31 32v9l65 77l11 4c44 -6 130 -36 155 -36c17 0 34 22 59 49h10zM452 577l2 8c14 9 31 18 45 18c26 0 54 -31 54 -75c0 -51 -37 -86 -91 -96c38 -42 57 -99 57 -174
c0 -166 -90 -266 -246 -266c-150 0 -233 93 -233 253c0 168 91 263 244 263c75 0 108 -23 145 -23c29 0 50 13 50 40c0 19 -10 37 -27 52zM281 66c94 0 138 52 138 181c0 131 -44 182 -141 182c-96 0 -138 -51 -138 -178c0 -131 44 -185 141 -185z" />
    <glyph glyph-name="uring" unicode="&#x16f;" horiz-adv-x="552" 
d="M278 748c58 0 88 -35 88 -85c0 -58 -38 -90 -91 -90c-52 0 -87 31 -87 87c0 55 33 88 90 88zM276 702c-28 0 -42 -15 -42 -40c0 -30 16 -44 43 -44c26 0 43 13 43 42c0 25 -14 42 -44 42zM482 246v-74c1 -114 -76 -179 -210 -179c-133 0 -206 64 -203 179l1 77l-2 252h97
l-6 -314c-1 -76 38 -114 116 -114s118 38 117 114l-4 314h97z" />
    <glyph glyph-name="ohungarumlaut" unicode="&#x151;" horiz-adv-x="558" 
d="M182 559l-32 29c45 52 88 106 130 161l9 1l47 -34v-9c-47 -50 -95 -98 -144 -146zM328 559l-32 29c46 52 89 106 131 161l8 1l47 -34l1 -9c-47 -50 -96 -98 -145 -146zM288 508c147 0 231 -90 231 -246c0 -173 -90 -270 -248 -270c-148 0 -231 92 -231 253
c0 168 89 263 248 263zM279 429c-95 0 -139 -49 -139 -172c0 -136 44 -187 138 -187c96 0 141 49 141 173c0 134 -43 186 -140 186z" />
    <glyph glyph-name="aeacute" unicode="&#x1fd;" horiz-adv-x="704" 
d="M357 560l-26 40c59 48 113 93 171 148l10 -1l38 -54l-2 -10c-63 -46 -121 -85 -181 -124zM684 73l-7 -73h-308l-4 60l-17 118l-198 -48l-36 -65l-22 -65h-92l269 501h341l6 -8l-9 -71l-131 6h-76l23 -157l170 39l6 -5l7 -72l-172 -35l18 -123h89l137 5zM337 251l-24 162
h-7l-108 -195z" />
    <glyph glyph-name="idotaccent" horiz-adv-x="267" 
d="M137 716c34 0 53 -21 53 -55c0 -36 -22 -59 -56 -59c-35 0 -55 21 -55 56s22 58 58 58zM175 159l4 -159h-96l4 150l-4 351h97z" />
    <glyph glyph-name="omacron" unicode="&#x14d;" horiz-adv-x="558" 
d="M428 678l-5 -59h-282l-7 8l5 58h282zM288 508c147 0 231 -90 231 -246c0 -173 -90 -270 -248 -270c-148 0 -231 92 -231 253c0 168 89 263 248 263zM279 429c-95 0 -139 -49 -139 -172c0 -136 44 -187 138 -187c96 0 141 49 141 173c0 134 -43 186 -140 186z" />
    <glyph glyph-name="idotbelow" unicode="&#x1ecb;" horiz-adv-x="267" 
d="M175 159l4 -159h-96l4 150l-4 351h97zM132 -62c34 0 53 -21 53 -55c0 -36 -22 -59 -56 -59c-35 0 -55 21 -55 56s22 58 58 58z" />
    <glyph glyph-name="oogonek" unicode="&#x1eb;" horiz-adv-x="558" 
d="M378 10l-39 -63c-11 -16 -17 -35 -17 -49c0 -19 11 -33 36 -33c23 0 48 12 71 35h5l12 -45c-33 -34 -65 -52 -101 -52c-51 0 -83 35 -83 83c0 23 7 46 24 71l25 37c-13 -1 -26 -2 -40 -2c-148 0 -231 92 -231 253c0 168 89 263 248 263c147 0 231 -90 231 -246
c0 -129 -50 -216 -141 -252zM140 257c0 -136 44 -187 138 -187c96 0 141 49 141 173c0 134 -43 186 -140 186c-95 0 -139 -49 -139 -172z" />
    <glyph glyph-name="cacute" unicode="&#x107;" horiz-adv-x="458" 
d="M365 747l38 -54l-2 -10c-63 -46 -121 -85 -181 -124l-10 1l-26 40c59 48 113 93 171 148zM288 507c54 0 103 -11 143 -32l-18 -85l-9 -3c-32 25 -77 41 -125 41c-89 0 -138 -55 -138 -172c0 -120 49 -183 141 -183c46 0 95 16 131 41l10 -5l-8 -85
c-43 -20 -86 -31 -138 -31c-153 0 -237 91 -237 254c0 167 90 260 248 260z" />
    <glyph glyph-name="ihookabove" unicode="&#x1ec9;" horiz-adv-x="267" 
d="M128 764c40 0 71 -27 71 -63c0 -26 -16 -47 -54 -78l21 -37l-40 -22l-36 59c32 24 51 50 51 68c0 14 -12 21 -28 21c-18 0 -40 -8 -60 -24l-19 30c28 28 62 46 94 46zM175 159l4 -159h-96l4 150l-4 351h97z" />
    <glyph glyph-name="wacute" unicode="&#x1e83;" horiz-adv-x="771" 
d="M464 747l38 -54l-2 -10c-63 -46 -121 -85 -181 -124l-10 1l-26 40c59 48 113 93 171 148zM575 0h-104l-86 248h-7l-90 -248h-104l-154 501h96l9 -60l105 -338h7l97 275l-37 123h99l11 -69l107 -329h7l118 333l13 65h92z" />
    <glyph glyph-name="wcircumflex" unicode="&#x175;" horiz-adv-x="771" 
d="M251 564l-27 40c41 39 85 86 130 137h26c41 -47 85 -95 129 -137l-27 -40h-10c-40 35 -75 67 -105 100c-31 -33 -66 -65 -105 -100h-11zM575 0h-104l-86 248h-7l-90 -248h-104l-154 501h96l9 -60l105 -338h7l97 275l-37 123h99l11 -69l107 -329h7l118 333l13 65h92z" />
    <glyph glyph-name="oslashacute" unicode="&#x1ff;" horiz-adv-x="558" 
d="M206 561l-26 40c59 48 113 93 171 148l10 -1l38 -54l-2 -10c-63 -46 -121 -85 -181 -124zM468 539l-37 -71c57 -41 88 -111 88 -206c0 -173 -90 -270 -248 -270c-30 0 -57 4 -81 11l-56 -107l-54 27l-3 10l52 99c-58 42 -89 115 -89 213c0 168 89 263 248 263
c31 0 59 -4 84 -12l41 79l50 -26zM140 257c0 -66 10 -112 32 -142l161 307c-16 5 -34 7 -54 7c-95 0 -139 -49 -139 -172zM278 70c96 0 141 49 141 173c0 65 -10 111 -32 141l-159 -308c14 -4 31 -6 50 -6z" />
    <glyph glyph-name="ccaron" unicode="&#x10d;" horiz-adv-x="458" 
d="M383 740l27 -40c-41 -39 -85 -86 -130 -137h-26c-41 47 -85 95 -129 137l27 40h10c40 -35 75 -67 105 -100c31 33 66 65 105 100h11zM288 507c54 0 103 -11 143 -32l-18 -85l-9 -3c-32 25 -77 41 -125 41c-89 0 -138 -55 -138 -172c0 -120 49 -183 141 -183
c46 0 95 16 131 41l10 -5l-8 -85c-43 -20 -86 -31 -138 -31c-153 0 -237 91 -237 254c0 167 90 260 248 260z" />
    <glyph glyph-name="ij" unicode="&#x133;" horiz-adv-x="568" 
d="M180 501l-5 -342l4 -159h-96l4 150l-4 351h97zM481 501l-4 -336v-71c0 -84 -34 -131 -138 -177l-35 49v9c61 32 84 64 84 118v62l-2 274l-92 -1l-6 6l6 67h187z" />
    <glyph glyph-name="imacron" unicode="&#x12b;" horiz-adv-x="267" 
d="M251 678l-5 -59h-220l-7 8l5 58h220zM175 159l4 -159h-96l4 150l-4 351h97z" />
    <glyph glyph-name="wdieresis" unicode="&#x1e85;" horiz-adv-x="771" 
d="M286 705c32 0 50 -19 50 -51c0 -34 -20 -55 -53 -55s-51 19 -51 52s21 54 54 54zM450 705c32 0 50 -19 50 -51c0 -34 -20 -55 -53 -55s-51 19 -51 52s21 54 54 54zM575 0h-104l-86 248h-7l-90 -248h-104l-154 501h96l9 -60l105 -338h7l97 275l-37 123h99l11 -69l107 -329
h7l118 333l13 65h92z" />
    <glyph glyph-name="wgrave" unicode="&#x1e81;" horiz-adv-x="771" 
d="M294 747l10 1c58 -55 112 -100 171 -148l-26 -40l-10 -1c-60 39 -118 78 -181 124l-2 10zM575 0h-104l-86 248h-7l-90 -248h-104l-154 501h96l9 -60l105 -338h7l97 275l-37 123h99l11 -69l107 -329h7l118 333l13 65h92z" />
    <glyph glyph-name="ccircumflex" unicode="&#x109;" horiz-adv-x="458" 
d="M152 564l-27 40c41 39 85 86 130 137h26c41 -47 85 -95 129 -137l-27 -40h-10c-40 35 -75 67 -105 100c-31 -33 -66 -65 -105 -100h-11zM288 507c54 0 103 -11 143 -32l-18 -85l-9 -3c-32 25 -77 41 -125 41c-89 0 -138 -55 -138 -172c0 -120 49 -183 141 -183
c46 0 95 16 131 41l10 -5l-8 -85c-43 -20 -86 -31 -138 -31c-153 0 -237 91 -237 254c0 167 90 260 248 260z" />
    <glyph glyph-name="iogonek" unicode="&#x12f;" horiz-adv-x="267" 
d="M181 -111l9 -54c-24 -21 -49 -32 -77 -32c-49 0 -81 32 -81 82c0 31 11 59 51 115l4 150l-4 351h97l-5 -342l4 -159h-38c-36 -53 -47 -78 -47 -99c0 -23 13 -35 33 -35c16 0 32 9 46 23h8z" />
    <glyph glyph-name="cdotaccent" unicode="&#x10b;" horiz-adv-x="458" 
d="M269 716c34 0 53 -21 53 -55c0 -36 -22 -59 -56 -59c-35 0 -55 21 -55 56s22 58 58 58zM288 507c54 0 103 -11 143 -32l-18 -85l-9 -3c-32 25 -77 41 -125 41c-89 0 -138 -55 -138 -172c0 -120 49 -183 141 -183c46 0 95 16 131 41l10 -5l-8 -85
c-43 -20 -86 -31 -138 -31c-153 0 -237 91 -237 254c0 167 90 260 248 260z" />
    <glyph glyph-name="dotlessj" unicode="&#x237;" horiz-adv-x="300" 
d="M214 501l-4 -336v-71c0 -84 -34 -131 -138 -177l-35 49v9c61 32 84 64 84 118v62l-2 274l-91 -1l-7 6l7 67h186z" />
    <glyph glyph-name="jcircumflex" unicode="&#x135;" horiz-adv-x="300" 
d="M107 741h26c41 -47 85 -95 129 -137l-27 -40h-10c-40 35 -75 67 -105 100c-31 -33 -66 -65 -105 -100h-11l-27 40c41 39 85 86 130 137zM214 501l-4 -336v-71c0 -84 -34 -131 -138 -177l-35 49v9c61 32 84 64 84 118v62l-2 274l-91 -1l-7 6l7 67h186z" />
    <glyph glyph-name="ycircumflex" unicode="&#x177;" horiz-adv-x="483" 
d="M131 564l-27 40c41 39 84 85 130 137h25c42 -48 85 -95 130 -137l-27 -40h-10c-40 35 -75 67 -105 99c-31 -32 -66 -64 -105 -99h-11zM278 140l4 -140h-96l4 140l-1 28l-169 333h102l12 -32l99 -199h7l110 195l15 36h100l-186 -330z" />
    <glyph glyph-name="dcaron" unicode="&#x10f;" horiz-adv-x="567" 
d="M281 563h-26c-41 47 -85 95 -129 137l27 40h10c40 -35 75 -67 105 -100c31 33 66 65 105 100h11l27 -40c-41 -39 -85 -86 -130 -137zM83 501l206 4c154 0 239 -85 239 -236c0 -177 -94 -274 -263 -274c-38 0 -130 2 -182 5l4 150zM281 70c93 0 148 55 148 177
c0 125 -49 178 -147 178c-17 0 -72 -1 -103 -4l-4 -262l2 -82c32 -3 86 -7 104 -7z" />
    <glyph glyph-name="kcommaaccent" unicode="&#x137;" horiz-adv-x="503" 
d="M481 502l-201 -236c66 -84 139 -167 214 -244l-2 -14c-30 -8 -63 -14 -94 -17l-14 6c-71 85 -141 172 -206 263v7l160 187l32 47zM175 159l4 -159h-96l4 150l-4 351h97zM269 -49c25 -18 39 -41 39 -68c0 -46 -32 -92 -97 -138l-31 28v7c33 27 51 55 51 84
c0 19 -10 35 -29 49v8c20 13 42 23 67 30z" />
    <glyph glyph-name="dcroat" unicode="&#x111;" horiz-adv-x="567" 
d="M128 619l-7 8l5 58h282l7 -7l-5 -59h-282zM83 501l206 4c154 0 239 -85 239 -236c0 -177 -94 -274 -263 -274c-38 0 -130 2 -182 5l4 150zM281 70c93 0 148 55 148 177c0 125 -49 178 -147 178c-17 0 -72 -1 -103 -4l-4 -262l2 -82c32 -3 86 -7 104 -7z" />
    <glyph glyph-name="racute" unicode="&#x155;" horiz-adv-x="508" 
d="M181 560l-26 40c59 48 113 93 171 148l10 -1l38 -54l-2 -10c-63 -46 -121 -85 -181 -124zM342 200c41 -60 84 -119 131 -177l-1 -12c-30 -9 -59 -16 -91 -18l-15 9c-35 56 -71 113 -103 172l-88 -1v-14l4 -159h-96l4 150l-4 351l190 1c109 0 170 -53 170 -147
c0 -66 -37 -121 -101 -155zM176 250l87 -3c52 15 79 47 79 99c0 55 -31 79 -97 82l-66 -2z" />
    <glyph glyph-name="rcaron" unicode="&#x159;" horiz-adv-x="508" 
d="M251 563h-26c-41 47 -85 95 -129 137l27 40h10c40 -35 75 -67 105 -100c31 33 66 65 105 100h11l27 -40c-41 -39 -85 -86 -130 -137zM342 200c41 -60 84 -119 131 -177l-1 -12c-30 -9 -59 -16 -91 -18l-15 9c-35 56 -71 113 -103 172l-88 -1v-14l4 -159h-96l4 150l-4 351
l190 1c109 0 170 -53 170 -147c0 -66 -37 -121 -101 -155zM176 250l87 -3c52 15 79 47 79 99c0 55 -31 79 -97 82l-66 -2z" />
    <glyph glyph-name="ydotbelow" unicode="&#x1ef5;" horiz-adv-x="483" 
d="M189 168l-169 333h102l12 -32l99 -199h7l110 195l15 36h100l-186 -330l-1 -31l4 -140h-96l4 140zM235 -63c33 0 53 -20 53 -54c0 -36 -22 -59 -57 -59s-54 21 -54 55c0 35 22 58 58 58z" />
    <glyph glyph-name="kgreenlandic" unicode="&#x138;" horiz-adv-x="503" 
d="M481 502l-201 -236c66 -84 139 -167 214 -244l-2 -14c-30 -8 -63 -14 -94 -17l-14 6c-71 85 -141 172 -206 263v7l160 187l32 47zM175 159l4 -159h-96l4 150l-4 351h97z" />
    <glyph glyph-name="ygrave" unicode="&#x1ef3;" horiz-adv-x="483" 
d="M329 560l-10 -1c-60 39 -118 78 -181 124l-2 10l38 54l10 1c58 -55 112 -100 171 -148zM278 140l4 -140h-96l4 140l-1 28l-169 333h102l12 -32l99 -199h7l110 195l15 36h100l-186 -330z" />
    <glyph glyph-name="rcommaaccent" unicode="&#x157;" horiz-adv-x="508" 
d="M342 200c41 -60 84 -119 131 -177l-1 -12c-30 -9 -59 -16 -91 -18l-15 9c-35 56 -71 113 -103 172l-88 -1v-14l4 -159h-96l4 150l-4 351l190 1c109 0 170 -53 170 -147c0 -66 -37 -121 -101 -155zM176 250l87 -3c52 15 79 47 79 99c0 55 -31 79 -97 82l-66 -2zM264 -49
c25 -18 39 -41 39 -68c0 -46 -32 -92 -97 -138l-31 28v7c33 27 51 55 51 84c0 19 -10 35 -29 49v8c20 13 42 23 67 30z" />
    <glyph glyph-name="lacute" unicode="&#x13a;" horiz-adv-x="382" 
d="M114 560l-26 40c59 48 113 93 171 148l10 -1l38 -54l-2 -10c-63 -46 -121 -85 -181 -124zM365 72l-7 -72h-278l4 150l-4 351h97l-5 -342l2 -79h185z" />
    <glyph glyph-name="ebreve" unicode="&#x115;" horiz-adv-x="444" 
d="M243 568c-77 0 -118 51 -134 119l26 36h15c14 -55 48 -83 96 -83c49 0 82 28 96 83h15l25 -36c-17 -70 -61 -119 -139 -119zM406 80l6 -7l-7 -73h-322l4 150l-4 351h324l6 -8l-7 -73l-127 5l-100 -1l-2 -130l96 -1l87 3l6 -8l-7 -74l-94 3l-89 -1l-1 -57l2 -82l94 -1z
" />
    <glyph glyph-name="yhookabove" unicode="&#x1ef7;" horiz-adv-x="483" 
d="M224 712c-18 0 -40 -8 -60 -24l-19 30c28 28 62 46 94 46c40 0 71 -27 71 -63c0 -26 -16 -47 -54 -78l21 -37l-40 -22l-36 59c32 24 51 50 51 68c0 14 -12 21 -28 21zM278 140l4 -140h-96l4 140l-1 28l-169 333h102l12 -32l99 -199h7l110 195l15 36h100l-186 -330z" />
    <glyph glyph-name="lcaron" unicode="&#x13e;" horiz-adv-x="399" 
d="M359 80l6 -8l-7 -72h-278l4 150l-4 351h97l-5 -342l2 -79h185zM293 283l-7 7l1 187l73 4l7 -7l-27 -184z" />
    <glyph glyph-name="ecaron" unicode="&#x11b;" horiz-adv-x="444" 
d="M258 563h-26c-41 47 -85 95 -129 137l27 40h10c40 -35 75 -67 105 -100c31 33 66 65 105 100h11l27 -40c-41 -39 -85 -86 -130 -137zM406 80l6 -7l-7 -73h-322l4 150l-4 351h324l6 -8l-7 -73l-127 5l-100 -1l-2 -130l96 -1l87 3l6 -8l-7 -74l-94 3l-89 -1l-1 -57l2 -82
l94 -1z" />
    <glyph glyph-name="sacute" unicode="&#x15b;" horiz-adv-x="433" 
d="M318 747l38 -54l-2 -10c-63 -46 -121 -85 -181 -124l-10 1l-26 40c59 48 113 93 171 148zM243 507c41 0 87 -9 128 -25l-15 -91l-15 -3c-39 31 -74 46 -109 46c-53 0 -80 -32 -80 -63c0 -88 233 -72 233 -224c0 -79 -63 -154 -189 -154c-44 0 -101 10 -152 32l13 97l11 6
c41 -41 99 -62 140 -62c49 0 82 29 82 64c0 91 -233 74 -233 227c0 83 70 150 186 150z" />
    <glyph glyph-name="lcommaaccent" unicode="&#x13c;" horiz-adv-x="382" 
d="M365 72l-7 -72h-278l4 150l-4 351h97l-5 -342l2 -79h185zM218 -49c25 -18 39 -41 39 -68c0 -46 -32 -92 -97 -138l-31 28v7c33 27 51 55 51 84c0 19 -10 35 -29 49v8c20 13 42 23 67 30z" />
    <glyph glyph-name="scedilla" unicode="&#x15f;" horiz-adv-x="433" 
d="M385 147c0 -73 -53 -142 -160 -153l-12 -44l34 -20c30 -16 40 -34 40 -57c0 -41 -35 -70 -87 -70c-34 0 -59 14 -77 30l9 47l5 2c18 -19 35 -31 57 -31c17 0 29 9 29 25c0 11 -8 17 -19 22l-49 29l17 67c-40 3 -86 13 -128 31l13 97l11 6c41 -41 99 -62 140 -62
c49 0 82 29 82 64c0 91 -233 74 -233 227c0 83 70 150 186 150c41 0 87 -9 128 -25l-15 -91l-15 -3c-39 31 -74 46 -109 46c-53 0 -80 -32 -80 -63c0 -88 233 -72 233 -224z" />
    <glyph glyph-name="zacute" unicode="&#x17a;" horiz-adv-x="475" 
d="M322 747l38 -54l-2 -10c-63 -46 -121 -85 -181 -124l-10 1l-26 40c59 48 113 93 171 148zM429 431l-276 -357h190l89 9l4 -5l-8 -80l-115 2h-217l-58 -2v69l278 359h-185l-84 -9l-4 6l8 79l100 -1h230l48 1v-71z" />
    <glyph glyph-name="ecircumflexacute" unicode="&#x1ebf;" horiz-adv-x="444" 
d="M334 684l-35 28l70 111l8 3l51 -24l1 -9l-87 -109h-8zM128 570l-20 43c45 30 86 62 124 96h24c38 -34 80 -66 124 -96l-19 -43h-11c-36 22 -71 43 -106 66c-34 -23 -69 -44 -105 -66h-11zM179 424l-2 -130l96 -1l87 3l6 -8l-7 -74l-94 3l-89 -1l-1 -57l2 -82l94 -1l135 4
l6 -7l-7 -73h-322l4 150l-4 351h324l6 -8l-7 -73l-127 5z" />
    <glyph glyph-name="ldot" unicode="&#x140;" horiz-adv-x="399" 
d="M365 72l-7 -72h-278l4 150l-4 351h97l-5 -342l2 -79h185zM301 241c-35 0 -55 21 -55 56s22 58 58 58c34 0 53 -21 53 -55c0 -36 -22 -59 -56 -59z" />
    <glyph glyph-name="ecircumflexdotbelow" unicode="&#x1ec7;" horiz-adv-x="444" 
d="M130 564l-27 40c41 39 85 86 130 137h26c41 -47 85 -95 129 -137l-27 -40h-10c-40 35 -75 67 -105 100c-31 -33 -66 -65 -105 -100h-11zM406 80l6 -7l-7 -73h-322l4 150l-4 351h324l6 -8l-7 -73l-127 5l-100 -1l-2 -130l96 -1l87 3l6 -8l-7 -74l-94 3l-89 -1l-1 -57
l2 -82l94 -1zM250 -62c34 0 53 -21 53 -55c0 -36 -22 -59 -56 -59c-35 0 -55 21 -55 56s22 58 58 58z" />
    <glyph glyph-name="scircumflex" unicode="&#x15d;" horiz-adv-x="433" 
d="M105 564l-27 40c41 39 85 86 130 137h26c41 -47 85 -95 129 -137l-27 -40h-10c-40 35 -75 67 -105 100c-31 -33 -66 -65 -105 -100h-11zM243 507c41 0 87 -9 128 -25l-15 -91l-15 -3c-39 31 -74 46 -109 46c-53 0 -80 -32 -80 -63c0 -88 233 -72 233 -224
c0 -79 -63 -154 -189 -154c-44 0 -101 10 -152 32l13 97l11 6c41 -41 99 -62 140 -62c49 0 82 29 82 64c0 91 -233 74 -233 227c0 83 70 150 186 150z" />
    <glyph glyph-name="scommaaccent" unicode="&#x219;" horiz-adv-x="433" 
d="M243 507c41 0 87 -9 128 -25l-15 -91l-15 -3c-39 31 -74 46 -109 46c-53 0 -80 -32 -80 -63c0 -88 233 -72 233 -224c0 -79 -63 -154 -189 -154c-44 0 -101 10 -152 32l13 97l11 6c41 -41 99 -62 140 -62c49 0 82 29 82 64c0 91 -233 74 -233 227c0 83 70 150 186 150z
M226 -49c25 -18 39 -41 39 -68c0 -46 -32 -92 -97 -138l-31 28v7c33 27 51 55 51 84c0 19 -10 35 -29 49v8c20 13 42 23 67 30z" />
    <glyph glyph-name="zdotaccent" unicode="&#x17c;" horiz-adv-x="475" 
d="M226 715c34 0 53 -20 53 -54c0 -36 -22 -59 -56 -59c-35 0 -55 21 -55 55c0 35 22 58 58 58zM429 431l-276 -357h190l89 9l4 -5l-8 -80l-115 2h-217l-58 -2v69l278 359h-185l-84 -9l-4 6l8 79l100 -1h230l48 1v-71z" />
    <glyph glyph-name="ecircumflexgrave" unicode="&#x1ec1;" horiz-adv-x="444" 
d="M349 684l-87 109l1 9l52 24l7 -3l70 -111l-35 -28h-8zM128 570l-20 43c45 30 86 62 124 96h24c38 -34 80 -66 124 -96l-19 -43h-11c-36 22 -71 43 -106 66c-34 -23 -69 -44 -105 -66h-11zM406 80l6 -7l-7 -73h-322l4 150l-4 351h324l6 -8l-7 -73l-127 5l-100 -1l-2 -130
l96 -1l87 3l6 -8l-7 -74l-94 3l-89 -1l-1 -57l2 -82l94 -1z" />
    <glyph glyph-name="ecircumflexhookabove" unicode="&#x1ec3;" horiz-adv-x="444" 
d="M328 818c-17 0 -39 -8 -57 -23l-18 28c26 27 58 44 89 44c38 0 67 -25 67 -60c0 -24 -15 -44 -51 -74l20 -35l-38 -22l-34 57c30 23 48 48 48 64c0 14 -11 21 -26 21zM128 570l-20 43c45 30 86 62 124 96h24c38 -34 80 -66 124 -96l-19 -43h-11c-36 22 -71 43 -106 66
c-34 -23 -69 -44 -105 -66h-11zM406 80l6 -7l-7 -73h-322l4 150l-4 351h324l6 -8l-7 -73l-127 5l-100 -1l-2 -130l96 -1l87 3l6 -8l-7 -74l-94 3l-89 -1l-1 -57l2 -82l94 -1z" />
    <glyph glyph-name="germandbls.calt" horiz-adv-x="647" 
d="M328 649c86 0 163 -26 245 -65l5 -18l-157 -196c129 -49 200 -95 200 -196c0 -117 -94 -182 -208 -182c-55 0 -118 15 -170 43l14 102l12 6c47 -43 105 -70 153 -70c58 0 97 38 97 90c0 64 -62 104 -220 154l-5 19l155 199c-46 21 -85 30 -126 30
c-100 0 -153 -53 -154 -145l-2 -218l4 -202h-104l7 190l-4 230c-1 137 95 229 258 229z" />
    <glyph glyph-name="ecircumflextilde" unicode="&#x1ec5;" horiz-adv-x="444" 
d="M123 720l-29 30v9l61 74l10 4c41 -5 121 -35 144 -35c17 0 32 22 56 47h9l28 -30v-9l-60 -74l-11 -4c-40 5 -120 35 -144 35c-16 0 -32 -22 -55 -47h-9zM232 709h24c38 -34 80 -66 124 -96l-19 -43h-11c-36 22 -71 43 -106 66c-34 -23 -69 -44 -105 -66h-11l-20 43
c45 30 86 62 124 96zM406 80l6 -7l-7 -73h-322l4 150l-4 351h324l6 -8l-7 -73l-127 5l-100 -1l-2 -130l96 -1l87 3l6 -8l-7 -74l-94 3l-89 -1l-1 -57l2 -82l94 -1z" />
    <glyph glyph-name="iacute_j.loclNLD" horiz-adv-x="567" 
d="M233 747l38 -54l-2 -10c-63 -46 -121 -85 -181 -124l-10 1l-26 40c59 48 113 93 171 148zM502 692l-3 -10c-63 -46 -120 -85 -180 -124l-10 1l-27 40c59 48 114 93 172 148l10 -1zM180 501l-5 -342l4 -159h-96l4 150l-4 351h97zM481 501l-4 -336v-71
c0 -84 -34 -131 -138 -177l-35 49v9c61 32 84 64 84 118v62l-2 274l-92 -1l-6 6l6 67h187z" />
    <glyph glyph-name="nacute" unicode="&#x144;" horiz-adv-x="600" 
d="M396 747l38 -54l-2 -10c-63 -46 -121 -85 -181 -124l-10 1l-26 40c59 48 113 93 171 148zM512 153l3 -153h-103l-238 352h-5l-1 -182l2 -170h-87l4 147l-3 354h103l237 -352h7l-2 349l88 5z" />
    <glyph glyph-name="tbar" unicode="&#x167;" horiz-adv-x="441" 
d="M268 423l-2 -168h91l8 -7l-4 -53h-96v-36l4 -159h-96l4 150v45h-88l-7 7l4 53h90l-1 168h-42l-98 -7l-7 8l7 77h373l4 -8l-5 -77l-97 7h-42z" />
    <glyph glyph-name="a.sups" horiz-adv-x="328" 
d="M170 650c69 0 108 -32 108 -88c0 -20 -6 -130 -6 -146c0 -17 5 -24 15 -24c5 0 12 1 17 5l7 -5l-9 -47c-14 -10 -28 -15 -46 -15c-31 0 -44 13 -52 48h-4c-21 -25 -47 -43 -73 -49c-60 1 -97 35 -97 92c0 44 23 69 69 77l99 18l1 30c0 30 -14 44 -43 44
c-26 0 -56 -12 -93 -36l-7 3l-10 56c38 23 83 37 124 37zM198 476l-63 -14c-18 -3 -27 -14 -27 -33c0 -25 13 -40 36 -40c16 0 36 10 53 30z" />
    <glyph glyph-name="ncaron" unicode="&#x148;" horiz-adv-x="600" 
d="M415 740l27 -40c-41 -39 -85 -86 -130 -137h-26c-41 47 -85 95 -129 137l27 40h10c40 -35 75 -67 105 -100c31 33 66 65 105 100h11zM512 153l3 -153h-103l-238 352h-5l-1 -182l2 -170h-87l4 147l-3 354h103l237 -352h7l-2 349l88 5z" />
    <glyph glyph-name="d.sups" horiz-adv-x="358" 
d="M309 801l-3 -385c0 -17 4 -24 15 -24c4 0 11 1 18 5l6 -5l-10 -47c-15 -10 -32 -15 -51 -15c-28 0 -44 11 -53 45h-4c-20 -24 -45 -42 -72 -44c-78 0 -127 57 -127 152c0 109 60 167 155 167c12 0 26 -3 42 -6l-1 152zM181 590c-49 0 -74 -28 -74 -96s24 -100 63 -100
c20 0 40 11 58 31l-3 158c-14 4 -29 7 -44 7z" />
    <glyph glyph-name="ncommaaccent" unicode="&#x146;" horiz-adv-x="600" 
d="M512 153l3 -153h-103l-238 352h-5l-1 -182l2 -170h-87l4 147l-3 354h103l237 -352h7l-2 349l88 5zM324 -49c25 -18 39 -41 39 -68c0 -46 -32 -92 -97 -138l-31 28v7c33 27 51 55 51 84c0 19 -10 35 -29 49v8c20 13 42 23 67 30z" />
    <glyph glyph-name="b.sups" horiz-adv-x="352" 
d="M206 646c74 0 118 -55 118 -150c0 -108 -58 -168 -151 -168c-27 0 -55 5 -82 13l-38 -12l-8 9l2 123l-2 335l86 5l-3 -203h2c22 27 48 46 76 48zM167 384c48 0 77 30 77 103c0 59 -21 92 -64 92c-19 0 -36 -8 -53 -24l-1 -82l1 -81c15 -5 29 -8 40 -8z" />
    <glyph glyph-name="tcaron" unicode="&#x165;" horiz-adv-x="441" 
d="M227 563h-26c-41 47 -85 95 -129 137l27 40h10c40 -35 75 -67 105 -100c31 33 66 65 105 100h11l27 -40c-41 -39 -85 -86 -130 -137zM412 493l-5 -77l-97 7h-42l-3 -264l4 -159h-96l4 150l-2 273h-42l-98 -7l-7 8l7 77h373z" />
    <glyph glyph-name="tcedilla" unicode="&#x163;" horiz-adv-x="441" 
d="M410 493l-6 -77l-96 7h-42l-3 -264l4 -159h-23l-12 -51l33 -19c28 -17 39 -34 39 -57c0 -40 -35 -68 -84 -68c-33 0 -57 14 -75 30l8 44l6 1c17 -18 34 -30 56 -30c17 0 28 10 28 25c0 12 -7 18 -18 25l-48 29l17 71h-23l4 150l-2 273h-42l-99 -7l-6 8l6 77h373z" />
    <glyph glyph-name="c.sups" horiz-adv-x="261" 
d="M174 650c30 0 61 -9 83 -20l-15 -66l-8 -4c-19 12 -39 20 -60 20c-41 0 -65 -31 -65 -87c0 -63 25 -96 70 -96c21 0 44 6 68 16l6 -4l-9 -65c-25 -9 -54 -16 -85 -16c-83 0 -131 59 -131 157c0 104 55 165 146 165z" />
    <glyph glyph-name="e.sups" horiz-adv-x="316" 
d="M172 650c79 0 123 -48 123 -126c0 -9 -1 -25 -2 -36l-6 -10h-180c4 -56 28 -86 79 -86c28 0 62 7 94 22l6 -5l-8 -61c-30 -12 -66 -20 -99 -20c-96 0 -151 61 -151 160c0 101 55 162 144 162zM108 520l113 1c1 7 1 9 1 13c0 37 -22 58 -53 58c-35 0 -55 -25 -61 -72z" />
    <glyph glyph-name="nine.lf" horiz-adv-x="474" 
d="M246 595c129 0 194 -82 194 -221c0 -167 -108 -305 -294 -382h-6l-75 46v10c153 54 234 119 266 214l-7 8c-34 -23 -73 -37 -118 -37c-103 0 -162 72 -162 171c0 107 72 191 202 191zM236 306c38 0 76 15 110 42l1 25c0 102 -30 154 -107 154c-65 0 -105 -38 -105 -109
c0 -72 36 -112 101 -112z" />
    <glyph glyph-name="zero.sinf" horiz-adv-x="374" 
d="M193 266c93 0 144 -68 144 -189c0 -132 -54 -202 -155 -202c-94 0 -146 67 -146 189c0 131 56 202 157 202zM186 188c-55 0 -82 -38 -82 -117c0 -84 27 -124 83 -124s83 40 83 119c0 82 -28 122 -84 122z" />
    <glyph glyph-name="f.sups" horiz-adv-x="199" 
d="M203 803c18 0 36 -2 54 -6l-4 -62l-7 -6c-22 10 -38 13 -52 13c-25 0 -41 -14 -41 -48v-53h72l2 -4l-3 -47h-71l-1 -120l3 -135h-85l4 126l-2 129h-44l-3 5l4 46h43l-1 38c0 81 49 124 132 124z" />
    <glyph glyph-name="nine.dnom" horiz-adv-x="343" 
d="M175 388c86 0 137 -55 137 -147c0 -106 -71 -194 -195 -246h-4l-54 36v9c90 33 139 68 161 121l-6 6c-20 -12 -44 -20 -68 -20c-71 0 -111 51 -111 113c0 69 46 128 140 128zM171 206c21 0 42 7 63 20v15c0 60 -16 93 -61 93c-39 0 -61 -23 -61 -66c0 -40 21 -62 59 -62z
" />
    <glyph glyph-name="tcommaaccent" unicode="&#x21b;" horiz-adv-x="441" 
d="M412 493l-5 -77l-97 7h-42l-3 -264l4 -159h-96l4 150l-2 273h-42l-98 -7l-7 8l7 77h373zM244 -49c25 -18 39 -41 39 -68c0 -46 -32 -92 -97 -138l-31 28v7c33 27 51 55 51 84c0 19 -10 35 -29 49v8c20 13 42 23 67 30z" />
    <glyph glyph-name="g.sups" horiz-adv-x="336" 
d="M344 658v-56c-19 -4 -33 -6 -51 -8l-1 -1c9 -14 13 -31 13 -48c0 -68 -51 -109 -133 -109c-15 0 -30 1 -42 4c-10 -8 -12 -12 -12 -19c0 -44 200 4 200 -108c0 -63 -62 -108 -152 -108c-81 0 -126 36 -126 84c5 22 29 40 56 55v4c-28 10 -48 27 -48 60c10 15 26 29 45 42
v3c-32 18 -49 48 -49 88c0 67 49 108 131 108c27 0 50 -5 70 -14c31 5 65 17 92 27zM173 488c36 0 57 18 57 55c0 35 -20 52 -55 52c-36 0 -55 -18 -55 -53c0 -36 18 -54 53 -54zM244 299c0 31 -52 32 -102 39c-20 -12 -33 -25 -33 -43c0 -24 22 -41 64 -41
c41 0 71 17 71 45z" />
    <glyph glyph-name="zero.numr" horiz-adv-x="374" 
d="M193 648c93 0 144 -68 144 -189c0 -132 -54 -202 -155 -202c-94 0 -146 67 -146 189c0 131 56 202 157 202zM186 570c-55 0 -82 -38 -82 -117c0 -84 27 -124 83 -124s83 40 83 119c0 82 -28 122 -84 122z" />
    <glyph glyph-name="one.sinf" horiz-adv-x="265" 
d="M182 257l-3 -241l3 -136h-87l2 126v166l-78 -20l-7 4v68l158 43z" />
    <glyph glyph-name="two.sinf" horiz-adv-x="354" 
d="M180 266c63 0 112 -33 112 -90c0 -40 -26 -82 -83 -152l-59 -75l2 -2h108l66 3l3 -6l-9 -67l-86 3h-166l-27 -1l-4 3v51l96 109c44 52 72 86 72 115c0 22 -15 39 -46 39s-68 -18 -96 -49h-10l-14 65c44 33 91 54 141 54z" />
    <glyph glyph-name="one.numr" horiz-adv-x="265" 
d="M182 639l-3 -241l3 -136h-87l2 126v166l-78 -20l-7 4v68l158 43z" />
    <glyph glyph-name="h.sups" horiz-adv-x="350" 
d="M216 646c61 0 96 -30 95 -88l-2 -88l2 -135h-85l5 189c0 36 -18 54 -46 54c-17 0 -37 -8 -56 -24l-1 -84l3 -135h-86l4 127l-3 334l85 5l-2 -204h3c25 26 52 47 84 49z" />
    <glyph glyph-name="softhyphen" unicode="&#xad;" horiz-adv-x="306" 
d="M277 300v-64l-240 -36l-9 9v64l240 35z" />
    <glyph glyph-name="i.sups" horiz-adv-x="171" 
d="M92 795c26 0 41 -17 41 -45c0 -30 -17 -47 -46 -47c-26 0 -42 16 -42 45c0 28 18 47 47 47zM128 470l4 -135h-86l4 127l-3 176l85 7z" />
    <glyph glyph-name="three.sinf" horiz-adv-x="313" 
d="M146 267c69 0 115 -35 115 -90c0 -31 -16 -69 -61 -91v-4c49 -13 74 -44 74 -90c0 -70 -67 -117 -166 -117c-22 0 -50 3 -72 8l-5 60l6 6c26 -7 50 -10 72 -10c51 0 81 20 81 55c0 30 -21 48 -61 49h-47l-4 5l1 57h30c32 1 65 24 65 56c0 25 -17 39 -47 39
c-25 0 -49 -10 -78 -29h-9l-14 57c37 26 79 39 120 39z" />
    <glyph glyph-name="two.numr" horiz-adv-x="354" 
d="M180 648c63 0 112 -33 112 -90c0 -40 -26 -82 -83 -152l-59 -75l2 -2h108l66 3l3 -6l-9 -67l-86 3h-166l-27 -1l-4 3v51l96 109c44 52 72 86 72 115c0 22 -15 39 -46 39s-68 -18 -96 -49h-10l-14 65c44 33 91 54 141 54z" />
    <glyph glyph-name="j.sups" horiz-adv-x="195" 
d="M83 795c27 0 43 -17 43 -45c0 -30 -18 -47 -45 -47s-44 16 -44 45c0 28 18 47 46 47zM130 644l-5 -174l4 -118c0 -70 -28 -112 -91 -147l-29 39v7c28 23 39 50 39 98v113l-1 115l-38 -2l-4 7l4 59h39l79 5z" />
    <glyph glyph-name="three.numr" horiz-adv-x="313" 
d="M146 649c69 0 115 -35 115 -90c0 -31 -16 -69 -61 -91v-4c49 -13 74 -44 74 -90c0 -70 -67 -117 -166 -117c-22 0 -50 3 -72 8l-5 60l6 6c26 -7 50 -10 72 -10c51 0 81 20 81 55c0 30 -21 48 -61 49h-47l-4 5l1 57h30c32 1 65 24 65 56c0 25 -17 39 -47 39
c-25 0 -49 -10 -78 -29h-9l-14 57c37 26 79 39 120 39z" />
    <glyph glyph-name="four.sinf" horiz-adv-x="358" 
d="M322 -28l-55 2l4 -88l-5 -6l-68 -3l-5 4l2 94h-108l-57 -3l-6 8v53l163 229h80l-2 -224h56l5 -7zM99 38h97v130h-6z" />
    <glyph glyph-name="k.sups" horiz-adv-x="316" 
d="M127 470l4 -135h-86l4 127l-3 334l85 5zM307 644l-95 -140c31 -52 67 -103 102 -155v-10c-26 -5 -52 -7 -79 -11l-10 4c-35 53 -68 108 -95 164v6l74 109l15 33h88z" />
    <glyph glyph-name="guillemetleft" unicode="&#xab;" horiz-adv-x="411" 
d="M20 216v19l141 175l48 -27l2 -11l-116 -145l116 -145l-2 -11l-48 -27zM194 216v19l141 175l48 -27l2 -11l-116 -145l116 -145l-2 -11l-48 -27z" />
    <glyph glyph-name="guillemetright" unicode="&#xbb;" horiz-adv-x="406" 
d="M212 239v-19l-141 -175l-48 27l-2 11l116 145l-116 145l2 11l48 27zM386 239v-19l-141 -175l-49 27l-1 11l116 145l-116 145l1 11l49 27z" />
    <glyph glyph-name="l.sups" horiz-adv-x="172" 
d="M127 470l3 -135h-85l4 127l-3 334l84 5z" />
    <glyph glyph-name="five.sinf" horiz-adv-x="311" 
d="M275 260l-8 -64l-7 -5l-55 5h-82l-2 -74l42 -10c75 -15 110 -49 110 -105c0 -81 -68 -132 -169 -132c-21 0 -50 3 -72 7l-6 59l7 7c24 -8 48 -10 72 -10c53 0 85 23 85 61c0 28 -20 45 -66 55l-64 11l-5 7l2 181l9 10l38 -1h101l65 2z" />
    <glyph glyph-name="four.numr" horiz-adv-x="358" 
d="M322 354l-55 2l4 -88l-5 -6l-68 -3l-5 4l2 94h-108l-57 -3l-6 8v53l163 229h80l-2 -224h56l5 -7zM99 420h97v130h-6z" />
    <glyph glyph-name="five.numr" horiz-adv-x="311" 
d="M275 642l-8 -64l-7 -5l-55 5h-82l-2 -74l42 -10c75 -15 110 -49 110 -105c0 -81 -68 -132 -169 -132c-21 0 -50 3 -72 7l-6 59l7 7c24 -8 48 -10 72 -10c53 0 85 23 85 61c0 28 -20 45 -66 55l-64 11l-5 7l2 181l9 10l38 -1h101l65 2z" />
    <glyph glyph-name="m.sups" horiz-adv-x="539" 
d="M416 335l4 190c0 36 -16 55 -47 55c-19 0 -38 -8 -58 -24l-3 -86l3 -135h-84l4 190c0 36 -17 55 -48 55c-20 0 -39 -10 -60 -28v-82l2 -135h-84l4 127l-3 176l81 7v-48h4c26 26 56 47 88 49c47 0 78 -17 90 -51h4c25 28 58 49 91 51c62 0 96 -30 96 -88l-1 -88l2 -135
h-85z" />
    <glyph glyph-name="six.sinf" horiz-adv-x="342" 
d="M199 114c72 0 111 -50 111 -111c0 -71 -45 -128 -140 -128c-86 0 -137 54 -137 145c0 107 71 195 194 247h5l54 -36v-8c-90 -34 -139 -70 -161 -123l6 -6c20 13 43 20 68 20zM172 -72c39 0 60 23 60 67c0 40 -20 61 -58 61c-21 0 -42 -7 -62 -19v-16c0 -60 15 -93 60 -93
z" />
    <glyph glyph-name="n.sups" horiz-adv-x="350" 
d="M226 335l5 189c0 36 -16 54 -46 54c-18 0 -37 -8 -57 -25v-83l3 -135h-86l4 127l-3 176l82 7v-48h4c25 26 53 47 86 49c60 0 94 -30 93 -88l-1 -88l2 -135h-86z" />
    <glyph glyph-name="seven.sinf" horiz-adv-x="304" 
d="M100 262h146l32 1l1 -61l-109 -234l-38 -95l-70 18l-5 13l136 289h-107l-61 -6l-4 9l6 67z" />
    <glyph glyph-name="six.numr" horiz-adv-x="342" 
d="M199 496c72 0 111 -50 111 -111c0 -71 -45 -128 -140 -128c-86 0 -137 54 -137 145c0 107 71 195 194 247h5l54 -36v-8c-90 -34 -139 -70 -161 -123l6 -6c20 13 43 20 68 20zM172 310c39 0 60 23 60 67c0 40 -20 61 -58 61c-21 0 -42 -7 -62 -19v-16c0 -60 15 -93 60 -93
z" />
    <glyph glyph-name="eight.sinf" horiz-adv-x="349" 
d="M183 267c71 0 113 -37 113 -94c0 -42 -24 -69 -62 -89v-5c38 -18 73 -40 73 -91c0 -71 -56 -113 -141 -113c-83 0 -128 40 -128 97c0 49 33 76 77 93v4c-35 18 -64 43 -64 91c0 67 53 107 132 107zM177 210c-34 0 -54 -18 -54 -48c0 -31 27 -46 59 -59c26 14 46 30 46 61
c0 28 -20 46 -51 46zM167 44c-31 -11 -57 -26 -57 -61c0 -32 22 -53 62 -53c43 0 65 23 65 51c0 35 -34 49 -70 63z" />
    <glyph glyph-name="seven.numr" horiz-adv-x="304" 
d="M100 644h146l32 1l1 -61l-109 -234l-38 -95l-70 18l-5 13l136 289h-107l-61 -6l-4 9l6 67z" />
    <glyph glyph-name="o.sups" horiz-adv-x="342" 
d="M176 650c91 0 139 -55 139 -156c0 -107 -52 -166 -148 -166c-91 0 -139 55 -139 156c0 108 51 166 148 166zM172 590c-43 0 -63 -28 -63 -97c0 -76 20 -107 63 -107s64 28 64 98c0 76 -21 106 -64 106z" />
    <glyph glyph-name="p.sups" horiz-adv-x="354" 
d="M205 646c75 0 119 -54 119 -149c0 -109 -59 -169 -153 -169c-14 0 -29 1 -43 4l1 -120h-84l2 250l-2 176l81 7v-46h4c21 26 46 45 75 47zM167 384c48 0 76 30 76 103c0 60 -21 91 -64 91c-19 0 -36 -7 -53 -23v-85l1 -78c15 -5 29 -8 40 -8z" />
    <glyph glyph-name="eight.numr" horiz-adv-x="349" 
d="M183 649c71 0 113 -37 113 -94c0 -42 -24 -69 -62 -89v-5c38 -18 73 -40 73 -91c0 -71 -56 -113 -141 -113c-83 0 -128 40 -128 97c0 49 33 76 77 93v4c-35 18 -64 43 -64 91c0 67 53 107 132 107zM177 592c-34 0 -54 -18 -54 -48c0 -31 27 -46 59 -59c26 14 46 30 46 61
c0 28 -20 46 -51 46zM167 426c-31 -11 -57 -26 -57 -61c0 -32 22 -53 62 -53c43 0 65 23 65 51c0 35 -34 49 -70 63z" />
    <glyph glyph-name="nine.sinf" horiz-adv-x="343" 
d="M175 268c86 0 137 -55 137 -147c0 -106 -71 -194 -195 -246h-4l-54 36v9c90 33 139 68 161 121l-6 6c-20 -12 -44 -20 -68 -20c-71 0 -111 51 -111 113c0 69 46 128 140 128zM171 86c21 0 42 7 63 20v15c0 60 -16 93 -61 93c-39 0 -61 -23 -61 -66c0 -40 21 -62 59 -62z
" />
    <glyph glyph-name="nine.numr" horiz-adv-x="343" 
d="M175 650c86 0 137 -55 137 -147c0 -106 -71 -194 -195 -246h-4l-54 36v9c90 33 139 68 161 121l-6 6c-20 -12 -44 -20 -68 -20c-71 0 -111 51 -111 113c0 69 46 128 140 128zM171 468c21 0 42 7 63 20v15c0 60 -16 93 -61 93c-39 0 -61 -23 -61 -66c0 -40 21 -62 59 -62z
" />
    <glyph glyph-name="q.sups" horiz-adv-x="344" 
d="M300 650l5 -5l-2 -179l2 -254h-84l3 146v13h-4c-19 -21 -40 -38 -66 -40c-79 0 -126 58 -126 153c0 108 60 166 150 166c28 0 55 -7 80 -15zM179 590c-48 0 -72 -28 -72 -96c0 -67 23 -100 60 -100c22 0 40 11 57 30v158c-16 6 -31 8 -45 8z" />
    <glyph glyph-name="zero.tf" horiz-adv-x="475" 
d="M244 592c126 0 195 -105 195 -293c0 -197 -73 -307 -207 -307c-127 0 -197 105 -197 294c0 196 75 306 209 306zM236 497c-81 0 -122 -70 -122 -204c0 -139 41 -211 124 -211c81 0 122 70 122 205c0 139 -42 210 -124 210z" />
    <glyph glyph-name="one.tf" horiz-adv-x="475" 
d="M307 583l-6 -376l5 -207h-103l6 196l-1 281l-163 -33l-9 5v81l256 64z" />
    <glyph glyph-name="r.sups" horiz-adv-x="226" 
d="M207 644c4 0 9 0 16 -1v-75l-10 -4c-7 2 -14 3 -20 3c-25 0 -45 -13 -66 -44v-53l4 -135h-86l4 127l-3 176l81 7v-64h4c19 41 44 63 76 63z" />
    <glyph glyph-name="two.tf" horiz-adv-x="475" 
d="M241 593c87 0 151 -52 151 -134c0 -63 -39 -130 -120 -238l-100 -136l2 -4h181l92 5l6 -9l-12 -82l-115 5h-239l-40 -2l-5 4v64l142 179c66 86 108 142 108 191c0 39 -26 70 -75 70c-48 0 -100 -29 -142 -79h-12l-17 79c58 54 125 87 195 87z" />
    <glyph glyph-name="s.sups" horiz-adv-x="265" 
d="M147 649c29 0 58 -6 82 -15l-11 -61l-10 -5c-27 16 -54 25 -71 25c-22 0 -35 -14 -35 -32c0 -46 134 -37 134 -134c0 -50 -37 -100 -119 -100c-30 0 -63 6 -97 20l10 66l8 5c28 -23 63 -35 87 -35c25 0 39 15 39 32c0 49 -135 40 -135 135c0 57 44 99 118 99z" />
    <glyph glyph-name="three.tf" horiz-adv-x="475" 
d="M220 595c99 0 166 -53 166 -131c0 -51 -30 -109 -102 -146v-4c80 -20 123 -65 123 -132c0 -112 -99 -189 -244 -189c-34 0 -74 4 -106 10l-6 83l7 7c36 -14 73 -21 109 -21c86 0 142 39 142 102c0 55 -41 87 -119 90h-65l-6 7l2 70l45 1c54 0 117 41 117 101
c0 43 -33 69 -83 69c-44 0 -82 -20 -127 -55h-11l-15 78c55 41 112 60 173 60z" />
    <glyph glyph-name="t.sups" horiz-adv-x="220" 
d="M172 398c11 0 25 3 37 10l6 -8l-7 -48c-19 -10 -43 -20 -62 -21c-58 0 -92 32 -90 84l1 70v105h-40l-3 5l3 46h40v68l79 18l5 -5l-2 -81h75l2 -4l-4 -47h-74l-3 -143c0 -33 12 -49 37 -49z" />
    <glyph glyph-name="four.tf" horiz-adv-x="475" 
d="M438 155l-86 2l5 -149l-6 -8l-79 -6l-6 7l3 156h-168l-73 -2l-6 9v65l239 357h92l-2 -350h85l7 -10zM110 236h160v231h-8z" />
    <glyph glyph-name="five.tf" horiz-adv-x="475" 
d="M419 584l-10 -78l-7 -7l-76 7h-156l-5 -137l68 -14c124 -26 182 -77 182 -161c0 -122 -104 -202 -261 -202c-31 0 -71 5 -104 11l-8 73l8 8c37 -9 72 -13 104 -13c100 0 165 44 165 114c0 49 -40 79 -130 96l-95 18l-7 9l3 267l14 13l59 -2h156l93 5z" />
    <glyph glyph-name="u.sups" horiz-adv-x="349" 
d="M302 645l-4 -228c0 -17 5 -25 15 -25c6 0 11 1 18 5l6 -5l-8 -47c-14 -9 -31 -15 -48 -15c-31 0 -49 15 -58 53h-4c-26 -29 -55 -49 -86 -51c-60 0 -93 32 -93 88l1 65l-2 153l81 7v-193c0 -36 15 -52 42 -52c21 0 39 9 59 29v209z" />
    <glyph glyph-name="nbspace" unicode="&#xa0;" horiz-adv-x="160" 
 />
    <glyph glyph-name="v.sups" horiz-adv-x="290" 
d="M100 596l46 -179h5l55 173l11 54h75l-101 -309h-94l-86 307l81 4z" />
    <glyph glyph-name="six.tf" horiz-adv-x="475" 
d="M272 354c103 0 162 -72 162 -171c0 -107 -72 -192 -202 -192c-128 0 -192 83 -192 221c0 168 107 306 292 383h6l76 -46v-10c-152 -54 -234 -119 -266 -214l7 -8c34 23 73 37 117 37zM239 60c64 0 104 38 104 109c0 72 -36 112 -100 112c-38 0 -75 -16 -110 -43l-1 -24
c0 -102 30 -154 107 -154z" />
    <glyph glyph-name="seven.tf" horiz-adv-x="475" 
d="M144 586h239l48 1l1 -74l-195 -393l-53 -131l-82 23l-6 16l237 473h-207l-85 -6l-6 10l7 83z" />
    <glyph glyph-name="w.sups" horiz-adv-x="463" 
d="M98 598l39 -175h5l46 170l10 51h86l6 -46l40 -173h5l45 168l12 51h72l-95 -309h-82l-48 200h-7l-55 -200h-85l-80 307l78 4z" />
    <glyph glyph-name="x.sups" horiz-adv-x="304" 
d="M116 610l42 -70l42 71l16 32h75l-88 -152l91 -153l-91 -7l-15 39l-43 72l-46 -77l-14 -30h-77l89 156l-86 150l92 5z" />
    <glyph glyph-name="eight.tf" horiz-adv-x="475" 
d="M247 593c101 0 162 -54 162 -142c0 -70 -42 -110 -101 -139v-6c61 -27 118 -62 118 -145c0 -104 -80 -169 -201 -169c-116 0 -183 63 -183 151c0 79 55 121 121 147v5c-54 26 -99 65 -99 140c0 99 75 158 183 158zM241 521c-57 0 -93 -32 -93 -83c0 -57 45 -81 96 -101
c45 21 83 48 83 104c0 50 -32 80 -86 80zM227 262c-51 -19 -98 -45 -98 -107c0 -55 39 -92 105 -92c69 0 107 39 107 91c0 62 -55 84 -114 108z" />
    <glyph glyph-name="nine.tf" horiz-adv-x="475" 
d="M245 595c128 0 193 -82 193 -221c0 -167 -108 -305 -293 -382h-5l-76 46v10c152 54 233 119 265 214l-7 8c-33 -23 -72 -37 -117 -37c-103 0 -161 72 -161 171c0 107 71 191 201 191zM234 306c39 0 76 15 110 42l1 25c0 102 -30 154 -107 154c-64 0 -103 -38 -103 -109
c0 -72 35 -112 99 -112z" />
    <glyph glyph-name="y.sups" horiz-adv-x="282" 
d="M82 598l56 -176h5l55 168l12 54h73l-99 -289c-31 -88 -68 -119 -158 -148h-7c-16 15 -28 33 -37 51l2 9c51 10 85 25 118 68l-112 307l82 4z" />
    <glyph glyph-name="Euro" unicode="&#x20ac;" horiz-adv-x="478" 
d="M312 64c39 0 88 13 123 36l9 -6l-7 -66c-41 -23 -87 -34 -129 -34c-122 0 -195 58 -218 166h-73l-4 6l4 49h66c-1 9 -1 17 -1 27c0 11 0 21 1 31h-66l-4 6l4 49h73c26 114 104 177 229 177c47 0 94 -13 132 -33l-16 -69l-7 -2c-32 21 -74 34 -114 34
c-72 0 -118 -37 -135 -107h170l6 -5l-5 -50h-179v-23c0 -12 0 -24 1 -35h177l6 -6l-5 -49h-168c20 -63 64 -96 130 -96z" />
    <glyph glyph-name="zero.tosf" horiz-adv-x="475" 
d="M245 508c126 0 198 -91 198 -252c0 -168 -76 -264 -211 -264c-127 0 -200 91 -200 250c0 169 77 266 213 266zM237 414c-84 0 -125 -54 -125 -165s41 -167 127 -167c83 0 125 54 125 162c0 114 -43 170 -127 170z" />
    <glyph glyph-name="z.sups" horiz-adv-x="289" 
d="M91 644h138l34 1l1 -53l-150 -204h98l52 3l4 -5l-5 -52l-73 1h-126l-42 -3v52l150 206h-93l-50 -3l-5 7l6 51z" />
    <glyph glyph-name="one.tosf" horiz-adv-x="475" 
d="M304 495l-4 -288l3 -207h-101l4 196v194l-156 -34l-9 6v81l248 63z" />
    <glyph glyph-name="two.tosf" horiz-adv-x="475" 
d="M241 506c84 0 146 -45 146 -116c0 -54 -35 -116 -116 -206l-90 -101l2 -5h164l88 8l6 -7l-12 -84l-111 5h-227l-37 -2l-5 4v63l138 144c66 70 100 117 100 156c0 31 -24 54 -69 54s-96 -24 -135 -64h-11l-17 79c56 44 121 72 186 72z" />
    <glyph glyph-name="Delta" unicode="&#x394;" horiz-adv-x="587" 
d="M568 0h-557l228 642h121zM294 541l-161 -458h310l-142 458h-7z" />
    <glyph glyph-name="franc" unicode="&#x20a3;" horiz-adv-x="398" 
d="M169 434l-2 -153h87l93 1l5 -7l-6 -61l-98 1h-82l-1 -57v-19h115l4 -5l-3 -40h-115l2 -94h-84l2 94h-62l-5 4l4 41h64v11l-3 350h307l6 -8l-7 -60l-128 2h-93z" />
    <glyph glyph-name="three.tosf" horiz-adv-x="475" 
d="M222 507c102 0 173 -52 173 -132c0 -52 -35 -111 -107 -146v-4c83 -22 128 -69 128 -143c0 -106 -103 -178 -256 -178c-33 0 -76 4 -109 9l-6 75l7 7c38 -9 77 -13 111 -13c97 0 156 39 156 103c0 55 -45 87 -129 90h-69l-5 7l3 70l48 1c57 0 125 41 125 101
c0 44 -35 70 -90 70c-45 0 -87 -18 -134 -49h-11l-15 71c57 41 117 61 180 61z" />
    <glyph glyph-name="four.tosf" horiz-adv-x="475" 
d="M444 66l-88 2l4 -151l-6 -8l-78 -6l-6 7l3 158h-172l-73 -2l-7 9v66l243 360h93l-2 -354h87l7 -9zM109 147h165l-1 235h-7z" />
    <glyph glyph-name="Omega" unicode="&#x3a9;" horiz-adv-x="748" 
d="M381 650c191 0 281 -129 281 -278c0 -101 -42 -210 -128 -289l2 -5h91l82 9l6 -7l-12 -85l-106 5h-136l-37 -2l-6 4v75c90 70 137 180 137 284c0 115 -57 205 -182 205s-180 -89 -180 -203c0 -105 48 -215 135 -286v-75l-5 -4l-38 2h-154l-92 -3l-7 7l13 81l88 -7h78l1 5
c-85 77 -126 179 -126 278c0 155 100 289 295 289z" />
    <glyph glyph-name="five.tosf" horiz-adv-x="475" 
d="M423 499l-11 -78l-8 -7l-76 8h-159l-5 -140l69 -14c125 -26 183 -76 183 -162c0 -122 -107 -204 -267 -204c-29 0 -70 5 -104 11l-6 73l8 8c37 -9 72 -12 105 -12c102 0 168 44 168 115c0 50 -41 79 -131 97l-96 18l-8 8l6 270l14 14l59 -3h158l95 5z" />
    <glyph glyph-name="six.tosf" horiz-adv-x="475" 
d="M272 354c105 0 164 -72 164 -170c0 -108 -66 -193 -201 -193c-122 0 -194 83 -194 221c0 168 107 306 294 383h6l60 -46v-10c-142 -54 -221 -119 -252 -214l7 -8c34 23 74 37 116 37zM237 60c70 0 108 40 108 115c0 69 -35 106 -100 106c-39 0 -77 -14 -111 -39l-1 -28
c0 -99 30 -154 104 -154z" />
    <glyph glyph-name="Ohm" unicode="&#x2126;" horiz-adv-x="748" 
d="M381 650c191 0 281 -129 281 -278c0 -101 -42 -210 -128 -289l2 -5h91l82 9l6 -7l-12 -85l-106 5h-136l-37 -2l-6 4v75c89 70 137 180 137 284c0 115 -57 205 -182 205s-180 -89 -180 -203c0 -105 48 -215 135 -286v-75l-5 -4l-38 2h-154l-92 -3l-7 7l13 81l88 -7h78l1 5
c-85 77 -126 179 -126 278c0 155 100 289 295 289z" />
    <glyph glyph-name="pi" unicode="&#x3c0;" horiz-adv-x="646" 
d="M502 419l-2 -307c0 -30 7 -44 26 -44c10 0 24 3 35 10l9 -6l-12 -57c-23 -13 -44 -21 -64 -21c-47 0 -85 26 -85 105v320h-155v-217l3 -294h-98l3 285l-2 226h-30c-23 0 -50 -34 -86 -70h-12l-30 39v11l84 95l17 7l496 1l7 -9l-8 -75z" />
    <glyph glyph-name="approxequal" unicode="&#x2248;" horiz-adv-x="480" 
d="M162 338c-20 0 -40 -24 -70 -53h-11l-27 34v10l77 81l11 6c51 -9 171 -51 203 -51c19 0 39 23 70 53h10l27 -34v-10l-77 -82l-11 -4c-51 7 -170 50 -202 50zM162 163c-20 0 -40 -25 -70 -54h-11l-27 34v11l77 81l11 5c51 -9 171 -51 203 -51c19 0 39 23 70 53h10l27 -34
v-10l-77 -82l-11 -3c-51 6 -170 50 -202 50z" />
    <glyph glyph-name="seven.tosf" horiz-adv-x="475" 
d="M142 501h245l49 2v-75l-201 -398l-53 -131l-82 22l-6 17l243 479h-213l-87 -6l-6 9l7 85z" />
    <glyph glyph-name="eight.tosf" horiz-adv-x="475" 
d="M247 593c101 0 162 -54 162 -142c0 -70 -42 -110 -101 -139v-6c61 -27 118 -62 118 -145c0 -104 -80 -169 -201 -169c-116 0 -183 63 -183 151c0 79 55 121 121 147v5c-54 26 -99 65 -99 140c0 99 75 158 183 158zM241 521c-57 0 -93 -32 -93 -83c0 -57 45 -81 96 -101
c45 21 83 48 83 104c0 50 -32 80 -86 80zM227 262c-51 -19 -98 -45 -98 -107c0 -55 39 -92 105 -92c69 0 107 39 107 91c0 62 -55 84 -114 108z" />
    <glyph glyph-name="bulletoperator" unicode="&#x2219;" horiz-adv-x="264" 
d="M134 307c39 0 62 -24 62 -63c0 -43 -26 -70 -67 -70c-40 0 -63 24 -63 65s26 68 68 68z" />
    <glyph glyph-name="nine.tosf" horiz-adv-x="475" 
d="M240 510c122 0 194 -82 194 -221c0 -168 -107 -306 -294 -383h-5l-61 46v11c142 54 221 118 252 213l-7 8c-34 -22 -74 -37 -116 -37c-105 0 -164 72 -164 171c0 107 66 192 201 192zM230 220c39 0 77 15 111 38c1 10 1 19 1 29c0 99 -30 154 -104 154
c-70 0 -108 -40 -108 -114c0 -70 35 -107 100 -107z" />
    <glyph glyph-name="divisionslash" unicode="&#x2215;" horiz-adv-x="286" 
d="M296 669l-206 -783h-70l-7 9l205 784h70z" />
    <glyph glyph-name="greaterequal" unicode="&#x2265;" horiz-adv-x="480" 
d="M437 314l8 -10v-83l-380 -148l-10 7l-15 58l329 124v6l-328 131l-4 9l22 58zM452 -39l-5 -63h-412l-7 7l5 63h412z" />
    <glyph glyph-name="increment" unicode="&#x2206;" horiz-adv-x="587" 
d="M567 0h-556l227 642h122zM294 541l-161 -458h310l-142 458h-7z" />
    <glyph glyph-name="infinity" unicode="&#x221e;" horiz-adv-x="480" 
d="M360 407c80 0 126 -60 126 -146c0 -91 -51 -141 -124 -141c-56 0 -89 33 -118 85c-26 -49 -64 -85 -125 -85c-79 0 -127 58 -127 144c0 90 50 143 125 143c58 0 92 -35 119 -80c20 37 58 80 124 80zM122 342c-45 0 -71 -29 -71 -77c0 -49 27 -78 67 -78c48 0 72 40 92 86
c-20 38 -43 69 -88 69zM358 340c-50 0 -72 -43 -89 -84c21 -40 45 -72 90 -72c41 0 68 28 68 77c0 47 -24 79 -69 79z" />
    <glyph glyph-name="integral" unicode="&#x222b;" horiz-adv-x="282" 
d="M263 713c24 0 51 -3 75 -9l-6 -71l-8 -5c-28 11 -53 15 -69 15c-51 0 -73 -29 -74 -80l1 -510c0 -93 -26 -143 -113 -201l-44 41v10c51 44 69 78 68 147l-2 499c-1 105 62 164 172 164z" />
    <glyph glyph-name="zero.lf" horiz-adv-x="527" 
d="M270 592c134 0 208 -105 208 -293c0 -197 -78 -307 -221 -307c-135 0 -209 105 -209 294c0 196 79 306 222 306zM261 497c-89 0 -134 -70 -134 -204c0 -139 46 -211 136 -211s136 70 136 205c0 139 -46 210 -138 210z" />
    <glyph glyph-name="zero.dnom" horiz-adv-x="374" 
d="M193 386c93 0 144 -68 144 -189c0 -132 -54 -202 -155 -202c-94 0 -146 67 -146 189c0 131 56 202 157 202zM186 308c-55 0 -82 -38 -82 -117c0 -84 27 -124 83 -124s83 40 83 119c0 82 -28 122 -84 122z" />
    <glyph glyph-name="one.lf" horiz-adv-x="363" 
d="M249 583l-6 -376l5 -207h-103l5 196v281l-133 -33l-9 5v81l226 64z" />
    <glyph glyph-name="two.lf" horiz-adv-x="493" 
d="M250 593c88 0 154 -52 154 -134c0 -63 -40 -130 -124 -238l-103 -136l2 -4h188l94 7l7 -8l-13 -85l-117 5h-246l-40 -2l-6 4v64l146 179c68 86 112 142 112 191c0 39 -26 70 -78 70c-49 0 -103 -29 -147 -79h-12l-16 79c58 54 127 87 199 87z" />
    <glyph glyph-name="one.dnom" horiz-adv-x="265" 
d="M182 377l-3 -241l3 -136h-87l2 126v166l-78 -20l-7 4v68l158 43z" />
    <glyph glyph-name="lessequal" unicode="&#x2264;" horiz-adv-x="480" 
d="M443 408l-5 -9l-327 -131v-6l329 -124l-15 -58l-10 -7l-380 148v83l8 10l378 152zM452 -39l-5 -63h-412l-7 7l5 63h412z" />
    <glyph glyph-name="two.dnom" horiz-adv-x="354" 
d="M180 386c63 0 112 -33 112 -90c0 -40 -26 -82 -83 -152l-59 -75l2 -2h108l66 3l3 -6l-9 -67l-86 3h-166l-27 -1l-4 3v51l96 109c44 52 72 86 72 115c0 22 -15 39 -46 39s-68 -18 -96 -49h-10l-14 65c44 33 91 54 141 54z" />
    <glyph glyph-name="three.lf" horiz-adv-x="433" 
d="M200 595c97 0 162 -53 162 -131c0 -51 -28 -109 -98 -146v-4c77 -20 117 -65 117 -132c0 -112 -95 -189 -237 -189c-33 0 -72 4 -103 10l-6 83l7 7c36 -14 72 -21 107 -21c82 0 135 39 135 102c0 55 -39 87 -113 90h-64l-5 7l2 70l44 1c51 0 111 41 111 101
c0 43 -31 69 -79 69c-42 0 -79 -20 -122 -55h-11l-15 78c53 41 109 60 168 60z" />
    <glyph glyph-name="three.dnom" horiz-adv-x="313" 
d="M146 387c69 0 115 -35 115 -90c0 -31 -16 -69 -61 -91v-4c49 -13 74 -44 74 -90c0 -70 -67 -117 -166 -117c-22 0 -50 3 -72 8l-5 60l6 6c26 -7 50 -10 72 -10c51 0 81 20 81 55c0 30 -21 48 -61 49h-47l-4 5l1 57h30c32 1 65 24 65 56c0 25 -17 39 -47 39
c-25 0 -49 -10 -78 -29h-9l-14 57c37 26 79 39 120 39z" />
    <glyph glyph-name="micro" unicode="&#xb5;" horiz-adv-x="515" 
d="M495 71l-11 -56c-19 -13 -41 -21 -64 -21c-40 0 -63 19 -75 66h-8c-37 -34 -75 -56 -120 -66c-21 0 -39 3 -55 9v-188h-96l4 378l-4 261l96 9v-311c1 -46 27 -74 71 -74c37 0 71 18 107 51v325l97 9l-7 -351c-1 -30 8 -44 26 -44c8 0 20 3 30 10z" />
    <glyph glyph-name="four.lf" horiz-adv-x="497" 
d="M455 155l-89 2l4 -149l-6 -8l-78 -6l-6 7l3 156h-175l-75 -2l-7 9v65l248 357h93l-2 -350h88l7 -10zM115 236h169l-1 231h-7z" />
    <glyph glyph-name="five.lf" horiz-adv-x="429" 
d="M385 584l-10 -80l-7 -8l-82 8h-134l-3 -137l62 -13c126 -25 169 -78 169 -158c0 -123 -101 -204 -245 -204c-32 0 -69 5 -101 11l-7 86l8 7c41 -17 78 -24 115 -24c82 0 134 42 134 108c0 54 -34 84 -117 100l-90 16l-7 9l4 270l14 13l55 -2h139l97 5z" />
    <glyph glyph-name="four.dnom" horiz-adv-x="358" 
d="M322 92l-55 2l4 -88l-5 -6l-68 -3l-5 4l2 94h-108l-57 -3l-6 8v53l163 229h80l-2 -224h56l5 -7zM99 158h97v130h-6z" />
    <glyph glyph-name="five.dnom" horiz-adv-x="311" 
d="M275 380l-8 -64l-7 -5l-55 5h-82l-2 -74l42 -10c75 -15 110 -49 110 -105c0 -81 -68 -132 -169 -132c-21 0 -50 3 -72 7l-6 59l7 7c24 -8 48 -10 72 -10c53 0 85 23 85 61c0 28 -20 45 -66 55l-64 11l-5 7l2 181l9 10l38 -1h101l65 2z" />
    <glyph glyph-name="six.lf" horiz-adv-x="476" 
d="M274 354c103 0 162 -72 162 -171c0 -107 -72 -192 -202 -192c-129 0 -193 83 -193 221c0 168 107 306 293 383h6l75 -46v-10c-152 -54 -234 -119 -266 -214l7 -8c34 23 73 37 118 37zM240 60c65 0 105 38 105 109c0 72 -36 112 -100 112c-39 0 -77 -16 -111 -43l-1 -24
c0 -102 30 -154 107 -154z" />
    <glyph glyph-name="six.dnom" horiz-adv-x="342" 
d="M199 234c72 0 111 -50 111 -111c0 -71 -45 -128 -140 -128c-86 0 -137 54 -137 145c0 107 71 195 194 247h5l54 -36v-8c-90 -34 -139 -70 -161 -123l6 -6c20 13 43 20 68 20zM172 48c39 0 60 23 60 67c0 40 -20 61 -58 61c-21 0 -42 -7 -62 -19v-16c0 -60 15 -93 60 -93z
" />
    <glyph glyph-name="seven.lf" horiz-adv-x="421" 
d="M126 586h220l45 1v-74l-175 -393l-51 -131l-81 23l-6 16l215 473h-184l-81 -6l-7 10l7 83z" />
    <glyph glyph-name="notequal" unicode="&#x2260;" horiz-adv-x="480" 
d="M445 210l7 -7l-5 -63h-208l-34 -146h-65l-6 8l33 138h-132l-7 7l5 63h150l25 106h-173l-7 7l5 62h191l34 142h64l6 -8l-31 -134h148l7 -7l-5 -62h-167l-24 -106h189z" />
    <glyph glyph-name="partialdiff" unicode="&#x2202;" horiz-adv-x="515" 
d="M129 717h9c216 -93 341 -245 341 -455c0 -169 -83 -271 -230 -271c-144 0 -216 92 -216 219c0 125 72 218 201 218c41 -2 83 -18 119 -42l9 8c-41 122 -142 206 -303 261v11zM251 64c87 0 132 66 132 192c0 14 -1 27 -2 40c-42 35 -85 53 -126 53
c-83 0 -127 -47 -127 -140c0 -94 43 -145 123 -145z" />
    <glyph glyph-name="eight.lf" horiz-adv-x="482" 
d="M250 593c102 0 163 -54 163 -142c0 -70 -43 -110 -101 -139v-6c62 -27 119 -62 119 -145c0 -104 -81 -169 -203 -169c-117 0 -183 63 -183 151c0 79 55 121 122 147v5c-55 26 -100 65 -100 140c0 99 75 158 183 158zM245 521c-59 0 -94 -32 -94 -83c0 -57 46 -81 97 -101
c45 21 85 48 85 104c0 50 -34 80 -88 80zM230 262c-52 -19 -99 -45 -99 -107c0 -55 40 -92 106 -92c69 0 109 39 109 91c0 62 -57 84 -116 108z" />
    <glyph glyph-name="seven.dnom" horiz-adv-x="304" 
d="M100 382h146l32 1l1 -61l-109 -234l-38 -95l-70 18l-5 13l136 289h-107l-61 -6l-4 9l6 67z" />
    <glyph glyph-name="eight.dnom" horiz-adv-x="349" 
d="M183 387c71 0 113 -37 113 -94c0 -42 -24 -69 -62 -89v-5c38 -18 73 -40 73 -91c0 -71 -56 -113 -141 -113c-83 0 -128 40 -128 97c0 49 33 76 77 93v4c-35 18 -64 43 -64 91c0 67 53 107 132 107zM177 330c-34 0 -54 -18 -54 -48c0 -31 27 -46 59 -59c26 14 46 30 46 61
c0 28 -20 46 -51 46zM167 164c-31 -11 -57 -26 -57 -61c0 -32 22 -53 62 -53c43 0 65 23 65 51c0 35 -34 49 -70 63z" />
    <glyph glyph-name="product" unicode="&#x220f;" horiz-adv-x="677" 
d="M572 558l-5 -356l5 -202h-105l7 193l-6 367h-261l-5 -358l4 -202h-104l7 193l-6 365l-50 -1l-7 9l8 76h571l6 -9l-7 -76z" />
    <glyph glyph-name="radical" unicode="&#x221a;" horiz-adv-x="508" 
d="M291 0h-108l-115 390h-91l-4 5l3 66h158l6 -5l103 -364h6l213 611l9 7h69z" />
    <glyph glyph-name="caron.alt" 
d="M238 694l-27 -183l-47 -7l-8 6l2 187l73 5z" />
    <glyph glyph-name="dieresis.i" 
d="M127 665c32 0 50 -19 50 -51c0 -34 -20 -55 -53 -55s-51 19 -51 52s21 54 54 54zM265 665c32 0 50 -19 50 -51c0 -34 -20 -55 -53 -55s-51 19 -51 52s21 54 54 54z" />
    <glyph glyph-name="summation" unicode="&#x2211;" horiz-adv-x="499" 
d="M478 634l-7 -79l-101 5h-213l192 -228v-17l-193 -234h203l113 6l7 -9l-7 -79l-357 1l-84 -1v72l205 253l-202 240v78l437 1z" />
    <glyph glyph-name="arrowdown" unicode="&#x2193;" horiz-adv-x="523" 
d="M469 190l-199 -195h-16l-200 195l14 56h15l146 -141l-4 356l7 7l65 -4l-4 -360l147 142h15z" />
    <glyph glyph-name="macron.i" 
d="M311 638l-5 -59h-220l-7 8l5 58h220z" />
    <glyph glyph-name="tilde.i" 
d="M339 647v-9l-58 -77l-10 -3c-39 5 -110 35 -131 35c-17 0 -31 -22 -52 -47h-9l-31 31v9l59 76l10 4c39 -5 109 -35 130 -35c18 0 31 22 53 48h9z" />
    <glyph glyph-name="arrowdownleft" unicode="&#x2199;" horiz-adv-x="523" 
d="M408 115l11 -10l-30 -50l-279 4l-11 11l-4 279l50 30l10 -11l4 -204l249 256h10l43 -49l-257 -252z" />
    <glyph glyph-name="arrowdownright" unicode="&#x2198;" horiz-adv-x="523" 
d="M426 346l-3 -279l-11 -11l-280 -4l-29 50l10 10l204 4l-256 249l1 10l49 43l251 -258l4 205l10 10z" />
    <glyph glyph-name="commaaccent" unicode="&#x326;" horiz-adv-x="0" 
d="M130 -49c26 -18 39 -40 39 -68c0 -46 -31 -91 -96 -138l-31 28v7c33 27 50 56 50 85c0 18 -10 34 -29 48l1 9c20 12 42 23 66 29z" />
    <glyph glyph-name="dotbelowcomb" unicode="&#x323;" horiz-adv-x="0" 
d="M119 -63c33 0 53 -20 53 -54c0 -36 -22 -59 -57 -59s-54 21 -54 55c0 35 22 58 58 58z" />
    <glyph glyph-name="arrowleft" unicode="&#x2190;" horiz-adv-x="523" 
d="M492 198l-360 4l142 -147v-15l-56 -14l-195 199v16l195 200l56 -14v-15l-141 -146l356 4l7 -7z" />
    <glyph glyph-name="arrowright" unicode="&#x2192;" horiz-adv-x="523" 
d="M498 243v-15l-195 -201l-56 15v14l142 147l-357 -4l-7 7l4 65l360 -4l-142 147v15l56 14z" />
    <glyph glyph-name="tildecomb" unicode="&#x303;" horiz-adv-x="0" 
d="M359 650v-9l-65 -78l-11 -4c-44 6 -128 37 -154 37c-18 0 -34 -23 -59 -49h-10l-31 32v9l66 77l11 4c43 -5 129 -36 154 -36c17 0 34 22 59 49h10z" />
    <glyph glyph-name="firsttonechinese" unicode="&#x2c9;" 
d="M342 638l-5 -59h-282l-7 8l6 58h282z" />
    <glyph glyph-name="arrowup" unicode="&#x2191;" horiz-adv-x="523" 
d="M469 278l-15 -56h-14l-147 142l4 -357l-7 -7l-65 4l4 360l-147 -142h-15l-14 56l200 195h15z" />
    <glyph glyph-name="arrowupleft" unicode="&#x2196;" horiz-adv-x="523" 
d="M460 99l-1 -10l-49 -42l-251 257l-4 -205l-10 -10l-50 29l3 279l11 11l280 4l29 -49l-10 -11l-203 -4z" />
    <glyph glyph-name="Gdieresis" horiz-adv-x="599" 
d="M247 846c32 0 50 -19 50 -51c0 -34 -20 -55 -53 -55s-51 19 -51 52s21 54 54 54zM411 846c32 0 50 -19 50 -51c0 -34 -20 -55 -53 -55s-51 19 -51 52s21 54 54 54zM356 649c66 0 127 -13 188 -43l-21 -96l-11 -1c-65 38 -113 54 -173 54c-131 0 -198 -75 -198 -251
c0 -166 60 -235 192 -235c33 0 61 5 111 20l3 65l-3 96l97 7l-2 -87l3 -147c-86 -27 -152 -39 -215 -39c-199 0 -293 116 -293 315c0 223 117 342 322 342z" />
    <glyph glyph-name="arrowupright" unicode="&#x2197;" horiz-adv-x="523" 
d="M427 122l-50 -30l-10 11l-4 204l-249 -256l-10 1l-43 48l257 252l-204 4l-11 10l30 50l279 -3l11 -11z" />
    <glyph glyph-name="breveacute" 
d="M296 757l1 -9c-34 -35 -68 -68 -104 -102l-9 -2l-33 28c30 37 60 75 89 115l9 2zM306 652l25 -33c-22 -62 -72 -97 -138 -97c-67 0 -114 35 -135 97l26 33h15c15 -37 50 -58 97 -58c46 0 79 21 95 58h15z" />
    <glyph glyph-name="lozenge" unicode="&#x25ca;" horiz-adv-x="504" 
d="M293 641l158 -344v-31l-157 -347l-78 -3l-8 5l-158 344v29l158 347l78 4zM245 567l-127 -290l131 -282h6l128 286l-132 286h-6z" />
    <glyph glyph-name="brevegrave" 
d="M140 789l9 -2c29 -40 58 -78 89 -115l-33 -28l-10 2c-35 34 -69 67 -103 102v9zM306 652l25 -33c-22 -62 -72 -97 -138 -97c-67 0 -114 35 -135 97l26 33h15c15 -37 50 -58 97 -58c46 0 79 21 95 58h15z" />
    <glyph glyph-name="brevehookabove" 
d="M193 840c40 0 71 -26 71 -62c0 -26 -16 -47 -54 -79l21 -36l-40 -23l-36 60c32 24 51 50 51 67c0 15 -12 22 -28 22c-18 0 -40 -9 -60 -25l-19 30c28 29 62 46 94 46zM306 652l25 -33c-22 -62 -72 -97 -138 -97c-67 0 -114 35 -135 97l26 33h15c15 -37 50 -58 97 -58
c46 0 79 21 95 58h15z" />
    <glyph glyph-name="brevetilde" 
d="M352 779v-9l-60 -74l-11 -4c-40 5 -120 35 -144 35c-16 0 -32 -22 -55 -46h-9l-29 30v8l61 74l10 4c41 -5 121 -34 144 -34c17 0 32 21 56 46h8zM305 649l24 -33c-21 -60 -69 -94 -134 -94c-64 0 -110 34 -130 94l25 33h15c14 -36 47 -57 94 -57c44 0 76 21 91 57h15z
" />
    <glyph glyph-name="circle1" horiz-adv-x="455" 
d="M228 464c131 0 238 -107 238 -238s-107 -238 -238 -238s-238 107 -238 238s107 238 238 238z" />
    <glyph glyph-name="circle2" horiz-adv-x="639" 
d="M319 649c183 0 332 -149 332 -332s-149 -331 -332 -331s-331 148 -331 331s148 332 331 332z" />
    <glyph glyph-name="circumflexacute" 
d="M378 762l2 -9l-87 -109h-9l-35 28l70 111l9 3zM77 530l-19 42c45 31 86 63 123 96h25c38 -33 80 -65 124 -96l-20 -42h-10c-36 22 -71 43 -106 65l-105 -65h-12z" />
    <glyph glyph-name="circumflexgrave" 
d="M273 783l70 -111l-35 -28h-9l-87 109l2 9l51 24zM77 530l-19 42c45 31 86 63 123 96h25c38 -33 80 -65 124 -96l-20 -42h-10c-36 22 -71 43 -106 65l-105 -65h-12z" />
    <glyph glyph-name="circumflexhookabove" 
d="M292 826c38 0 67 -25 67 -59c0 -25 -15 -45 -51 -75l20 -34l-38 -22l-34 57c30 23 48 47 48 64c0 14 -11 20 -26 20c-17 0 -39 -7 -57 -23l-18 29c26 27 58 43 89 43zM77 530l-19 42c45 31 86 63 123 96h25c38 -33 80 -65 124 -96l-20 -42h-10c-36 22 -71 43 -106 65
l-105 -65h-12z" />
    <glyph glyph-name="circumflextilde" 
d="M352 779v-9l-60 -74l-11 -4c-40 5 -120 35 -144 35c-16 0 -32 -22 -55 -46h-9l-29 30v8l61 74l10 4c41 -5 121 -34 144 -34c17 0 32 21 56 46h8zM77 530l-19 42c45 31 86 63 123 96h25c38 -33 80 -65 124 -96l-20 -42h-10c-36 22 -71 43 -106 65l-105 -65h-12z" />
    <glyph glyph-name="estimated" unicode="&#x212e;" horiz-adv-x="788" 
d="M405 649c202 0 366 -147 366 -330v-6h-595c-3 0 -7 -2 -7 -6v-181c0 -9 5 -16 10 -22c56 -57 137 -94 227 -94c98 0 187 42 246 105h41c-67 -76 -172 -125 -288 -125c-202 0 -367 147 -367 329c0 183 165 330 367 330zM406 629c-90 0 -169 -35 -226 -93
c-7 -6 -11 -15 -11 -24v-174c0 -4 3 -6 7 -6h458c4 0 7 2 7 6v178c0 10 -5 17 -11 23c-57 56 -136 90 -224 90z" />
    <glyph glyph-name="dieresisacute" unicode="&#xf6d7;" 
d="M296 810l16 -64l-5 -9c-76 -18 -144 -32 -215 -45l-10 5l-9 47c72 21 140 43 214 71zM114 642c30 0 48 -18 48 -49s-20 -52 -52 -52c-30 0 -48 18 -48 49s20 52 52 52zM278 642c30 0 48 -18 48 -49s-20 -52 -52 -52c-30 0 -48 18 -48 49s20 52 52 52z" />
    <glyph glyph-name="literSign" unicode="&#x2113;" horiz-adv-x="382" 
d="M365 72l-7 -72h-278l4 150l-4 351h97l-5 -342l2 -79h185z" />
    <glyph glyph-name="dieresiscaron" 
d="M311 799l20 -42c-45 -31 -86 -64 -124 -96h-24c-38 32 -80 65 -124 96l19 42h11c36 -22 71 -43 106 -65c34 22 69 43 105 65h11zM114 642c30 0 48 -18 48 -49s-20 -52 -52 -52c-30 0 -48 18 -48 49s20 52 52 52zM278 642c30 0 48 -18 48 -49s-20 -52 -52 -52
c-30 0 -48 18 -48 49s20 52 52 52z" />
    <glyph glyph-name="minute" unicode="&#x2032;" horiz-adv-x="182" 
d="M142 632l-29 -198l-50 -7l-8 7l2 200l78 6z" />
    <glyph glyph-name="dieresisgrave" unicode="&#xf6d8;" 
d="M88 810l10 5c74 -28 142 -50 214 -71l-10 -47l-10 -5c-69 13 -138 27 -213 45l-6 9zM114 642c30 0 48 -18 48 -49s-20 -52 -52 -52c-30 0 -48 18 -48 49s20 52 52 52zM278 642c30 0 48 -18 48 -49s-20 -52 -52 -52c-30 0 -48 18 -48 49s20 52 52 52z" />
    <glyph glyph-name="dieresismacron" 
d="M335 763l-6 -59h-266l-8 8l6 59h267zM114 642c30 0 48 -18 48 -49s-20 -52 -52 -52c-30 0 -48 18 -48 49s20 52 52 52zM278 642c30 0 48 -18 48 -49s-20 -52 -52 -52c-30 0 -48 18 -48 49s20 52 52 52z" />
    <glyph glyph-name="second" unicode="&#x2033;" horiz-adv-x="315" 
d="M142 632l-29 -198l-50 -7l-8 7l2 200l78 6zM274 632l-28 -198l-50 -7l-8 7l1 200l78 6z" />
    <glyph glyph-name="down" horiz-adv-x="415" 
d="M208 73l-145 289h289z" />
    <glyph glyph-name="firstofchinese" 
d="M342 638l-5 -59h-282l-7 8l6 58h282z" />
    <glyph glyph-name="foundryicon" horiz-adv-x="783" 
d="M180 524h423c52 0 80 -28 80 -80v-423c0 -52 -28 -80 -80 -80h-423c-52 0 -80 28 -80 80v423c0 52 28 80 80 80zM191 437v-344h74v180c0 9 6 12 24 12c29 0 43 -18 43 -56v-136h74v178c0 42 -33 73 -78 73l-48 -28c-3 -2 -6 -4 -9 -4c-4 0 -6 3 -6 9v116h-74zM524 376
l-89 -56v-18h26c7 0 10 -3 10 -10v-132c0 -42 33 -73 78 -73l63 37v25c-9 -3 -18 -4 -26 -4c-29 0 -41 17 -41 57v90c0 6 3 10 10 10h58v36h-58c-6 0 -10 4 -10 10v28h-21z" />
    <glyph glyph-name="gdieresis" horiz-adv-x="523" 
d="M199 705c32 0 50 -19 50 -51c0 -34 -20 -55 -53 -55s-51 19 -51 52s21 54 54 54zM363 705c32 0 50 -19 50 -51c0 -34 -20 -55 -53 -55s-51 19 -51 52s21 54 54 54zM310 507c55 0 104 -10 158 -31l-29 -91h-10c-50 31 -87 43 -136 43c-102 0 -152 -52 -152 -184
c0 -126 45 -173 150 -173c27 0 49 4 87 18v42l-1 75l88 6l-1 -66v-122c-70 -21 -126 -31 -178 -31c-165 0 -246 91 -246 247c0 174 100 267 270 267z" />
    <glyph glyph-name="hookabove" 
d="M189 725c40 0 71 -27 71 -63c0 -26 -16 -47 -54 -78l21 -37l-40 -22l-36 59c32 24 51 50 51 68c0 14 -12 21 -28 21c-18 0 -40 -8 -60 -24l-19 30c28 28 62 46 94 46z" />
    <glyph glyph-name="left" horiz-adv-x="415" 
d="M324 83l-289 144l289 145v-289z" />
    <glyph glyph-name="puso" horiz-adv-x="129" 
d="M113 520l-28 -261l-50 -10l-8 10l2 264l78 8z" />
    <glyph glyph-name="right" horiz-adv-x="415" 
d="M381 228l-289 -145v289z" />
    <glyph glyph-name="ringacute" 
d="M320 825l16 -63l-5 -10c-75 -19 -143 -34 -213 -49l-11 5l-10 47c72 22 140 45 213 74zM196 688c57 0 87 -35 87 -85c0 -58 -38 -90 -91 -90c-51 0 -87 31 -87 87c0 55 33 88 91 88zM193 642c-28 0 -42 -15 -42 -40c0 -30 16 -44 43 -44c26 0 44 13 44 41
c0 26 -15 43 -45 43z" />
    <glyph glyph-name="square1" horiz-adv-x="455" 
d="M456 0h-456v456h456v-456z" />
    <glyph glyph-name="square2" horiz-adv-x="639" 
d="M639 0h-639v639h639v-639z" />
    <glyph glyph-name="up" horiz-adv-x="415" 
d="M352 103h-289l144 289z" />
    <glyph glyph-name="gdieresis.sc" horiz-adv-x="523" 
d="M199 705c32 0 50 -19 50 -51c0 -34 -20 -55 -53 -55s-51 19 -51 52s21 54 54 54zM363 705c32 0 50 -19 50 -51c0 -34 -20 -55 -53 -55s-51 19 -51 52s21 54 54 54zM310 507c55 0 104 -10 158 -31l-29 -91h-10c-50 31 -87 43 -136 43c-102 0 -152 -52 -152 -184
c0 -126 45 -173 150 -173c27 0 49 4 87 18v42l-1 75l88 6l-1 -66v-122c-70 -21 -126 -31 -178 -31c-165 0 -246 91 -246 247c0 174 100 267 270 267z" />
    <glyph glyph-name="gtilde.sc" horiz-adv-x="523" 
d="M442 690v-9l-65 -77l-10 -5c-44 6 -129 37 -155 37c-18 0 -34 -23 -59 -49h-10l-31 32v9l65 77l11 4c44 -6 130 -36 155 -36c17 0 34 22 59 49h10zM310 507c55 0 104 -10 158 -31l-29 -91h-10c-50 31 -87 43 -136 43c-102 0 -152 -52 -152 -184c0 -126 45 -173 150 -173
c27 0 49 4 87 18v42l-1 75l88 6l-1 -66v-122c-70 -21 -126 -31 -178 -31c-165 0 -246 91 -246 247c0 174 100 267 270 267z" />
    <glyph glyph-name="puso.cap" horiz-adv-x="129" 
d="M113 607l-28 -275l-50 -10l-8 11l2 277l78 7z" />
    <glyph glyph-name="acute.cap" 
d="M285 691l27 -61l-4 -10c-71 -31 -136 -56 -203 -82l-11 4l-17 44c66 34 130 67 198 107z" />
    <glyph glyph-name="breve.cap" 
d="M306 672l25 -33c-22 -62 -72 -97 -138 -97c-67 0 -114 35 -135 97l26 33h15c15 -37 50 -58 97 -58c46 0 79 21 95 58h15z" />
    <glyph glyph-name="caron.cap" 
d="M311 679l20 -43c-45 -30 -86 -62 -124 -96h-24c-38 34 -80 66 -124 96l19 43h11c36 -22 71 -43 106 -66c34 23 69 44 105 66h11z" />
    <glyph glyph-name="circumflex.cap" 
d="M77 550l-19 42c45 31 86 63 123 96h25c38 -33 80 -65 124 -96l-20 -42h-10c-36 22 -71 43 -106 65l-105 -65h-12z" />
    <glyph glyph-name="grave.cap" 
d="M104 691l11 3c68 -41 131 -74 198 -107l-17 -44l-11 -4c-67 26 -132 51 -203 82l-4 10z" />
    <glyph glyph-name="hungarumlaut.cap" 
d="M71 536l-33 28c37 42 73 83 108 126l9 2l46 -32l1 -10c-40 -38 -79 -75 -121 -112zM219 536l-33 28c36 42 72 83 108 126l7 2l48 -32l1 -10c-40 -38 -81 -75 -121 -112z" />
    </font>
</defs>
</svg>
